<svg width="413" height="306" viewBox="0 0 413 306" fill="none" xmlns="http://www.w3.org/2000/svg">
<path d="M282.697 211.204C256.386 225.416 213.8 199.703 165.734 198.809C117.599 197.949 63.812 221.906 44.4243 207.601C25.0704 193.364 40.0129 140.83 68.5799 104.494C97.1469 68.1586 139.236 47.9859 185.003 48.0449C230.701 48.138 280.079 68.4627 299.681 105.728C319.249 142.924 309.041 197.06 282.697 211.204Z" fill="#FFF4B8"/>
<path d="M325.8 246.7H97C97 221.1 118 200.1 143.6 200.1H289C314.6 200.1 335.6 221.1 335.6 246.7H325.8Z" fill="#EACA89"/>
<path d="M146.8 200.399C146.7 201.199 146.6 201.999 146.7 202.799C146.9 211.599 154.9 218.699 164.4 218.599C173.9 218.499 181.6 211.299 181.6 202.499C181.6 202.199 181.6 201.799 181.6 201.499C181.3 196.699 182.8 191.899 185.9 187.999C189.9 183.099 192 176.799 191.1 169.999C189.7 158.499 179.9 149.299 167.5 147.999C151.2 146.199 137.3 157.999 137.2 172.799C137.2 178.699 139.4 184.199 143 188.499C145.9 191.799 147.4 196.099 146.8 200.399Z" fill="#FCD977"/>
<path d="M174.3 180.499C173.7 179.999 172.7 180.199 172.3 180.799L165.8 189.599L165.9 176.399C165.9 175.599 165.3 174.899 164.5 174.899C163.7 174.899 163 175.499 163 176.299L162.9 200.799L155.9 192.399C155.4 191.799 154.5 191.699 153.9 192.199C153.3 192.699 153.2 193.599 153.7 194.199L162.9 205.199L162.7 240.199C162.7 240.999 163.3 241.699 164.1 241.699C164.9 241.699 165.6 241.099 165.6 240.299L165.8 194.199C166 194.099 166.2 193.999 166.3 193.799L174.6 182.499C175 181.899 174.9 180.999 174.3 180.499Z" fill="#373449"/>
<path d="M187.5 174.4C187.4 175.4 187.3 176.3 187.4 177.3C187.7 188 197.4 196.5 208.9 196.3C220.4 196.1 229.6 187.4 229.6 176.7C229.6 176.3 229.6 175.9 229.6 175.4C229.2 169.5 231 163.8 234.7 159.1C239.5 153.1 242 145.5 240.9 137.3C239.1 123.4 227.2 112.4 212.2 110.8C192.5 108.8 175.8 123 175.8 141C175.8 148.2 178.5 154.7 182.9 159.9C186.4 164.1 188.1 169.2 187.5 174.4Z" fill="#94E5BB"/>
<path d="M221 164.4C220.5 164 219.7 164 219.3 164.5L209.8 175.7V165.7C210.1 165.6 210.3 165.5 210.5 165.3L220.5 151.5C220.9 151 220.8 150.2 220.2 149.8C219.7 149.4 218.9 149.5 218.5 150.1L209.8 162.1V144.7C209.8 144 209.3 143.5 208.6 143.5C207.9 143.5 207.4 144 207.4 144.7V162.3L198.7 150.3C198.3 149.8 197.6 149.6 197 150C196.5 150.4 196.3 151.1 196.7 151.7L206.7 165.5C206.9 165.7 207.1 165.9 207.4 165.9V175.9L197.9 164.7C197.5 164.2 196.7 164.1 196.2 164.6C195.7 165 195.6 165.8 196.1 166.3L207.4 179.7V240.9C207.4 241.6 207.9 242.1 208.6 242.1C209.3 242.1 209.8 241.6 209.8 240.9V179.7L221.1 166.3C221.5 165.6 221.5 164.8 221 164.4Z" fill="#373449"/>
<path d="M335.2 129.899H249.6L209 172.399H293.9L335.2 129.899Z" fill="#FB8982"/>
<path d="M335.4 129.699L335.2 129.899L293.9 172.399L301.1 179.599L338.6 143.799L374.3 179.599L380.5 173.499L335.4 129.699Z" fill="#DA746E"/>
<path d="M209 172.399H208.1L214.4 179.599H301.1L293.9 172.399H209Z" fill="#F27E77"/>
<path d="M338.3 143.499L301.1 178.699L300.7 179.599V236.999L373.4 236.499V179.199V178.699L338.3 143.499Z" fill="#FFE48D"/>
<path d="M339.2 190.899H324.1C323.2 190.899 322.5 191.599 322.5 192.499V201.299H339.2V190.899Z" fill="#373449"/>
<path d="M322.6 205.499V214.999C322.6 215.899 323.3 216.599 324.2 216.599H339.3V205.599H322.6V205.499Z" fill="#373449"/>
<path d="M358.7 201.299V192.499C358.7 191.599 358 190.899 357.1 190.899H343.4V201.299H358.7Z" fill="#373449"/>
<path d="M343.4 216.499H357.1C358 216.499 358.7 215.799 358.7 214.899V205.399H343.4V216.499Z" fill="#373449"/>
<path d="M300.6 179.199H214.8V236.999H300.6V179.199Z" fill="#FCD977"/>
<path d="M265.6 236.499H248.4V202.299C248.4 201.199 249.3 200.399 250.3 200.399H263.7C264.8 200.399 265.6 201.299 265.6 202.299V236.499Z" fill="#373449"/>
<path d="M290.1 206.6V201.3C290.1 200.9 289.8 200.6 289.4 200.6H282.8V206.6H290.1Z" fill="#373449"/>
<path d="M281.1 200.6H274.5C274.1 200.6 273.8 200.9 273.8 201.3V206.6H281.1V200.6Z" fill="#373449"/>
<path d="M273.8 208.199V213.499C273.8 213.899 274.1 214.199 274.5 214.199H281.1V208.199H273.8Z" fill="#373449"/>
<path d="M282.8 214.1H289.4C289.8 214.1 290.1 213.8 290.1 213.4V208.1H282.8V214.1Z" fill="#373449"/>
<path d="M240 206.6V201.3C240 200.9 239.7 200.6 239.3 200.6H232.7V206.6H240Z" fill="#373449"/>
<path d="M232.7 214.1H239.3C239.7 214.1 240 213.8 240 213.4V208.1H232.7V214.1Z" fill="#373449"/>
<path d="M231 200.6H224.4C224 200.6 223.7 200.9 223.7 201.3V206.6H231V200.6Z" fill="#373449"/>
<path d="M223.7 208.199V213.499C223.7 213.899 224 214.199 224.4 214.199H231V208.199H223.7Z" fill="#373449"/>
<path d="M412.7 274.9H140.3V272C140.3 252.7 156.1 236.8 175.5 236.8H377.6C396.9 236.8 412.8 252.6 412.8 272V274.9H412.7Z" fill="#D6B986"/>
</svg>
