<svg width="316" height="165" viewBox="0 0 316 165" fill="none" xmlns="http://www.w3.org/2000/svg">
<path d="M228.8 136.7H0C0 111.1 21 90.0996 46.6 90.0996H192C217.6 90.0996 238.6 111.1 238.6 136.7H228.8Z" fill="#EACA89"/>
<path d="M49.7999 90.3995C49.6999 91.1995 49.6 91.9995 49.7 92.7995C49.9 101.6 57.9 108.7 67.4 108.6C76.9 108.5 84.5999 101.3 84.5999 92.4995C84.5999 92.1995 84.5999 91.7995 84.5999 91.4995C84.2999 86.6995 85.8 81.8995 88.9 77.9995C92.9 73.0995 94.9999 66.7995 94.0999 59.9995C92.6999 48.4995 82.9 39.2995 70.5 37.9995C54.2 36.1995 40.3 47.9995 40.2 62.7995C40.2 68.6995 42.4 74.1995 46 78.4995C48.9 81.7995 50.3999 86.0995 49.7999 90.3995Z" fill="#FCD977"/>
<path d="M77.3 70.4994C76.7 69.9994 75.7 70.1994 75.3 70.7994L68.8 79.5994L68.9 66.3994C68.9 65.5994 68.3 64.8994 67.5 64.8994C66.7 64.8994 66 65.4994 66 66.2994L65.9 90.7994L58.9 82.3994C58.4 81.7994 57.5 81.6994 56.9 82.1994C56.3 82.6994 56.2 83.5994 56.7 84.1994L65.9 95.1994L65.7 130.199C65.7 130.999 66.3 131.699 67.1 131.699C67.9 131.699 68.6 131.099 68.6 130.299L68.8 84.1994C69 84.0994 69.2 83.9994 69.3 83.7994L77.6 72.4994C78 71.8994 77.9 70.9994 77.3 70.4994Z" fill="#373449"/>
<path d="M90.5 64.3995C90.4 65.3995 90.3 66.2995 90.4 67.2995C90.7 77.9995 100.4 86.4995 111.9 86.2995C123.4 86.0995 132.6 77.3995 132.6 66.6995C132.6 66.2995 132.6 65.8995 132.6 65.3995C132.2 59.4995 134 53.7995 137.7 49.0995C142.5 43.0995 145 35.4995 143.9 27.2995C142.1 13.3995 130.2 2.39954 115.2 0.799538C95.5 -1.20046 78.8 12.9995 78.8 30.9995C78.8 38.1995 81.5 44.6995 85.9 49.8995C89.4 54.0995 91.1 59.1995 90.5 64.3995Z" fill="#94E5BB"/>
<path d="M124 54.3995C123.5 53.9995 122.7 53.9995 122.3 54.4995L112.8 65.6995V55.6995C113.1 55.5995 113.3 55.4995 113.5 55.2995L123.5 41.4995C123.9 40.9995 123.8 40.1995 123.2 39.7995C122.7 39.3995 121.9 39.4995 121.5 40.0995L112.8 52.0995V34.6995C112.8 33.9995 112.3 33.4995 111.6 33.4995C110.9 33.4995 110.4 33.9995 110.4 34.6995V52.2995L101.7 40.2995C101.3 39.7995 100.6 39.5995 100 39.9995C99.5 40.3995 99.3 41.0995 99.7 41.6995L109.7 55.4995C109.9 55.6995 110.1 55.8995 110.4 55.8995V65.8995L100.9 54.6995C100.5 54.1995 99.7 54.0995 99.2 54.5995C98.7 54.9995 98.6 55.7995 99.1 56.2995L110.4 69.6995V130.9C110.4 131.6 110.9 132.1 111.6 132.1C112.3 132.1 112.8 131.6 112.8 130.9V69.6995L124.1 56.2995C124.5 55.5995 124.5 54.7995 124 54.3995Z" fill="#373449"/>
<path d="M238.2 19.8994H152.6L112 62.3994H196.9L238.2 19.8994Z" fill="#FB8982"/>
<path d="M238.4 19.6995L238.2 19.8995L196.9 62.3995L204.1 69.5995L241.6 33.7995L277.3 69.5995L283.5 63.4995L238.4 19.6995Z" fill="#DA746E"/>
<path d="M112 62.3994H111.1L117.4 69.5994H204.1L196.9 62.3994H112Z" fill="#F27E77"/>
<path d="M241.3 33.4995L204.1 68.6995L203.7 69.5995V127L276.4 126.5V69.1995V68.6995L241.3 33.4995Z" fill="#FFE48D"/>
<path d="M242.2 80.8995H227.1C226.2 80.8995 225.5 81.5995 225.5 82.4995V91.2995H242.2V80.8995Z" fill="#373449"/>
<path d="M225.6 95.4995V105C225.6 105.9 226.3 106.6 227.2 106.6H242.3V95.5995H225.6V95.4995Z" fill="#373449"/>
<path d="M261.7 91.2995V82.4995C261.7 81.5995 261 80.8995 260.1 80.8995H246.4V91.2995H261.7V91.2995Z" fill="#373449"/>
<path d="M246.4 106.5H260.1C261 106.5 261.7 105.8 261.7 104.9V95.3995H246.4V106.5V106.5Z" fill="#373449"/>
<path d="M203.6 69.1995H117.8V126.999H203.6V69.1995Z" fill="#FCD977"/>
<path d="M168.6 126.499H151.4V92.2994C151.4 91.1994 152.3 90.3994 153.3 90.3994H166.7C167.8 90.3994 168.6 91.2994 168.6 92.2994V126.499V126.499Z" fill="#373449"/>
<path d="M193.1 96.5995V91.2995C193.1 90.8995 192.8 90.5995 192.4 90.5995H185.8V96.5995H193.1Z" fill="#373449"/>
<path d="M184.1 90.5995H177.5C177.1 90.5995 176.8 90.8995 176.8 91.2995V96.5995H184.1V90.5995V90.5995Z" fill="#373449"/>
<path d="M176.8 98.1995V103.499C176.8 103.899 177.1 104.199 177.5 104.199H184.1V98.1995H176.8Z" fill="#373449"/>
<path d="M185.8 104.099H192.4C192.8 104.099 193.1 103.799 193.1 103.399V98.0995H185.8V104.099V104.099Z" fill="#373449"/>
<path d="M143 96.5995V91.2995C143 90.8995 142.7 90.5995 142.3 90.5995H135.7V96.5995H143Z" fill="#373449"/>
<path d="M135.7 104.099H142.3C142.7 104.099 143 103.799 143 103.399V98.0995H135.7V104.099V104.099Z" fill="#373449"/>
<path d="M134 90.5995H127.4C127 90.5995 126.7 90.8995 126.7 91.2995V96.5995H134V90.5995Z" fill="#373449"/>
<path d="M126.7 98.1995V103.499C126.7 103.899 127 104.199 127.4 104.199H134V98.1995H126.7Z" fill="#373449"/>
<path d="M315.7 164.9H43.3V162C43.3 142.7 59.1 126.8 78.5 126.8H280.6C299.9 126.8 315.8 142.6 315.8 162V164.9H315.7Z" fill="#D6B986"/>
</svg>
