<?xml version="1.0" encoding="utf-8"?><svg xmlns="http://www.w3.org/2000/svg" xmlns:xlink="http://www.w3.org/1999/xlink"><style>:root>svg{display:none}:root>svg:target{display:block}</style><svg fill="none" viewBox="0 0 234 171" id="1" xmlns="http://www.w3.org/2000/svg"><path d="M15.123 66.072c24.158-37.74 133.683-59.598 176.402-30.261 52.508 36.071 56.216 112.702 11.774 131.723-31.58 13.462-56.564-32.483-83.811-32.483-31.005 0-64.065 13.41-91.102 4.262-14.733-5.015-47.618-19.549-13.262-73.241z" fill="#D8FFC5"/><g clip-path="url(#aclip0)"><path d="M133.168 148.553h-8.396v2.402a4 4 0 0 0 4 4h.396a4 4 0 0 0 4-4v-2.402zM177.495 148.553h-1.993a3.2 3.2 0 1 0 0 6.402h1.993a3.2 3.2 0 1 0 0-6.402z" fill="#8DA2A9"/><path d="M185.927 151.25h-66.384a3.069 3.069 0 0 1-3.074-3.063V83.71a4.71 4.71 0 0 1 4.725-4.71h64.733a3.07 3.07 0 0 1 3.074 3.064v66.168c0 1.646-1.377 3.018-3.074 3.018z" fill="#CCE6F0"/><path d="M153.538 79h-32.573c-2.478 0-4.496 2.012-4.496 4.481v64.888a2.873 2.873 0 0 0 2.89 2.881h34.179V79z" fill="#BBDAE2"/><path d="M182.027 145.854h-58.585a1.525 1.525 0 0 1-1.514-1.509V87.322c0-1.6 1.284-2.88 2.89-2.88h57.209c.826 0 1.514.685 1.514 1.508v58.395c0 .823-.688 1.509-1.514 1.509zm-58.356-1.738h58.127V86.179h-56.98c-.642 0-1.147.503-1.147 1.143v56.794z" fill="#8DA2A9"/><path d="M153.538 126.512c6.309 0 11.423-5.098 11.423-11.386 0-6.289-5.114-11.387-11.423-11.387s-11.424 5.098-11.424 11.387c0 6.288 5.115 11.386 11.424 11.386z" fill="#8DA2A9"/><path d="M153.537 118.555a3.435 3.435 0 0 0 3.441-3.43c0-1.894-1.54-3.43-3.441-3.43-1.9 0-3.44 1.536-3.44 3.43 0 1.894 1.54 3.43 3.44 3.43zM152.711 110.049v-4.298c-2.018.183-3.853.96-5.275 2.195l3.073 3.064a4.8 4.8 0 0 1 2.202-.961zM148.445 114.347c.138-.823.459-1.6.918-2.24l-3.074-3.064a9.49 9.49 0 0 0-2.202 5.259h4.358v.045zM149.363 118.143a5.403 5.403 0 0 1-.918-2.241h-4.312c.183 2.012.963 3.842 2.202 5.259l3.028-3.018zM159.639 107.946a9.559 9.559 0 0 0-5.276-2.195v4.298a5.45 5.45 0 0 1 2.248.915l3.028-3.018zM158.63 115.948a5.388 5.388 0 0 1-.917 2.241l3.074 3.064a9.51 9.51 0 0 0 2.202-5.259h-4.359v-.046zM152.711 120.201a5.447 5.447 0 0 1-2.248-.915l-3.073 3.064a9.559 9.559 0 0 0 5.276 2.195v-4.344h.045zM157.713 112.107c.459.64.78 1.417.917 2.241h4.313c-.184-2.012-.964-3.842-2.202-5.259l-3.028 3.018zM156.565 119.286a5.436 5.436 0 0 1-2.248.915v4.298c2.019-.183 3.854-.96 5.276-2.195l-3.028-3.018z" fill="#D6E3E8"/><path d="M124.497 106.391h-7.295a2.199 2.199 0 0 1-2.202-2.195v-3.612c0-1.19.963-2.195 2.202-2.195h7.295a2.2 2.2 0 0 1 2.202 2.195v3.612c-.046 1.235-1.01 2.195-2.202 2.195z" fill="#8DA2A9"/><path d="M158.612 59.111l-3.605-4.64-.954.741c-9.747-6.933-24.557-8.938-34.332-1.344-9.774 7.593-11.475 22.426-7.194 33.605L116.5 88.5V94c4.556 5.866 9.885 8.561 17.179 9.546 7.295.985 14.629-.975 20.39-5.448 5.76-4.474 9.475-11.094 10.327-18.406.852-7.311-1.229-14.714-5.784-20.58z" fill="#ABBBC0" fill-opacity=".35" style="mix-blend-mode:multiply"/><path d="M124.497 132.457h-7.295a2.2 2.2 0 0 1-2.202-2.195v-3.613c0-1.189.963-2.195 2.202-2.195h7.295a2.2 2.2 0 0 1 2.202 2.195v3.613c-.046 1.234-1.01 2.195-2.202 2.195z" fill="#8DA2A9"/></g><path d="M94.385 34.592c5.474 5.008 11.583 12.569 32.852 27.002 0 0 3.856-1.025 4.102-.342.247.683-2.643 1.48-2.643 1.48s5.052 2.587 4.723 3.332c-.329.745-4.834-1.53-4.834-1.53s4.892 2.829 4.349 3.703c-.543.876-5.118-2.26-5.118-2.26s4.113 2.825 3.859 3.515c-.255.69-4.467-2.537-4.467-2.537s2.26 2.385 1.635 2.96c-.625.576-3.601-3.12-4.501-4.844 0 0-15.665-7.64-25.785-13.028-10.12-5.388-15.825-13.956-12.65-17.88 2.14-2.678 5.311-2.465 8.478.429z" fill="#E8AAAD"/><path d="M95.108 49.969l6.678-8.239c-3.102-2.912-5.297-5.203-7.383-7.12-3.167-2.893-6.31-3.107-8.478-.429-2.82 3.44 1.205 10.44 9.183 15.788z" fill="#fff"/><path d="M89.002 18.786l.001 6.58-4.185.323.902-7.336 3.282.433zM80.023 78.508s11.034 42.608 13.217 82.329h3.615s7.915-54.18 4.262-88.11l-21.094 5.781z" fill="#F9B7B8"/><path d="M102.691 165h-9.442v-4.145h9.442c.546.005 1.07.221 1.458.601a2.062 2.062 0 0 1 .474 2.235 2.088 2.088 0 0 1-1.127 1.142 2.116 2.116 0 0 1-.805.167z" fill="#1D124C"/><path d="M80.023 78.508s10.388 40.11 13.001 78.758h4.318c1.668-12.571 6.885-55.798 3.747-84.54l-21.066 5.782z" fill="#E9C295"/><path style="mix-blend-mode:overlay" opacity=".5" d="M88.247 118.193a72.226 72.226 0 0 0 13.479-9.371c.553-12.479.553-25.31-.609-36.077l-21.094 5.763s4.43 17.114 8.224 39.685z" fill="url(#apaint0_linear)"/><path d="M101.117 72.727c-1.527-15.458-1.274-45.78-12.177-47.409-14.144-2.109-11.877 47.409-11.877 47.409h24.054z" fill="#fff"/><path d="M77.063 72.727c.384 13.764-8.486 63.485-17.46 81.959l3.298 2.58s34.02-50.23 38.216-84.54H77.063z" fill="#F9B7B8"/><path d="M64.409 163.732L57 157.942l2.604-3.256 7.409 5.79a2.081 2.081 0 0 1 .785 1.386 2.046 2.046 0 0 1-.439 1.528 2.092 2.092 0 0 1-1.403.776 2.107 2.107 0 0 1-1.547-.434z" fill="#1D124C"/><path d="M64.82 154.353c7.241-11.184 32.7-52.256 36.297-81.626H77.063c.365 13.08-7.634 58.638-16.13 78.98a88.08 88.08 0 0 0 3.888 2.646z" fill="#E9C295"/><path d="M133.967 47.216h-4.833v.999c-9.423 2.849-18.199 11.507-18.199 21.748 0 10.24 8.776 18.88 18.199 21.757v.999h4.824c6.11.001 11.97-2.395 16.291-6.66A22.61 22.61 0 0 0 157 69.971a22.612 22.612 0 0 0-6.744-16.09 23.187 23.187 0 0 0-16.289-6.666z" fill="#CEA74C"/><path d="M129.134 92.71c12.721 0 23.033-10.185 23.033-22.747 0-12.563-10.312-22.747-23.033-22.747-12.72 0-23.032 10.184-23.032 22.747 0 12.562 10.312 22.747 23.032 22.747z" fill="#FFCE5D"/><path d="M129.134 90.804a21.293 21.293 0 0 1-11.724-3.513 20.9 20.9 0 0 1-7.772-9.353 20.59 20.59 0 0 1-1.201-12.042 20.762 20.762 0 0 1 5.775-10.67 21.19 21.19 0 0 1 10.805-5.704 21.349 21.349 0 0 1 12.193 1.186 21.05 21.05 0 0 1 9.471 7.676 20.656 20.656 0 0 1 3.556 11.578 20.737 20.737 0 0 1-6.189 14.73 21.266 21.266 0 0 1-14.914 6.112z" fill="#E5B954"/><path d="M129.135 86.068c-3.219 0-6.365-.943-9.042-2.708a16.126 16.126 0 0 1-5.996-7.21 15.89 15.89 0 0 1-.931-9.286 16.018 16.018 0 0 1 4.448-8.232 16.344 16.344 0 0 1 8.328-4.407 16.468 16.468 0 0 1 9.403.904 16.239 16.239 0 0 1 7.312 5.91 15.941 15.941 0 0 1 2.757 8.924 15.996 15.996 0 0 1-4.764 11.38 16.4 16.4 0 0 1-11.515 4.725z" fill="#FFCE5D"/><mask id="aa" maskUnits="userSpaceOnUse" x="110" y="47" width="47" height="46"><path d="M133.967 47.216h-4.833v.999c-9.423 2.849-18.199 11.507-18.199 21.748 0 10.24 8.776 18.88 18.199 21.757v.999h4.824c6.11.001 11.97-2.395 16.291-6.66A22.61 22.61 0 0 0 157 69.971a22.612 22.612 0 0 0-6.744-16.09 23.187 23.187 0 0 0-16.289-6.666z" fill="#CEA74C"/></mask><g mask="url(#aa)" stroke="#FFCE5D" stroke-width=".52" stroke-miterlimit="10" stroke-linecap="round"><path d="M152.176 69.963H157M151.829 66.031h4.824M150.762 62.1h4.824M149.395 59.121h4.823M147.437 56.143h4.823M145.657 54.116h4.833M143.381 52.09h4.833M140.309 50.065h4.823M135.288 48.04h4.833M151.829 73.894h4.824M150.762 77.825h4.824M149.395 80.804h4.823M147.437 83.783h4.823M145.657 85.809h4.833M143.381 87.835h4.833"/></g><path d="M147.679 67.98h-.481c-.365 0-.715-.148-.973-.41a1.409 1.409 0 0 1-.403-.988v-.926a.918.918 0 0 0-.256-.637.89.89 0 0 0-.623-.272.89.89 0 0 0-.633.266.916.916 0 0 0-.262.643v.91c0 .37-.145.725-.403.988a1.37 1.37 0 0 1-.974.409h-.481a.89.89 0 0 0-.633.266.916.916 0 0 0 0 1.286.89.89 0 0 0 .633.266h.481c.365 0 .715.147.974.41.258.262.403.617.403.988v.909c0 .24.094.472.262.643a.89.89 0 0 0 1.266 0 .917.917 0 0 0 .263-.643v-.859a1.408 1.408 0 0 1 .385-1.004 1.372 1.372 0 0 1 .974-.427h.481a.886.886 0 0 0 .633-.266.917.917 0 0 0 0-1.286.886.886 0 0 0-.633-.266zM116.957 79.046h-.271a.784.784 0 0 1-.55-.225.762.762 0 0 1-.228-.543v-.536a.496.496 0 0 0-.148-.354.509.509 0 0 0-.863.354v.5a.762.762 0 0 1-.228.542.784.784 0 0 1-.55.225h-.271a.509.509 0 0 0-.358.146.496.496 0 0 0 0 .707.509.509 0 0 0 .358.146h.271c.206 0 .404.081.55.225.146.144.228.34.228.543v.5c0 .132.053.259.148.353a.508.508 0 0 0 .863-.354v-.5c0-.203.082-.398.228-.542a.784.784 0 0 1 .55-.225h.271a.51.51 0 0 0 .358-.146.496.496 0 0 0 .148-.353.508.508 0 0 0-.506-.462z" fill="#fff"/><path d="M95.63 35.71c4.822 5.63 9.944 13.924 29.26 30.906 0 0 3.955-.54 4.109.172.154.71-2.79 1.133-2.79 1.133s4.696 3.201 4.274 3.9c-.421.698-4.627-2.127-4.627-2.127s4.5 3.443 3.865 4.214c-.635.772-4.781-2.874-4.781-2.874s3.693 3.326 3.392 3.969c-.3.643-4.167-3.086-4.167-3.086s1.943 2.644 1.263 3.135c-.68.492-3.2-3.529-3.867-5.372 0 0-14.597-9.54-23.977-16.157-9.38-6.617-13.96-15.757-10.313-19.296 2.48-2.387 5.566-1.782 8.36 1.484z" fill="#F9B7B8"/><path d="M94.434 51.04l7.638-7.337c-2.719-3.275-4.606-5.825-6.45-7.993-2.765-3.274-5.88-3.87-8.341-1.493-3.218 3.084-.086 10.535 7.153 16.823z" fill="#fff"/><path d="M85.063 19.685c3.412 3.313 8.199 1.555 9.994-1.455s.864-8.64-.716-10.786a7.253 7.253 0 0 0-5.877-2.291 7.141 7.141 0 0 0-3.07.97 7.049 7.049 0 0 0-2.318 2.217c-3.63 5.257.782 10.184 1.987 11.345z" fill="#F9B7B8"/><path d="M85.341 15.05a6.611 6.611 0 0 1-1.997-3.14C86.08 11.142 98.1 8.691 96.49 2.681 95.42-2.326 79.64.262 76.023 5.665c-1.582 2.648-2.248 5.683-1.907 8.692.48 4.804.48 8.378-1.358 11.297-1.838 2.92-4.684 6.402-4.274 12.009.409 5.607-4.854 9.754.14 17.006 4.993 7.25 18.458 5.902 17.939-5.016-.44-8.655 3.165-8.674 2.906-14.253-.24-4.998-3.096-7.335-3.745-10.67-.65-3.334 2.183-7.833-.383-9.68z" fill="#1D124C"/><path d="M85.768 12.403s-1.861-1.644-2.942.017c-1.081 1.66 1.06 4.415 2.77 3.798 1.286-.455.556-2.624.172-3.815z" fill="#F9B7B8"/><path d="M93.278 14.482c.25.167.586.102.751-.144a.538.538 0 0 0-.152-.748.542.542 0 0 0-.75.145.538.538 0 0 0 .151.747z" fill="#1D124C"/><defs><linearGradient id="apaint0_linear" x1="90.392" y1="74.595" x2="97.697" y2="116.549" gradientUnits="userSpaceOnUse"><stop/><stop offset=".9" stop-opacity="0"/></linearGradient><clipPath id="aclip0"><path fill="#fff" transform="translate(115 79)" d="M0 0h74v76H0z"/></clipPath></defs></svg><svg fill="none" viewBox="0 0 162 166" id="10" xmlns="http://www.w3.org/2000/svg"><path d="M17.95 4.778C36.012-1.542 42.505.557 67.392 1.721c24.887 1.165 48.958-3.946 66.292 5.572 17.37 9.52 28.041 33.667 27.149 57.003-.856 23.373-13.311 45.971-30.894 57.743-17.546 11.809-3.156 45.198-60.44 42.461-31.217-6.763-21.5-37.5-33.5-64C26.264 79 12.002 65.625 4.5 50-3.002 34.375 3.38 11.633 17.95 4.778z" fill="#D8FFC5"/><path d="M29 103.873L114.846 154 133 142.621 47.154 92.494 29 103.873z" fill="url(#bpaint0_linear)"/><path d="M133 61.127v71.654l-18.154 11.071V72.505L133 61.127z" fill="#E9746D"/><path d="M29 22.378l85.846 50.127L133 61.127 47.154 11 29 22.378z" fill="#FFAAA5"/><path d="M114.846 143.851L29 93.724V22.378l85.846 50.127v71.346z" fill="#FB8982"/><path d="M29 22.378l42.77 60.89 43.076-10.763L29 22.378z" fill="#FF9C96"/><path d="M98.539 36.217v14.147c0 .922-.615 1.845-1.539 2.152-.307 0-.615.308-.923.308-1.23 0-2.461-.923-2.461-2.153V36.525c0-1.23-.616-2.46-1.846-3.383L70.23 20.533c-.307-.307-.923-.307-1.23 0 0 0-.308 0-.308.308-.308.307-.308.615-.308.923v10.763c0 .923-.615 1.845-1.538 2.153-.308 0-.616.307-.923.307-1.231 0-2.462-.922-2.462-2.152V22.07c0-2.46 1.23-4.305 3.077-5.535.615-.308.923-.615 1.538-.615 1.539-.615 3.385-.308 4.616.615L94.23 29.144c2.77 1.538 4.308 3.998 4.308 7.073z" fill="#323657"/><path d="M76.692 80.501v7.38l-1.538.923v-7.38l1.538-.923z" fill="#EF770A"/><path d="M66.54 76.504l8.614 4.92 1.539-.923-8.615-5.228-1.539 1.23z" fill="#FF9906"/><path d="M75.154 88.804l-8.615-5.228v-7.073l8.615 4.92v7.381z" fill="#FCC106"/><path d="M98.539 36.217v14.147c0 .922-.616 1.845-1.539 2.152V38.37c0-5.228-2.154-7.073-2.154-7.073L68.077 15.613c1.539-.615 3.385-.308 4.615.615l21.539 12.609c2.77 1.845 4.308 4.305 4.308 7.38zM68.385 20.84c-.308.308-.308.616-.308.923v10.764c0 .922-.615 1.845-1.538 2.152V23.916c0-1.845 1.538-2.768 1.846-3.075z" fill="#6E7294"/><defs><linearGradient id="bpaint0_linear" x1="111.509" y1="105.55" x2="50.413" y2="140.842" gradientUnits="userSpaceOnUse"><stop stop-color="#B4BBE1" stop-opacity=".1"/><stop offset="1" stop-color="#B4BBE1" stop-opacity=".3"/></linearGradient></defs></svg><svg fill="none" viewBox="0 0 206 307" id="11" xmlns="http://www.w3.org/2000/svg"><path d="M43.015 197.849c-11.786-13.555-2.82-46.014-1.664-77.366 1.155-31.353-5.593-61.598 6.193-83.545C59.33 14.945 89.65 1.206 119.09 2.036c29.488.783 58.143 16.183 73.21 38.175 15.114 21.947 16.685 50.533 9.752 72.203-6.932 21.716-22.323 36.47-37.39 49.979-15.114 13.555-29.904 25.82-53.614 34.672-23.71 8.852-56.248 14.293-68.033.784z" fill="#FFF4B8"/><path d="M71.206 141.029l.224 6.213 3.925 143.746h15.477l13.794-123.18 17.495 41.56-12 81.62h5.72l9.533.108s28.486-81.514 27.925-86.763c-.561-5.248-21.981-62.875-21.981-62.875l-60.112-.429z" fill="#E78F50"/><path d="M69.747 52.018l29.272-3.856.672-.107 13.907.107h.112l16.71 3.963v89.654H69.747V52.018z" fill="#FF7E7E"/><path d="M19.729 69.37s-2.131-12.639-3.701-12.746c-1.57-.107-1.346 5.57-1.346 5.57s-9.309-9.426-13.01-7.07c-3.7 2.357 8.86 17.246 8.86 17.246l9.197-3z" fill="#FFDAC6"/><path d="M113.598 48.162l-1.57 98.973h21.869l1.57-27.1 29.047-.428c3.028.107 5.271-2.678 4.374-5.463l-14.468-47.88c-1.682-5.57-6.392-9.961-12.336-11.354l-28.374-6.748h-.112zM9.635 72.798l28.15 55.164c1.794 3.106 6.392 3.213 8.299.107l21.981-34.812 1.122 53.878h23.327l6.505-98.973h-.113L69.3 52.018c-5.608.857-10.43 4.178-12.897 9.105L41.374 90.686c-.337.75-1.458.857-1.907.214L20.402 69.05 9.635 72.797z" fill="#B0D693"/><path d="M135.579 120.356h-28.486l-.336-13.925 28.486-.428.336 14.353z" fill="#A0D07A"/><path d="M106.869 116.5c-8.075-.321-16.598-2.999-20.636-7.498-.897-.964-.112-2.57 1.234-2.57h19.514l-.112 10.068z" fill="#FFDAC6"/><path opacity=".41" d="M117.972 120.892v-.428l17.383-.108-1.458 26.886-5.271-22.28-10.654-4.07z" fill="#13448C"/><path opacity=".32" d="M71.43 147.242l3.925 143.747h1.01l10.541-143.747H71.43z" fill="#0E367C"/><path opacity=".41" d="M106.869 106.325s38.692 2.678 38.355 1.928l-6.729-22.066-.112.322-.673 15.424c0 2.143-28.822 3.856-30.841 4.392zM37.785 127.961L9.635 72.798h.113c3.028 0 29.159 52.271 31.85 53.557 3.252 1.392 26.467-33.098 26.467-33.098l-21.98 34.811c-1.907 3-6.505 3-8.3-.107z" fill="#13448C"/><path d="M123.691 290.988c3.365 6.534 19.29 9.855 19.29 9.855s1.122 1.928-.673 4.391c-1.794 2.464-18.617.964-20.748.536-2.13-.428-3.588-2.035-3.588-2.035s-1.458 1.499-2.243 1.821c-.785.321-5.047-.429-5.047-.429-1.009-2.57 0-12.532.336-14.139h12.673zM76.813 290.988c-3.365 6.534-19.29 9.855-19.29 9.855s-1.121 1.928.673 4.391c1.794 2.464 18.617.964 20.748.536 2.13-.428 3.588-2.035 3.588-2.035s1.458 1.499 2.243 1.821c.785.321 5.047-.429 5.047-.429 1.01-2.57 0-12.532-.336-14.139H76.813z" fill="#13448C"/><path opacity=".32" d="M122.233 209.368l-12 81.62h5.72c3.589-17.566 15.925-76.372 15.476-80.014-.56-4.391-26.018-41.881-26.803-43.166l17.607 41.56z" fill="#0E367C"/><path fill-rule="evenodd" clip-rule="evenodd" d="M99.019 48.269c2.131 1.607 7.29 5.034 7.29 5.034s5.158-3.427 7.401-5.034V36.486H99.131V48.27h-.112z" fill="#FFDAC6"/><path fill-rule="evenodd" clip-rule="evenodd" d="M99.019 36.486v4.928c4.261 3.32 10.317 3.32 14.579.107v-5.035h-14.58z" fill="#FFB19E"/><path fill-rule="evenodd" clip-rule="evenodd" d="M122.57 28.774H89.71l-.56-8.783C81.972 17.1 87.355.604 87.355.604 86.907 4.567 98.234 4.78 102.72 4.03c4.486-.643 7.514 1.071 7.514 1.071s14.243-2.892 13.458 16.174a34.472 34.472 0 0 1-1.122 7.498z" fill="#13448C"/><path fill-rule="evenodd" clip-rule="evenodd" d="M93.187 20.098v7.82c0 3.32 1.458 6.534 4.038 8.89.448.322.785.75 1.233 1.071 4.374 3.964 11.327 3.964 15.813 0l1.234-1.07a11.736 11.736 0 0 0 4.037-8.891v-5.999s-3.813-2.463-9.084-8.354c0 0-5.719 5.248-17.27 6.533z" fill="#FFDAC6"/><path fill-rule="evenodd" clip-rule="evenodd" d="M99.02 38.415v3c4.261 3.32 10.317 3.32 14.579.106v-2.999c-4.15 3.214-10.318 3.214-14.58-.107z" fill="#F48F7A"/><path fill-rule="evenodd" clip-rule="evenodd" d="M116.29 29.739c-2.579-3.857 1.795-8.034 5.832-5.57.336.214.561.428.785.75 2.579 3.856-1.794 8.033-5.832 5.57a2.566 2.566 0 0 1-.785-.75zM90.047 29.739c-2.467-3.856 1.57-7.82 5.496-5.784.56.321 1.009.75 1.233 1.178 2.131 3.856-2.019 7.712-6.056 5.248-.224-.107-.448-.32-.673-.642z" fill="#FFB19E"/><path d="M90.159 21.383h1.233v-4.177c0-6.855 6.505-12.425 14.58-12.425h.561c8.074 0 14.579 5.57 14.579 12.425v4.177h1.234v-4.177c0-7.498-7.066-13.603-15.813-13.603h-.561c-8.748 0-15.813 6.105-15.813 13.603v4.177z" fill="#A31919"/><path d="M91.168 19.241c1.907 0 3.477 1.5 3.477 3.32v6c0 1.82-1.57 3.32-3.477 3.32-1.906 0-3.476-1.5-3.476-3.32v-6c0-1.82 1.57-3.32 3.476-3.32z" fill="#F95858"/><path d="M91.168 19.241c.337 0 .673.107 1.01.214-1.458.429-2.468 1.714-2.468 3.214v5.998c0 1.5 1.01 2.785 2.468 3.214-.337.107-.673.214-1.01.214-1.906 0-3.476-1.5-3.476-3.32v-5.999c0-2.035 1.57-3.535 3.476-3.535z" fill="#CC3241"/><path d="M121.449 19.241c1.906 0 3.476 1.5 3.476 3.32v6c0 1.82-1.57 3.32-3.476 3.32-1.907 0-3.477-1.5-3.477-3.32v-6c-.112-1.82 1.57-3.32 3.477-3.32z" fill="#F95858"/><path d="M121.449 19.241c.336 0 .673.107 1.009.214-1.458.429-2.467 1.714-2.467 3.214v5.998c0 1.5 1.009 2.785 2.467 3.214-.336.107-.673.214-1.009.214-1.907 0-3.477-1.5-3.477-3.32v-5.999c-.112-2.035 1.57-3.535 3.477-3.535z" fill="#CC3241"/><path d="M100.701 35.737v-.643c-4.037-.214-7.514-5.034-7.514-5.034l-.56.428c.224.107 3.7 4.927 8.074 5.249z" fill="#FF4751"/><path d="M99.916 35.415c0-.643 1.009-1.071 2.131-.964 1.121.107 2.018.643 2.018 1.285 0 .643-1.009 1.071-2.13.964-1.122-.107-2.02-.642-2.02-1.285z" fill="#FF4751"/><path d="M83.205 65.515h51.028c2.804 0 4.935 2.249 4.823 5.034l-1.346 31.384c-.112 2.571-2.355 4.606-4.935 4.606H84.663c-2.58 0-4.822-2.035-4.934-4.606l-1.346-31.384c-.112-2.785 2.13-5.034 4.822-5.034z" fill="#13448C"/><path d="M83.205 65.515h51.028c1.346 0 2.692.535 3.477 1.5-.449-.108-.897-.215-1.346-.215H85.336c-2.804 0-4.934 2.25-4.822 5.034l1.346 31.385c0 1.178.56 2.249 1.345 2.999-2.018-.536-3.476-2.25-3.588-4.392L78.27 70.442c0-2.678 2.243-4.927 4.934-4.927z" fill="#1D54B5"/><path d="M109.112 92.4c-3.221 0-5.832-2.493-5.832-5.57 0-3.076 2.611-5.57 5.832-5.57 3.221 0 5.832 2.494 5.832 5.57 0 3.077-2.611 5.57-5.832 5.57z" fill="#4286E8"/></svg><svg fill="none" viewBox="0 0 269 240" id="12" xmlns="http://www.w3.org/2000/svg"><path d="M51.154 170.166c-15.232-16.807-22.62-44.479-16.555-70.253 6.065-25.774 25.61-49.734 51.13-62.956 25.518-13.222 57.094-15.677 77.991-3.098 20.925 12.636 31.199 40.362 43.67 66.597 12.471 26.236 27.181 50.995 23.813 74.094-3.354 23.058-24.828 44.441-47.6 48.277-22.8 3.779-46.897-9.99-70.491-19.895-23.593-9.904-46.726-15.959-61.958-32.766z" fill="#D8FFC5"/><path d="M136 79.325l-26.082 20.08-41.948 32.282L23.077 97.12 0 79.325h136z" fill="#CAAA6C"/><path d="M136 79.085V149H0V79.085l67.97 52.842L136 79.085z" fill="#FFCE6F"/><path d="M109.918 56v43.404L67.97 131.686 23.077 97.12V56h86.841z" fill="#FDFEF7"/><path d="M136 139.682H0v3.246h136v-3.246z" fill="#BCAD76"/><path d="M66.467 63.395H28.306V66.1h38.161v-2.705z" fill="#FF7888"/><path d="M103.127 69.106H28.306v2.705h74.821v-2.706zM103.127 74.516H28.306v2.705h74.821v-2.705zM103.127 79.927H28.306v2.705h74.821v-2.705zM103.127 85.337H28.306v2.705h74.821v-2.705zM103.127 90.747H28.306v2.705h74.821v-2.705z" fill="#EFEFEF"/></svg><svg fill="none" viewBox="0 0 220 170" id="2" xmlns="http://www.w3.org/2000/svg"><path d="M101.572 91.3c6.898 15.624 5.811 33.5 13.51 48.815 4.065 7.868 10.255 14.694 18.006 19.853 7.75 5.159 16.813 8.486 26.361 9.679 9.57 1.01 19.27-.155 28.212-3.388 8.942-3.234 16.841-8.433 22.976-15.123 6.679-7.473 11.049-17.334 8.74-26.706-3.044-12.309-16.106-20.151-24.073-30.51-6.141-8.037-9.234-17.645-8.816-27.393.334-7.267 2.624-14.517 1.555-21.724-1.784-12.025-13.987-22.11-27.459-22.676-13.472-.567-25.761 7.318-39.224 9.285-14.016 2.053-28.146-2.482-41.027-7.8-12.88-5.316-25.713-11.561-39.786-13.245-14.073-1.683-30.17 2.431-37.21 13.52C.79 28.05-.34 32.793.087 37.528c.428 4.735 2.394 9.252 5.653 12.989 14.025 15.53 33.346 3.144 51.007 6.872C76.403 61.459 94.044 74.24 101.572 91.3z" fill="#FFF4B8"/><path d="M68.981 135.28v6.059c0 1.67 8.7 3.025 19.438 3.025s19.437-1.355 19.437-3.025v-6.059H68.981z" fill="#FFCE5D"/><path opacity=".1" d="M68.981 135.28v6.059c0 1.67 8.7 3.025 19.438 3.025s19.437-1.355 19.437-3.025v-6.059H68.981z" fill="#000"/><g opacity=".1" fill="#000"><path opacity=".1" d="M97.957 143.975v-8.695h-2.179v8.857c.751-.054 1.477-.108 2.18-.162zM101.564 143.561v-8.281h-2.146v8.557a70.533 70.533 0 0 0 2.146-.276zM91.307 144.331v-9.051h-2.17v9.076l2.17-.025zM77.451 143.837v-8.557h-2.178v8.281c.685.097 1.411.195 2.178.276zM87.7 144.356v-9.076h-2.154v9.051l2.154.025zM81.058 144.137v-8.857h-2.18v8.695c.703.054 1.429.108 2.18.162z"/></g><g opacity=".2" fill="#fff"><path opacity=".2" d="M95.754 135.28l-9.131 9.067h2.35l9.14-9.083-2.359.016zM84.926 144.315l9.09-9.035H86.06l-8.609 8.557c2.203.219 4.741.397 7.475.478z"/></g><path d="M88.419 138.305c10.735 0 19.437-1.354 19.437-3.025 0-1.671-8.702-3.025-19.437-3.025-10.735 0-19.438 1.354-19.438 3.025 0 1.671 8.703 3.025 19.438 3.025z" fill="#FFCE5D"/><path opacity=".1" d="M88.418 137.324c7.26 0 13.146-.915 13.146-2.044s-5.885-2.044-13.146-2.044c-7.26 0-13.146.915-13.146 2.044s5.886 2.044 13.146 2.044z" fill="#000"/><path opacity=".1" d="M75.656 135.767c1.412-.892 6.585-1.557 12.762-1.557 6.177 0 11.351.665 12.763 1.557.245-.154.383-.325.383-.487 0-1.127-5.883-2.044-13.146-2.044-7.262 0-13.146.917-13.146 2.044 0 .17.14.333.384.487z" fill="#000"/><path d="M61.621 128.249v6.075c0 1.67 8.699 3.025 19.437 3.025 10.739 0 19.438-1.403 19.438-3.025v-6.059l-38.875-.016z" fill="#FFCE5D"/><path opacity=".1" d="M61.621 128.249v6.075c0 1.67 8.699 3.025 19.437 3.025 10.739 0 19.438-1.403 19.438-3.025v-6.059l-38.875-.016z" fill="#000"/><g opacity=".1" fill="#000"><path opacity=".1" d="M90.597 136.935v-8.686h-2.179v8.857c.75-.049 1.477-.106 2.179-.171zM94.204 136.53v-8.281h-2.179v8.556c.767-.048 1.494-.178 2.18-.275zM83.914 137.292v-9.043h-2.138v9.075l2.138-.032zM70.09 136.797v-8.548h-2.178v8.281c.686.097 1.412.227 2.179.267zM80.34 137.324v-9.075h-2.138v9.051l2.138.024zM73.697 137.106v-8.857H71.52v8.694c.701.06 1.428.114 2.178.163z"/></g><g opacity=".2" fill="#fff"><path opacity=".2" d="M88.386 128.249l-9.123 9.067h2.35l9.14-9.084-2.367.017zM77.565 137.277l9.09-9.035h-7.963l-8.601 8.557c2.203.235 4.74.405 7.474.478z"/></g><path d="M81.058 131.274c10.735 0 19.438-1.354 19.438-3.025 0-1.671-8.703-3.025-19.438-3.025s-19.437 1.354-19.437 3.025c0 1.671 8.702 3.025 19.437 3.025z" fill="#FFCE5D"/><path opacity=".1" d="M81.058 130.293c7.26 0 13.146-.915 13.146-2.044s-5.886-2.044-13.146-2.044c-7.26 0-13.146.915-13.146 2.044s5.886 2.044 13.146 2.044z" fill="#000"/><path opacity=".1" d="M68.296 128.735c1.411-.892 6.585-1.557 12.762-1.557 6.177 0 11.35.665 12.762 1.557.245-.154.384-.324.384-.486 0-1.127-5.883-2.044-13.146-2.044-7.263 0-13.146.917-13.146 2.044 0 .162.13.332.384.486z" fill="#000"/><path d="M68.981 121.209v6.058c0 1.671 8.7 3.026 19.438 3.026s19.437-1.355 19.437-3.026v-6.058H68.981z" fill="#FFCE5D"/><path opacity=".1" d="M68.981 121.209v6.058c0 1.671 8.7 3.026 19.438 3.026s19.437-1.355 19.437-3.026v-6.058H68.981z" fill="#000"/><g opacity=".1" fill="#000"><path opacity=".1" d="M97.957 129.903v-8.694h-2.179v8.856c.751-.048 1.477-.102 2.18-.162zM101.564 129.457v-8.248h-2.146v8.556c.734-.081 1.461-.17 2.146-.308zM91.307 130.268v-9.059h-2.17v9.059h2.17zM77.451 129.765v-8.556h-2.178v8.248a23.78 23.78 0 0 0 2.178.308zM87.7 130.268v-9.059h-2.154v9.059H87.7zM81.058 130.065v-8.856h-2.18v8.694c.703.06 1.429.114 2.18.162z"/></g><g opacity=".2" fill="#fff"><path opacity=".2" d="M95.754 121.209l-9.131 9.059h2.35l9.14-9.083-2.359.024zM84.926 130.269l9.09-9.035H86.06l-8.609 8.532c2.203.236 4.741.398 7.475.503z"/></g><path d="M88.419 124.234c10.735 0 19.437-1.354 19.437-3.025 0-1.671-8.702-3.025-19.437-3.025-10.735 0-19.438 1.354-19.438 3.025 0 1.671 8.703 3.025 19.438 3.025z" fill="#FFCE5D"/><path opacity=".1" d="M88.418 123.253c7.26 0 13.146-.915 13.146-2.044s-5.885-2.044-13.146-2.044c-7.26 0-13.146.915-13.146 2.044s5.886 2.044 13.146 2.044z" fill="#000"/><path opacity=".1" d="M75.656 121.704c1.412-.892 6.585-1.557 12.762-1.557 6.177 0 11.351.665 12.763 1.557.245-.154.383-.324.383-.486 0-1.128-5.883-2.044-13.146-2.044-7.262 0-13.146.916-13.146 2.044 0 .129.14.324.384.486z" fill="#000"/><path d="M72.588 114.178v6.058c0 1.671 8.699 3.025 19.437 3.025 10.739 0 19.437-1.354 19.437-3.025v-6.058H72.588z" fill="#FFCE5D"/><path opacity=".1" d="M72.588 114.178v6.058c0 1.671 8.699 3.025 19.437 3.025 10.739 0 19.437-1.354 19.437-3.025v-6.058H72.588z" fill="#000"/><g opacity=".1" fill="#000"><path opacity=".1" d="M101.564 122.864v-8.686h-2.146v8.856a53.18 53.18 0 0 0 2.146-.17zM105.171 122.458v-8.28h-2.179v8.548c.767-.081 1.493-.17 2.179-.268zM94.914 123.221v-9.043h-2.17v9.075l2.17-.032zM81.058 122.726v-8.548h-2.18v8.28c.686.098 1.413.187 2.18.268zM91.306 123.253v-9.075h-2.17v9.051l2.17.024zM84.664 123.034v-8.856h-2.179v8.694c.702.065 1.428.119 2.18.162z"/></g><g opacity=".2" fill="#fff"><path opacity=".2" d="M99.36 114.177l-9.13 9.068h2.35l9.139-9.084-2.358.016zM88.532 123.205l9.09-9.027h-7.996l-8.568 8.548c2.203.243 4.74.406 7.474.479z"/></g><path d="M92.025 117.203c10.735 0 19.437-1.355 19.437-3.025 0-1.671-8.702-3.026-19.437-3.026-10.735 0-19.437 1.355-19.437 3.026 0 1.67 8.702 3.025 19.437 3.025z" fill="#FFCE5D"/><path opacity=".1" d="M92.025 116.221c7.26 0 13.146-.915 13.146-2.043 0-1.129-5.886-2.044-13.146-2.044-7.26 0-13.146.915-13.146 2.044 0 1.128 5.885 2.043 13.146 2.043z" fill="#000"/><path opacity=".1" d="M79.262 114.664c1.412-.892 6.586-1.557 12.763-1.557s11.35.665 12.762 1.557c.245-.154.384-.324.384-.486 0-1.128-5.884-2.044-13.146-2.044-7.263 0-13.146.916-13.146 2.044 0 .17.139.332.383.486z" fill="#000"/><path d="M68.981 107.138v6.058c0 1.671 8.7 3.025 19.438 3.025s19.437-1.354 19.437-3.025v-6.058H68.981z" fill="#FFCE5D"/><path opacity=".1" d="M68.981 107.138v6.058c0 1.671 8.7 3.025 19.438 3.025s19.437-1.354 19.437-3.025v-6.058H68.981z" fill="#000"/><g opacity=".1" fill="#000"><path opacity=".1" d="M97.957 115.832v-8.694h-2.179v8.856c.751-.043 1.477-.097 2.18-.162zM101.564 115.426v-8.288h-2.146v8.532a33.605 33.605 0 0 0 2.146-.244zM91.307 116.189v-9.051h-2.17v9.075l2.17-.024zM77.451 115.67v-8.532h-2.178v8.288a32.14 32.14 0 0 0 2.178.244zM87.7 116.221v-9.083h-2.154v9.051l2.154.032zM81.058 115.994v-8.856h-2.18v8.694c.703.059 1.429.114 2.18.162z"/></g><g opacity=".2" fill="#fff"><path opacity=".2" d="M95.754 107.137l-9.131 9.075h2.35l9.14-9.083-2.359.008zM84.926 116.174l9.09-9.035H86.06l-8.609 8.532c2.203.259 4.741.421 7.475.503z"/></g><path d="M88.419 110.163c10.735 0 19.437-1.355 19.437-3.026 0-1.67-8.702-3.025-19.437-3.025-10.735 0-19.438 1.355-19.438 3.025 0 1.671 8.703 3.026 19.438 3.026z" fill="#FFCE5D"/><path opacity=".1" d="M88.418 109.181c7.26 0 13.146-.915 13.146-2.043 0-1.129-5.885-2.044-13.146-2.044-7.26 0-13.146.915-13.146 2.044 0 1.128 5.886 2.043 13.146 2.043z" fill="#000"/><path opacity=".1" d="M75.656 107.632c1.412-.892 6.585-1.557 12.762-1.557 6.177 0 11.351.665 12.763 1.557.245-.154.383-.324.383-.487 0-1.127-5.883-2.043-13.146-2.043-7.262 0-13.146.916-13.146 2.043 0 .163.14.325.384.487z" fill="#000"/><path d="M101.825 135.28v6.059c0 1.67 8.699 3.025 19.437 3.025 10.739 0 19.438-1.355 19.438-3.025v-6.059h-38.875z" fill="#FFCE5D"/><path opacity=".1" d="M101.825 135.28v6.059c0 1.67 8.699 3.025 19.437 3.025 10.739 0 19.438-1.355 19.438-3.025v-6.059h-38.875z" fill="#000"/><g opacity=".1" fill="#000"><path opacity=".1" d="M130.793 143.975v-8.695h-2.179v8.857c.756-.054 1.483-.108 2.179-.162zM134.4 143.561v-8.281h-2.178v8.557c.775-.081 1.468-.179 2.178-.276zM124.151 144.331v-9.051h-2.178v9.076l2.178-.025zM110.287 143.837v-8.557h-2.179v8.281c.686.097 1.412.195 2.179.276zM120.544 144.356v-9.076h-2.179v9.051l2.179.025zM113.894 144.137v-8.857h-2.179v8.695c.702.054 1.428.108 2.179.162z"/></g><g opacity=".2" fill="#fff"><path opacity=".2" d="M128.59 135.28l-9.123 9.067h2.35l9.139-9.083-2.366.016zM117.762 144.315l9.09-9.035h-7.956l-8.609 8.557c2.187.219 4.741.397 7.475.478z"/></g><path d="M121.262 138.305c10.735 0 19.438-1.354 19.438-3.025 0-1.671-8.703-3.025-19.438-3.025-10.734 0-19.437 1.354-19.437 3.025 0 1.671 8.703 3.025 19.437 3.025z" fill="#FFCE5D"/><path opacity=".1" d="M121.263 137.324c7.26 0 13.146-.915 13.146-2.044s-5.886-2.044-13.146-2.044c-7.26 0-13.146.915-13.146 2.044s5.886 2.044 13.146 2.044z" fill="#000"/><path opacity=".1" d="M108.492 135.767c1.412-.892 6.585-1.557 12.762-1.557 6.177 0 11.351.665 12.763 1.557.244-.154.383-.325.383-.487 0-1.127-5.883-2.044-13.146-2.044-7.262 0-13.146.917-13.146 2.044.009.17.139.333.384.487z" fill="#000"/><path d="M94.457 128.249v6.075c0 1.67 8.699 3.025 19.437 3.025 10.739 0 19.438-1.403 19.438-3.025v-6.059l-38.875-.016z" fill="#FFCE5D"/><path opacity=".1" d="M94.457 128.249v6.075c0 1.67 8.699 3.025 19.437 3.025 10.739 0 19.438-1.403 19.438-3.025v-6.059l-38.875-.016z" fill="#000"/><g opacity=".1" fill="#000"><path opacity=".1" d="M123.433 136.935v-8.686h-2.179v8.857a80.47 80.47 0 0 0 2.179-.171zM127.04 136.53v-8.281h-2.179v8.556c.776-.048 1.485-.178 2.179-.275zM116.791 137.292v-9.043h-2.179v9.075l2.179-.032zM102.927 136.797v-8.548h-2.179v8.281c.685.097 1.412.227 2.179.267zM113.184 137.324v-9.075h-2.179v9.051l2.179.024zM106.533 137.106v-8.857h-2.179v8.694c.702.06 1.429.114 2.179.163z"/></g><g opacity=".2" fill="#fff"><path opacity=".2" d="M121.23 128.249l-9.123 9.067h2.351l9.139-9.084-2.367.017zM110.401 137.277l9.091-9.035h-7.956l-8.609 8.557c2.203.235 4.741.405 7.474.478z"/></g><path d="M113.894 131.274c10.735 0 19.438-1.354 19.438-3.025 0-1.671-8.703-3.025-19.438-3.025s-19.437 1.354-19.437 3.025c0 1.671 8.702 3.025 19.437 3.025z" fill="#FFCE5D"/><path opacity=".1" d="M113.894 130.293c7.26 0 13.146-.915 13.146-2.044s-5.886-2.044-13.146-2.044c-7.26 0-13.146.915-13.146 2.044s5.886 2.044 13.146 2.044z" fill="#000"/><path opacity=".1" d="M101.132 128.735c1.411-.892 6.585-1.557 12.762-1.557 6.177 0 11.351.665 12.762 1.557.245-.154.384-.324.384-.486 0-1.127-5.884-2.044-13.146-2.044-7.263 0-13.146.917-13.146 2.044 0 .162.139.332.384.486z" fill="#000"/><path d="M101.825 121.209v6.058c0 1.671 8.699 3.026 19.437 3.026 10.739 0 19.438-1.355 19.438-3.026v-6.058h-38.875z" fill="#FFCE5D"/><path opacity=".1" d="M101.825 121.209v6.058c0 1.671 8.699 3.026 19.437 3.026 10.739 0 19.438-1.355 19.438-3.026v-6.058h-38.875z" fill="#000"/><g opacity=".1" fill="#000"><path opacity=".1" d="M130.793 129.903v-8.694h-2.179v8.856a96.91 96.91 0 0 0 2.179-.162zM134.4 129.457v-8.248h-2.178v8.556c.775-.081 1.468-.17 2.178-.308zM124.151 130.268v-9.059h-2.178v9.059h2.178zM110.287 129.765v-8.556h-2.179v8.248c.686.138 1.412.227 2.179.308zM120.544 130.268v-9.059h-2.179v9.059h2.179zM113.894 130.065v-8.856h-2.179v8.694c.702.06 1.428.114 2.179.162z"/></g><g opacity=".2" fill="#fff"><path opacity=".2" d="M128.59 121.209l-9.123 9.059h2.35l9.139-9.083-2.366.024zM117.762 130.269l9.09-9.035h-7.956l-8.609 8.557c2.187.211 4.741.373 7.475.478z"/></g><path d="M121.262 124.234c10.735 0 19.438-1.354 19.438-3.025 0-1.671-8.703-3.025-19.438-3.025-10.734 0-19.437 1.354-19.437 3.025 0 1.671 8.703 3.025 19.437 3.025z" fill="#FFCE5D"/><path opacity=".1" d="M121.263 123.253c7.26 0 13.146-.915 13.146-2.044s-5.886-2.044-13.146-2.044c-7.26 0-13.146.915-13.146 2.044s5.886 2.044 13.146 2.044z" fill="#000"/><path opacity=".1" d="M108.492 121.704c1.412-.892 6.585-1.557 12.762-1.557 6.177 0 11.351.665 12.763 1.557.244-.154.383-.324.383-.486 0-1.128-5.883-2.044-13.146-2.044-7.262 0-13.146.916-13.146 2.044.009.129.139.324.384.486z" fill="#000"/><path d="M105.433 114.177v6.058c0 1.671 8.698 3.026 19.437 3.026s19.429-1.363 19.429-3.034v-6.058l-38.866.008z" fill="#FFCE5D"/><path opacity=".1" d="M105.433 114.177v6.058c0 1.671 8.698 3.026 19.437 3.026s19.429-1.363 19.429-3.034v-6.058l-38.866.008z" fill="#000"/><g opacity=".1" fill="#000"><path opacity=".1" d="M134.399 122.864v-8.686h-2.178v8.856a50.35 50.35 0 0 0 2.178-.17zM138.015 122.458v-8.28h-2.179v8.548c.767-.081 1.493-.17 2.179-.268zM127.758 123.221v-9.043h-2.179v9.075l2.179-.032zM113.894 122.726v-8.548h-2.179v8.28c.685.098 1.412.187 2.179.268zM124.15 123.253v-9.075h-2.178v9.051l2.178.024zM117.501 123.034v-8.856h-2.171v8.694c.696.065 1.42.119 2.171.162z"/></g><g opacity=".2" fill="#fff"><path opacity=".2" d="M132.198 114.177l-9.115 9.068h2.35l9.139-9.084-2.374.016zM121.369 123.205l9.058-9.027h-7.956l-8.576 8.548c2.211.243 4.741.406 7.474.479z"/></g><path d="M124.87 117.203c10.735 0 19.437-1.355 19.437-3.025 0-1.671-8.702-3.026-19.437-3.026-10.735 0-19.437 1.355-19.437 3.026 0 1.67 8.702 3.025 19.437 3.025z" fill="#FFCE5D"/><path opacity=".1" d="M124.87 116.221c7.26 0 13.145-.915 13.145-2.043 0-1.129-5.885-2.044-13.145-2.044-7.261 0-13.146.915-13.146 2.044 0 1.128 5.885 2.043 13.146 2.043z" fill="#000"/><path opacity=".1" d="M112.098 114.664c1.412-.892 6.586-1.557 12.763-1.557s11.35.665 12.762 1.557c.245-.154.384-.324.384-.486 0-1.128-5.884-2.044-13.146-2.044-7.263 0-13.146.916-13.146 2.044.008.17.139.332.383.486z" fill="#000"/><path d="M101.825 107.138v6.058c0 1.671 8.699 3.025 19.437 3.025 10.739 0 19.438-1.354 19.438-3.025v-6.058h-38.875z" fill="#FFCE5D"/><path opacity=".1" d="M101.825 107.138v6.058c0 1.671 8.699 3.025 19.437 3.025 10.739 0 19.438-1.354 19.438-3.025v-6.058h-38.875z" fill="#000"/><g opacity=".1" fill="#000"><path opacity=".1" d="M130.793 115.832v-8.694h-2.179v8.856a60.29 60.29 0 0 0 2.179-.162zM134.4 115.426v-8.288h-2.178v8.532a33.363 33.363 0 0 0 2.178-.244zM124.151 116.189v-9.051h-2.178v9.075l2.178-.024zM110.287 115.67v-8.532h-2.179v8.288c.686.098 1.412.187 2.179.244zM120.544 116.221v-9.083h-2.179v9.051l2.179.032zM113.894 115.994v-8.856h-2.179v8.694c.702.059 1.428.114 2.179.162z"/></g><g opacity=".2" fill="#fff"><path opacity=".2" d="M128.59 107.137l-9.123 9.068h2.35l9.139-9.084-2.366.016zM117.762 116.172l9.09-9.035h-7.956l-8.609 8.532c2.187.259 4.741.422 7.475.503z"/></g><path d="M121.262 110.163c10.735 0 19.438-1.355 19.438-3.026 0-1.67-8.703-3.025-19.438-3.025-10.734 0-19.437 1.355-19.437 3.025 0 1.671 8.703 3.026 19.437 3.026z" fill="#FFCE5D"/><path opacity=".1" d="M121.263 109.181c7.26 0 13.146-.915 13.146-2.043 0-1.129-5.886-2.044-13.146-2.044-7.26 0-13.146.915-13.146 2.044 0 1.128 5.886 2.043 13.146 2.043z" fill="#000"/><path opacity=".1" d="M108.492 107.632c1.412-.892 6.585-1.557 12.762-1.557 6.177 0 11.351.665 12.763 1.557.244-.154.383-.324.383-.487 0-1.127-5.883-2.043-13.146-2.043-7.262 0-13.146.916-13.146 2.043.009.163.139.325.384.487z" fill="#000"/><path d="M88.974 98.589v6.058c0 1.671 8.698 3.025 19.437 3.025s19.437-1.354 19.437-3.025v-6.058H88.974z" fill="#FFCE5D"/><path opacity=".1" d="M88.974 98.589v6.058c0 1.671 8.698 3.025 19.437 3.025s19.437-1.354 19.437-3.025v-6.058H88.974z" fill="#000"/><g opacity=".1" fill="#000"><path opacity=".1" d="M117.95 107.283v-8.694h-2.212v8.856c.773-.043 1.51-.097 2.212-.162zM121.557 106.878v-8.29h-2.179v8.557c.767-.081 1.501-.17 2.179-.267zM111.308 107.64v-9.051h-2.179v9.075l2.179-.024zM97.443 107.145v-8.556h-2.178v8.281c.685.105 1.411.194 2.178.275zM107.7 107.672v-9.083h-2.179v9.051l2.179.032zM101.05 107.453v-8.864h-2.179v8.694a76.62 76.62 0 0 0 2.179.17z"/></g><g opacity=".2" fill="#fff"><path opacity=".2" d="M115.738 98.59l-9.123 9.067h2.35l9.14-9.084-2.367.017zM104.918 107.625l9.09-9.035h-7.956l-8.609 8.556c2.204.235 4.741.414 7.475.479z"/></g><path d="M108.411 101.615c10.735 0 19.437-1.355 19.437-3.025 0-1.671-8.702-3.026-19.437-3.026-10.735 0-19.437 1.355-19.437 3.026 0 1.67 8.702 3.025 19.437 3.025z" fill="#FFCE5D"/><path opacity=".1" d="M108.411 100.633c7.26 0 13.145-.915 13.145-2.044s-5.885-2.044-13.145-2.044c-7.261 0-13.146.915-13.146 2.044s5.885 2.044 13.146 2.044z" fill="#000"/><path opacity=".1" d="M95.648 99.084c1.412-.892 6.585-1.557 12.763-1.557 6.177 0 11.35.665 12.762 1.557.245-.154.383-.324.383-.487 0-1.127-5.883-2.043-13.145-2.043-7.263 0-13.146.916-13.146 2.043 0 .163.138.333.383.487z" fill="#000"/><path d="M81.613 91.558v6.058c0 1.67 8.699 3.025 19.438 3.025 10.738 0 19.437-1.354 19.437-3.025v-6.058H81.613z" fill="#FFCE5D"/><path opacity=".1" d="M81.613 91.558v6.058c0 1.67 8.699 3.025 19.438 3.025 10.738 0 19.437-1.354 19.437-3.025v-6.058H81.613z" fill="#000"/><g opacity=".1" fill="#000"><path opacity=".1" d="M110.59 100.26v-8.702h-2.195v8.856c.761-.049 1.493-.1 2.195-.154zM114.196 99.846v-8.288h-2.178v8.556c.767-.081 1.493-.17 2.178-.268zM103.939 100.609v-9.051h-2.179v9.075l2.179-.024zM90.083 100.114v-8.556h-2.179v8.28c.686.106 1.412.195 2.179.276zM100.332 100.641v-9.083h-2.17v9.051l2.17.032zM93.706 100.414v-8.856H91.51v8.702c.702.054 1.433.105 2.195.154z"/></g><g opacity=".2" fill="#fff"><path opacity=".2" d="M108.394 91.557l-9.14 9.068h2.351l9.139-9.084-2.35.016zM97.558 100.593l9.09-9.035h-7.964l-8.601 8.556c2.203.235 4.741.397 7.475.479z"/></g><path d="M101.051 94.582c10.734 0 19.437-1.354 19.437-3.025 0-1.67-8.703-3.025-19.437-3.025-10.735 0-19.438 1.355-19.438 3.025 0 1.671 8.703 3.025 19.438 3.025z" fill="#FFCE5D"/><path opacity=".1" d="M101.05 93.601c7.26 0 13.146-.915 13.146-2.043 0-1.13-5.886-2.044-13.146-2.044-7.26 0-13.146.915-13.146 2.044 0 1.128 5.886 2.043 13.146 2.043z" fill="#000"/><path opacity=".1" d="M88.288 92.052c1.412-.892 6.585-1.557 12.762-1.557 6.177 0 11.351.665 12.763 1.557.244-.154.383-.325.383-.487 0-1.127-5.883-2.043-13.146-2.043-7.262 0-13.146.916-13.146 2.043 0 .163.13.325.384.487z" fill="#000"/><path d="M88.974 84.526v6.059c0 1.67 8.698 3.025 19.437 3.025s19.437-1.355 19.437-3.025v-6.059H88.974z" fill="#FFCE5D"/><path opacity=".1" d="M88.974 84.526v6.059c0 1.67 8.698 3.025 19.437 3.025s19.437-1.355 19.437-3.025v-6.059H88.974z" fill="#000"/><g opacity=".1" fill="#000"><path opacity=".1" d="M117.95 93.213v-8.687h-2.212v8.857a75.9 75.9 0 0 0 2.212-.17zM121.557 92.807v-8.28h-2.179v8.556c.767-.122 1.501-.179 2.179-.276zM111.308 93.57v-9.044h-2.179v9.076l2.179-.033zM97.443 93.075v-8.549h-2.178v8.281c.685.097 1.411.154 2.178.268zM107.7 93.602v-9.076h-2.179v9.052l2.179.024zM101.05 93.383v-8.857h-2.179v8.695c.702.06 1.428.113 2.179.162z"/></g><g opacity=".2" fill="#fff"><path opacity=".2" d="M115.738 84.526l-9.123 9.067h2.35l9.14-9.083-2.367.016zM104.918 93.555l9.09-9.036h-7.956l-8.609 8.557c2.204.235 4.741.406 7.475.479z"/></g><path d="M108.411 87.551c10.735 0 19.437-1.354 19.437-3.025 0-1.67-8.702-3.025-19.437-3.025-10.735 0-19.437 1.354-19.437 3.025 0 1.67 8.702 3.025 19.437 3.025z" fill="#FFCE5D"/><path opacity=".1" d="M108.411 86.57c7.26 0 13.145-.915 13.145-2.044s-5.885-2.044-13.145-2.044c-7.261 0-13.146.915-13.146 2.044s5.885 2.044 13.146 2.044z" fill="#000"/><path opacity=".1" d="M95.648 85.013c1.412-.892 6.585-1.557 12.763-1.557 6.177 0 11.35.665 12.762 1.557.245-.154.383-.325.383-.487 0-1.127-5.883-2.044-13.145-2.044-7.263 0-13.146.917-13.146 2.044 0 .17.138.325.383.487z" fill="#000"/><path d="M92.58 77.486v6.059c0 1.67 8.699 3.025 19.437 3.025 10.739 0 19.438-1.354 19.438-3.025v-6.059H92.58z" fill="#FFCE5D"/><path opacity=".1" d="M92.58 77.486v6.059c0 1.67 8.699 3.025 19.437 3.025 10.739 0 19.438-1.354 19.438-3.025v-6.059H92.58z" fill="#000"/><g opacity=".1" fill="#000"><path opacity=".1" d="M121.556 86.18v-8.694h-2.179v8.857a62.947 62.947 0 0 0 2.179-.162zM125.163 85.775v-8.289h-2.179v8.557c.767-.081 1.502-.17 2.179-.268zM114.922 86.537v-9.05h-2.179v9.075l2.179-.025zM101.05 86.043v-8.557h-2.179v8.281a46.78 46.78 0 0 0 2.179.276zM111.307 86.57v-9.084h-2.179v9.051l2.179.033zM104.656 86.343v-8.857h-2.178v8.695c.68.06 1.406.113 2.178.162z"/></g><g opacity=".2" fill="#fff"><path opacity=".2" d="M119.352 77.486l-9.123 9.067h2.351l9.139-9.083-2.367.016zM108.524 86.521l9.091-9.035h-7.956l-8.609 8.557c2.203.235 4.741.43 7.474.478z"/></g><path d="M112.017 80.511c10.735 0 19.438-1.354 19.438-3.025 0-1.67-8.703-3.025-19.438-3.025S92.58 75.815 92.58 77.486c0 1.67 8.702 3.025 19.437 3.025z" fill="#FFCE5D"/><path opacity=".1" d="M112.017 79.53c7.26 0 13.146-.915 13.146-2.044s-5.886-2.044-13.146-2.044c-7.26 0-13.146.915-13.146 2.044s5.886 2.044 13.146 2.044z" fill="#000"/><path opacity=".1" d="M99.255 77.98c1.411-.892 6.585-1.557 12.762-1.557 6.177 0 11.351.665 12.762 1.558.245-.154.384-.325.384-.487 0-1.127-5.884-2.044-13.146-2.044-7.262 0-13.146.917-13.146 2.044 0 .162.139.324.384.487z" fill="#000"/><path d="M88.974 70.455v6.058c0 1.671 8.698 3.026 19.437 3.026s19.437-1.355 19.437-3.026v-6.058H88.974z" fill="#FFCE5D"/><path opacity=".1" d="M88.974 70.455v6.058c0 1.671 8.698 3.026 19.437 3.026s19.437-1.355 19.437-3.026v-6.058H88.974z" fill="#000"/><g opacity=".1" fill="#000"><path opacity=".1" d="M117.95 79.174v-8.719h-2.212v8.857c.773-.05 1.51-.095 2.212-.138zM121.557 78.736v-8.28h-2.179v8.555a58.756 58.756 0 0 0 2.179-.275zM111.308 79.506v-9.05h-2.179v9.075l2.179-.025zM97.443 79.011v-8.556h-2.178v8.28c.685.098 1.411.195 2.178.276zM107.7 79.53v-9.075h-2.179v9.051l2.179.025zM101.05 79.312v-8.857h-2.179v8.719c.702.043 1.428.089 2.179.138z"/></g><g opacity=".2" fill="#fff"><path opacity=".2" d="M115.738 70.455l-9.123 9.067h2.35l9.14-9.084-2.367.017zM104.918 79.489l9.09-9.035h-7.956l-8.609 8.556c2.204.236 4.741.398 7.475.479z"/></g><path d="M108.411 73.48c10.735 0 19.437-1.354 19.437-3.025 0-1.67-8.702-3.025-19.437-3.025-10.735 0-19.437 1.354-19.437 3.025 0 1.67 8.702 3.025 19.437 3.025z" fill="#FFCE5D"/><path opacity=".1" d="M108.411 72.498c7.26 0 13.145-.915 13.145-2.044s-5.885-2.044-13.145-2.044c-7.261 0-13.146.915-13.146 2.044s5.885 2.044 13.146 2.044z" fill="#000"/><path opacity=".1" d="M95.648 70.94c1.412-.892 6.585-1.557 12.763-1.557 6.177 0 11.35.665 12.762 1.558.245-.154.383-.325.383-.487 0-1.127-5.883-2.044-13.145-2.044-7.263 0-13.146.917-13.146 2.044 0 .17.138.333.383.487z" fill="#000"/><path opacity=".5" d="M165.017 145.783c-22.424 14.51-78.394 14.721-103.347 0V19.903c-.001-1.723.34-3.43 1.002-5.021a13.11 13.11 0 0 1 2.86-4.258 13.2 13.2 0 0 1 4.281-2.845c1.602-.66 3.318-.999 5.052-.999h76.949c3.5 0 6.856 1.382 9.33 3.841a13.072 13.072 0 0 1 3.865 9.274l.008 125.888z" fill="#84C8FF"/><path opacity=".3" d="M94.13 6.78H84.044a13.265 13.265 0 0 0-5.049 1.002 13.2 13.2 0 0 0-4.279 2.845 13.11 13.11 0 0 0-2.857 4.256 13.047 13.047 0 0 0-1.002 5.02v125.88h10.07V19.903c-.001-1.724.34-3.43 1.003-5.023a13.108 13.108 0 0 1 2.862-4.259 13.202 13.202 0 0 1 4.284-2.844c1.603-.66 3.32-.998 5.054-.997z" fill="#fff"/><path opacity=".5" d="M153.365 0h-80.05v6.78h80.05V0z" fill="#84C8FF"/><path opacity=".1" d="M153.365 0h-80.05v6.78h80.05V0z" fill="#000"/><path opacity=".1" d="M153.365 0h-28.259v6.78h28.259V0z" fill="#000"/><path opacity=".1" d="M151.814 6.78h-26.708c3.5 0 6.856 1.382 9.331 3.841a13.075 13.075 0 0 1 3.864 9.274v125.888h26.716V19.903a13.047 13.047 0 0 0-1.002-5.023 13.126 13.126 0 0 0-2.862-4.259 13.204 13.204 0 0 0-4.285-2.844 13.261 13.261 0 0 0-5.054-.997z" fill="#000"/><path opacity=".1" d="M144.952 109.351v-6.658c0-2.109-10.967-3.812-24.48-3.812-10.241 0-19.005.981-22.67 2.368v10.544c.894.336 1.81.607 2.743.811v5.677c-.936.202-1.855.473-2.75.811l-.041 26.44 47.222.073v-7.357c0-1.208-3.623-2.287-9.278-2.984v-4.185h.082c5.606-.698 9.196-1.776 9.196-2.977v-6.65c2.856-.625 4.545-1.387 4.545-2.214v-7.632c-.024-.868-1.713-1.614-4.569-2.255z" fill="#000"/><path d="M134.058 155.135v7.632c0 2.108 10.967 3.811 24.48 3.811s24.48-1.711 24.48-3.811v-7.632h-48.96z" fill="#FFCE5D"/><path opacity=".1" d="M134.058 155.135v7.632c0 2.108 10.967 3.811 24.48 3.811s24.48-1.711 24.48-3.811v-7.632h-48.96z" fill="#000"/><g opacity=".1" fill="#000"><path opacity=".1" d="M170.566 166.084v-10.949h-2.742v11.16c.947-.065 1.861-.136 2.742-.211zM175.111 165.573v-10.438h-2.742v10.778a87.921 87.921 0 0 0 2.742-.34zM162.194 166.53v-11.395h-2.742v11.435c.93-.008 1.844-.016 2.742-.04zM144.731 165.905v-10.77h-2.742v10.438c.857.121 1.771.235 2.742.332zM157.648 166.57v-11.435h-2.742v11.403c.898.016 1.812.024 2.742.032zM149.276 166.295v-11.16h-2.742v10.949c.881.075 1.795.146 2.742.211z"/></g><g opacity=".2" fill="#fff"><path opacity=".2" d="M167.783 155.135l-11.489 11.419H159.248l11.506-11.444-2.971.025zM154.148 166.515l11.424-11.355h-9.996l-10.845 10.779c2.783.267 5.974.478 9.417.576z"/></g><path d="M158.546 158.946c13.525 0 24.488-1.707 24.488-3.812 0-2.105-10.963-3.812-24.488-3.812s-24.488 1.707-24.488 3.812c0 2.105 10.963 3.812 24.488 3.812z" fill="#FFCE5D"/><path opacity=".1" d="M158.546 157.714c9.149 0 16.565-1.155 16.565-2.579 0-1.425-7.416-2.579-16.565-2.579-9.148 0-16.565 1.154-16.565 2.579 0 1.424 7.417 2.579 16.565 2.579z" fill="#000"/><path opacity=".1" d="M142.471 155.751c1.779-1.127 8.298-1.963 16.083-1.963 7.785 0 14.305.811 16.084 1.963.31-.195.481-.405.481-.616 0-1.428-7.417-2.579-16.565-2.579-9.147 0-16.565 1.151-16.565 2.579 0 .211.172.413.482.616z" fill="#000"/><path d="M124.788 146.27v7.631c0 2.109 10.967 3.812 24.48 3.812s24.481-1.711 24.481-3.812v-7.631h-48.961z" fill="#FFCE5D"/><path opacity=".1" d="M124.788 146.27v7.631c0 2.109 10.967 3.812 24.48 3.812s24.481-1.711 24.481-3.812v-7.631h-48.961z" fill="#000"/><g opacity=".1" fill="#000"><path opacity=".1" d="M161.288 157.218V146.27h-2.742v11.159c.946-.059 1.86-.129 2.742-.211zM165.833 156.708V146.27h-2.767v10.762c.996-.089 1.91-.203 2.767-.324zM152.916 157.673V146.27h-2.742v11.435c.93 0 1.844-.016 2.742-.032zM135.453 157.032V146.27h-2.742v10.438a61.36 61.36 0 0 0 2.742.324zM148.378 157.705V146.27h-2.741v11.403c.889.016 1.811.032 2.741.032zM139.998 157.429V146.27h-2.742v10.948c.887.082 1.801.152 2.742.211z"/></g><g opacity=".2" fill="#fff"><path opacity=".2" d="M158.513 146.27l-11.497 11.427H149.97l11.505-11.435-2.962.008zM144.87 157.65l11.424-11.354h-9.996l-10.845 10.738c2.783.308 5.973.519 9.417.616z"/></g><path d="M149.276 150.082c13.525 0 24.489-1.707 24.489-3.812 0-2.105-10.964-3.812-24.489-3.812-13.524 0-24.488 1.707-24.488 3.812 0 2.105 10.964 3.812 24.488 3.812z" fill="#FFCE5D"/><path opacity=".1" d="M149.276 148.85c9.148 0 16.565-1.155 16.565-2.58 0-1.424-7.417-2.579-16.565-2.579-9.149 0-16.565 1.155-16.565 2.579 0 1.425 7.416 2.58 16.565 2.58z" fill="#000"/><path opacity=".1" d="M133.192 146.887c1.779-1.127 8.299-1.963 16.084-1.963s14.304.811 16.083 1.963c.31-.195.482-.406.482-.617 0-1.427-7.418-2.579-16.565-2.579-9.148 0-16.565 1.152-16.565 2.579 0 .219.163.422.481.617z" fill="#000"/><path d="M134.058 137.405v7.632c0 2.109 10.967 3.812 24.48 3.812s24.48-1.711 24.48-3.812v-7.632h-48.96z" fill="#FFCE5D"/><path opacity=".1" d="M134.058 137.405v7.632c0 2.109 10.967 3.812 24.48 3.812s24.48-1.711 24.48-3.812v-7.632h-48.96z" fill="#000"/><g opacity=".1" fill="#000"><path opacity=".1" d="M170.566 148.354v-10.949h-2.742v11.16c.947-.059 1.861-.13 2.742-.211zM175.111 147.843v-10.438h-2.742v10.779c.963-.073 1.885-.219 2.742-.341zM162.194 148.808v-11.403h-2.742v11.436c.93 0 1.844-.016 2.742-.033zM144.731 148.184v-10.779h-2.742v10.438c.857.122 1.771.268 2.742.341zM157.648 148.849v-11.444h-2.742v11.403c.898.017 1.812.033 2.742.041zM149.276 148.565v-11.16h-2.742v10.949c.881.081 1.795.152 2.742.211z"/></g><g opacity=".2" fill="#fff"><path opacity=".2" d="M167.783 137.405l-11.489 11.427H159.248l11.506-11.443-2.971.016zM154.148 148.785l11.424-11.354h-9.996l-10.845 10.778c2.783.268 5.974.479 9.417.576z"/></g><path d="M158.546 141.217c13.525 0 24.488-1.706 24.488-3.811 0-2.106-10.963-3.812-24.488-3.812s-24.488 1.706-24.488 3.812c0 2.105 10.963 3.811 24.488 3.811z" fill="#FFCE5D"/><path opacity=".1" d="M158.546 139.984c9.149 0 16.565-1.154 16.565-2.579 0-1.424-7.416-2.579-16.565-2.579-9.148 0-16.565 1.155-16.565 2.579 0 1.425 7.417 2.579 16.565 2.579z" fill="#000"/><path opacity=".1" d="M142.471 138.022c1.779-1.128 8.298-1.963 16.083-1.963 7.785 0 14.305.811 16.084 1.963.31-.195.481-.406.481-.617 0-1.427-7.417-2.579-16.565-2.579-9.147 0-16.565 1.152-16.565 2.579 0 .211.172.422.482.617z" fill="#000"/><path d="M138.587 128.541v7.632c0 2.109 10.967 3.812 24.48 3.812s24.48-1.712 24.48-3.812v-7.632h-48.96z" fill="#FFCE5D"/><path opacity=".1" d="M138.587 128.541v7.632c0 2.109 10.967 3.812 24.48 3.812s24.48-1.712 24.48-3.812v-7.632h-48.96z" fill="#000"/><g opacity=".1" fill="#000"><path opacity=".1" d="M175.111 139.498v-10.949h-2.742v11.16c.947-.065 1.861-.136 2.742-.211zM179.656 138.979v-10.438h-2.718v10.779c.939-.13 1.861-.219 2.718-.341zM166.739 139.944v-11.403h-2.742v11.46c.93 0 1.844 0 2.742-.057zM149.276 139.32v-10.779h-2.742v10.438c.857.122 1.771.211 2.742.341zM162.193 140.001v-11.436h-2.742v11.404c.898.032 1.812.032 2.742.032zM153.821 139.701v-11.16h-2.742v10.949a96.93 96.93 0 0 0 2.742.211z"/></g><g opacity=".2" fill="#fff"><path opacity=".2" d="M172.328 128.541l-11.489 11.46H163.793l11.514-11.46h-2.979zM158.693 139.92l11.424-11.355h-9.996l-10.845 10.755c2.775.3 5.974.503 9.417.6z"/></g><path d="M163.091 132.352c13.524 0 24.488-1.706 24.488-3.812 0-2.105-10.964-3.811-24.488-3.811-13.525 0-24.488 1.706-24.488 3.811 0 2.106 10.963 3.812 24.488 3.812z" fill="#FFCE5D"/><path opacity=".1" d="M163.091 131.12c9.149 0 16.565-1.155 16.565-2.579 0-1.424-7.416-2.579-16.565-2.579-9.148 0-16.565 1.155-16.565 2.579 0 1.424 7.417 2.579 16.565 2.579z" fill="#000"/><path opacity=".1" d="M147.016 129.157c1.779-1.127 8.298-1.962 16.083-1.962 7.785 0 14.305.811 16.084 1.962.31-.194.481-.405.481-.616 0-1.427-7.417-2.579-16.565-2.579-9.147 0-16.565 1.152-16.565 2.579 0 .219.172.422.482.616z" fill="#000"/><path d="M134.058 119.685v7.631c0 2.109 10.967 3.812 24.48 3.812s24.48-1.711 24.48-3.812v-7.631h-48.96z" fill="#FFCE5D"/><path opacity=".1" d="M134.058 119.685v7.631c0 2.109 10.967 3.812 24.48 3.812s24.48-1.711 24.48-3.812v-7.631h-48.96z" fill="#000"/><g opacity=".1" fill="#000"><path opacity=".1" d="M170.566 130.634v-10.949h-2.742v11.151c.947-.059 1.861-.127 2.742-.202zM175.111 130.114v-10.429h-2.742v10.778c.963-.105 1.885-.194 2.742-.349zM162.194 131.08v-11.395h-2.742v11.395h2.742zM144.731 130.456v-10.77h-2.742v10.438c.857.146 1.771.235 2.742.332zM157.648 131.079v-11.435h-2.742v11.435h2.742zM149.276 130.836v-11.151h-2.742v10.949c.881.075 1.795.143 2.742.202z"/></g><g opacity=".2" fill="#fff"><path opacity=".2" d="M167.783 119.684l-11.489 11.395H159.248l11.506-11.435-2.971.04zM154.148 131.08l11.424-11.354h-9.996l-10.845 10.778c2.783.252 5.974.463 9.417.576z"/></g><path d="M158.546 123.496c13.525 0 24.488-1.707 24.488-3.812 0-2.105-10.963-3.812-24.488-3.812s-24.488 1.707-24.488 3.812c0 2.105 10.963 3.812 24.488 3.812z" fill="#FFCE5D"/><path opacity=".1" d="M158.546 122.264c9.149 0 16.565-1.155 16.565-2.579 0-1.425-7.416-2.58-16.565-2.58-9.148 0-16.565 1.155-16.565 2.58 0 1.424 7.417 2.579 16.565 2.579z" fill="#000"/><path opacity=".1" d="M142.471 120.301c1.779-1.127 8.298-1.963 16.083-1.963 7.785 0 14.305.811 16.084 1.963.31-.195.481-.406.481-.616 0-1.428-7.417-2.58-16.565-2.58-9.147 0-16.565 1.152-16.565 2.58 0 .21.172.413.482.616z" fill="#000"/><path d="M80.944 72.612H29.772c-5.701 0-10.323 4.594-10.323 10.26v71.849c0 5.667 4.622 10.26 10.323 10.26h51.172c5.7 0 10.322-4.593 10.322-10.26v-71.85c0-5.665-4.622-10.259-10.323-10.259z" fill="gray"/><path d="M85.244 80.52H25.472v17.17h59.772V80.52z" fill="gray"/><path d="M85.244 76.74H78.66v1.63h6.585v-1.63zM77.174 76.74H70.59v1.63h6.585v-1.63zM69.104 76.74h-6.585v1.63h6.585v-1.63zM61.033 76.74h-6.585v1.63h6.585v-1.63z" fill="gray" opacity=".5"/><path d="M32.816 103.334h-5.272a2.066 2.066 0 0 0-2.072 2.06v5.239c0 1.138.928 2.06 2.072 2.06h5.272a2.066 2.066 0 0 0 2.072-2.06v-5.239c0-1.138-.928-2.06-2.072-2.06z" fill="#9E9E9E"/><path d="M33.085 111.525h-5.81A1.81 1.81 0 0 1 26 111a1.787 1.787 0 0 1-.528-1.268v1.168c0 .476.19.932.528 1.268a1.81 1.81 0 0 0 1.275.525h5.81a1.815 1.815 0 0 0 1.275-.525 1.793 1.793 0 0 0 .528-1.268v-1.168A1.778 1.778 0 0 1 34.36 111a1.81 1.81 0 0 1-1.275.525zM45.407 103.334h-5.272a2.066 2.066 0 0 0-2.072 2.06v5.239c0 1.138.927 2.06 2.072 2.06h5.272a2.066 2.066 0 0 0 2.072-2.06v-5.239c0-1.138-.928-2.06-2.072-2.06z" fill="#9E9E9E"/><path d="M45.676 111.525h-5.827a1.815 1.815 0 0 1-1.275-.525 1.793 1.793 0 0 1-.528-1.268v1.168a1.778 1.778 0 0 0 .528 1.268 1.809 1.809 0 0 0 1.275.525h5.81a1.81 1.81 0 0 0 1.275-.525c.339-.336.529-.792.529-1.268v-1.168c0 .473-.188.926-.523 1.262-.334.336-.789.527-1.264.531zM57.99 103.334h-5.272a2.066 2.066 0 0 0-2.073 2.06v5.239c0 1.138.928 2.06 2.073 2.06h5.272a2.066 2.066 0 0 0 2.072-2.06v-5.239c0-1.138-.928-2.06-2.072-2.06z" fill="#9E9E9E"/><path d="M58.259 111.525h-5.81a1.81 1.81 0 0 1-1.275-.525 1.787 1.787 0 0 1-.529-1.268v1.168c0 .476.19.932.529 1.268a1.81 1.81 0 0 0 1.275.525h5.81a1.81 1.81 0 0 0 1.275-.525c.338-.336.528-.792.528-1.268v-1.168c0 .476-.19.932-.528 1.268a1.81 1.81 0 0 1-1.275.525zM70.58 103.334H65.31a2.066 2.066 0 0 0-2.073 2.06v5.239c0 1.138.928 2.06 2.073 2.06h5.271a2.066 2.066 0 0 0 2.073-2.06v-5.239c0-1.138-.928-2.06-2.073-2.06z" fill="#9E9E9E"/><path d="M70.858 111.525H65.04a1.81 1.81 0 0 1-1.276-.525 1.787 1.787 0 0 1-.528-1.268v1.168c0 .476.19.932.529 1.268a1.81 1.81 0 0 0 1.275.525h5.818a1.81 1.81 0 0 0 1.275-.525c.338-.336.528-.792.528-1.268v-1.168c0 .476-.19.932-.528 1.268a1.81 1.81 0 0 1-1.275.525zM83.171 103.334H77.9a2.066 2.066 0 0 0-2.073 2.06v5.239c0 1.138.928 2.06 2.073 2.06h5.271a2.066 2.066 0 0 0 2.073-2.06v-5.239c0-1.138-.928-2.06-2.073-2.06z" fill="#9E9E9E"/><path d="M83.44 111.525h-5.81a1.81 1.81 0 0 1-1.275-.525 1.787 1.787 0 0 1-.528-1.268v1.168c0 .476.19.932.528 1.268a1.81 1.81 0 0 0 1.275.525h5.81a1.81 1.81 0 0 0 1.276-.525c.338-.336.528-.792.528-1.268v-1.168c0 .476-.19.932-.528 1.268a1.81 1.81 0 0 1-1.275.525zM32.816 114.915h-5.272a2.066 2.066 0 0 0-2.072 2.06v5.239c0 1.138.928 2.06 2.072 2.06h5.272a2.066 2.066 0 0 0 2.072-2.06v-5.239c0-1.138-.928-2.06-2.072-2.06z" fill="#9E9E9E"/><path d="M33.085 123.107h-5.81a1.81 1.81 0 0 1-1.264-.514 1.787 1.787 0 0 1-.54-1.246v1.168c0 .475.19.931.529 1.267a1.81 1.81 0 0 0 1.275.525h5.81a1.814 1.814 0 0 0 1.275-.525 1.782 1.782 0 0 0 .528-1.267v-1.168a1.787 1.787 0 0 1-.54 1.246 1.81 1.81 0 0 1-1.263.514zM45.407 114.915h-5.272a2.066 2.066 0 0 0-2.072 2.06v5.239c0 1.138.927 2.06 2.072 2.06h5.272a2.066 2.066 0 0 0 2.072-2.06v-5.239c0-1.138-.928-2.06-2.072-2.06z" fill="#9E9E9E"/><path d="M45.676 123.107H39.85a1.816 1.816 0 0 1-1.254-.519 1.788 1.788 0 0 1-.533-1.241v1.168c.008.466.2.912.533 1.24.334.329.784.515 1.254.519h5.81a1.814 1.814 0 0 0 1.275-.524 1.804 1.804 0 0 0 .528-1.268v-1.135c-.009.467-.2.912-.534 1.241a1.816 1.816 0 0 1-1.253.519zM57.99 114.915h-5.272a2.066 2.066 0 0 0-2.073 2.06v5.239c0 1.138.928 2.06 2.073 2.06h5.272a2.066 2.066 0 0 0 2.072-2.06v-5.239c0-1.138-.928-2.06-2.072-2.06z" fill="#9E9E9E"/><path d="M58.259 123.107h-5.81a1.81 1.81 0 0 1-1.264-.514 1.787 1.787 0 0 1-.54-1.246v1.168c0 .475.19.931.529 1.267a1.81 1.81 0 0 0 1.275.525h5.81a1.81 1.81 0 0 0 1.275-.525c.338-.336.528-.792.528-1.267v-1.168a1.787 1.787 0 0 1-.54 1.246 1.81 1.81 0 0 1-1.263.514zM70.58 114.915H65.31a2.066 2.066 0 0 0-2.073 2.06v5.239c0 1.138.928 2.06 2.073 2.06h5.271a2.066 2.066 0 0 0 2.073-2.06v-5.239c0-1.138-.928-2.06-2.073-2.06z" fill="#9E9E9E"/><path d="M70.858 123.107H65.04a1.81 1.81 0 0 1-1.264-.514 1.788 1.788 0 0 1-.54-1.246v1.168c0 .475.19.931.529 1.267a1.81 1.81 0 0 0 1.275.525h5.818a1.81 1.81 0 0 0 1.275-.525c.338-.336.528-.792.528-1.267v-1.168a1.787 1.787 0 0 1-.54 1.246 1.81 1.81 0 0 1-1.263.514zM83.171 114.915H77.9a2.066 2.066 0 0 0-2.073 2.06v5.239c0 1.138.928 2.06 2.073 2.06h5.271a2.066 2.066 0 0 0 2.073-2.06v-5.239c0-1.138-.928-2.06-2.073-2.06z" fill="#9E9E9E"/><path d="M83.44 123.107h-5.81a1.81 1.81 0 0 1-1.263-.514 1.788 1.788 0 0 1-.54-1.246v1.168c0 .475.19.931.528 1.267a1.81 1.81 0 0 0 1.275.525h5.81a1.81 1.81 0 0 0 1.276-.525c.338-.336.528-.792.528-1.267v-1.168a1.787 1.787 0 0 1-.54 1.246 1.81 1.81 0 0 1-1.263.514zM32.816 126.505h-5.272a2.066 2.066 0 0 0-2.072 2.06v5.239c0 1.138.928 2.06 2.072 2.06h5.272a2.066 2.066 0 0 0 2.072-2.06v-5.239c0-1.138-.928-2.06-2.072-2.06z" fill="#9E9E9E"/><path d="M33.085 134.689h-5.81a1.81 1.81 0 0 1-1.275-.525 1.787 1.787 0 0 1-.528-1.268v1.168c0 .476.19.932.528 1.268a1.81 1.81 0 0 0 1.275.525h5.81a1.815 1.815 0 0 0 1.275-.525 1.793 1.793 0 0 0 .528-1.268v-1.168a1.778 1.778 0 0 1-.528 1.268 1.81 1.81 0 0 1-1.275.525zM45.407 126.505h-5.272a2.066 2.066 0 0 0-2.072 2.06v5.239c0 1.138.927 2.06 2.072 2.06h5.272a2.066 2.066 0 0 0 2.072-2.06v-5.239c0-1.138-.928-2.06-2.072-2.06z" fill="#9E9E9E"/><path d="M45.676 134.689h-5.827a1.809 1.809 0 0 1-1.666-1.107 1.78 1.78 0 0 1-.137-.686v1.168a1.789 1.789 0 0 0 1.111 1.664c.22.09.455.137.692.137h5.81a1.81 1.81 0 0 0 1.275-.525c.339-.336.529-.792.529-1.268v-1.167c-.002.471-.191.922-.526 1.256a1.808 1.808 0 0 1-1.261.528zM57.99 126.505h-5.272a2.066 2.066 0 0 0-2.073 2.06v5.239c0 1.138.928 2.06 2.073 2.06h5.272a2.066 2.066 0 0 0 2.072-2.06v-5.239c0-1.138-.928-2.06-2.072-2.06z" fill="#9E9E9E"/><path d="M58.259 134.689h-5.81a1.81 1.81 0 0 1-1.275-.525 1.787 1.787 0 0 1-.529-1.268v1.168c0 .476.19.932.529 1.268a1.81 1.81 0 0 0 1.275.525h5.81a1.81 1.81 0 0 0 1.275-.525c.338-.336.528-.792.528-1.268v-1.168c0 .476-.19.932-.528 1.268a1.81 1.81 0 0 1-1.275.525zM70.58 126.505H65.31a2.066 2.066 0 0 0-2.073 2.06v5.239c0 1.138.928 2.06 2.073 2.06h5.271a2.066 2.066 0 0 0 2.073-2.06v-5.239c0-1.138-.928-2.06-2.073-2.06z" fill="#9E9E9E"/><path d="M70.858 134.689H65.04a1.81 1.81 0 0 1-1.276-.525 1.787 1.787 0 0 1-.528-1.268v1.168c0 .476.19.932.529 1.268a1.81 1.81 0 0 0 1.275.525h5.818a1.81 1.81 0 0 0 1.275-.525c.338-.336.528-.792.528-1.268v-1.168c0 .476-.19.932-.528 1.268a1.81 1.81 0 0 1-1.275.525zM83.171 126.505H77.9a2.066 2.066 0 0 0-2.073 2.06v5.239c0 1.138.928 2.06 2.073 2.06h5.271a2.066 2.066 0 0 0 2.073-2.06v-5.239c0-1.138-.928-2.06-2.073-2.06z" fill="#9E9E9E"/><path d="M83.44 134.689h-5.81a1.81 1.81 0 0 1-1.275-.525 1.787 1.787 0 0 1-.528-1.268v1.168c0 .476.19.932.528 1.268a1.81 1.81 0 0 0 1.275.525h5.81a1.81 1.81 0 0 0 1.276-.525c.338-.336.528-.792.528-1.268v-1.168c0 .476-.19.932-.528 1.268a1.81 1.81 0 0 1-1.275.525zM32.816 138.087h-5.272a2.066 2.066 0 0 0-2.072 2.06v5.239c0 1.138.928 2.06 2.072 2.06h5.272a2.066 2.066 0 0 0 2.072-2.06v-5.239c0-1.138-.928-2.06-2.072-2.06z" fill="#9E9E9E"/><path d="M33.085 146.278h-5.81a1.81 1.81 0 0 1-1.275-.525 1.787 1.787 0 0 1-.528-1.268v1.193c0 .475.19.931.528 1.267a1.81 1.81 0 0 0 1.275.525h5.81a1.814 1.814 0 0 0 1.275-.525 1.782 1.782 0 0 0 .528-1.267v-1.168c-.006.471-.199.92-.536 1.251a1.81 1.81 0 0 1-1.267.517zM45.407 138.087h-5.272a2.066 2.066 0 0 0-2.072 2.06v5.239c0 1.138.927 2.06 2.072 2.06h5.272a2.066 2.066 0 0 0 2.072-2.06v-5.239c0-1.138-.928-2.06-2.072-2.06z" fill="#9E9E9E"/><path d="M45.676 146.278h-5.827a1.815 1.815 0 0 1-1.275-.525 1.793 1.793 0 0 1-.528-1.268v1.193c.006.471.2.92.537 1.251a1.81 1.81 0 0 0 1.266.517h5.81c.477.004.936-.18 1.277-.511.341-.331.536-.783.543-1.257v-1.168c-.007.471-.2.92-.537 1.251a1.81 1.81 0 0 1-1.266.517zM57.99 138.087h-5.272a2.066 2.066 0 0 0-2.073 2.06v5.239c0 1.138.928 2.06 2.073 2.06h5.272a2.066 2.066 0 0 0 2.072-2.06v-5.239c0-1.138-.928-2.06-2.072-2.06z" fill="#9E9E9E"/><path d="M58.259 146.278h-5.81a1.81 1.81 0 0 1-1.275-.525 1.787 1.787 0 0 1-.529-1.268v1.193c0 .475.19.931.529 1.267a1.81 1.81 0 0 0 1.275.525h5.81a1.814 1.814 0 0 0 1.275-.525 1.784 1.784 0 0 0 .528-1.267v-1.168c-.006.471-.199.92-.536 1.251a1.81 1.81 0 0 1-1.267.517zM70.58 138.087H65.31a2.066 2.066 0 0 0-2.073 2.06v5.239c0 1.138.928 2.06 2.073 2.06h5.271a2.066 2.066 0 0 0 2.073-2.06v-5.239c0-1.138-.928-2.06-2.073-2.06z" fill="#9E9E9E"/><path d="M70.858 146.278H65.04a1.81 1.81 0 0 1-1.276-.525 1.787 1.787 0 0 1-.528-1.268v1.193c0 .475.19.931.529 1.267a1.81 1.81 0 0 0 1.275.525h5.818a1.808 1.808 0 0 0 1.27-.528c.336-.336.525-.79.525-1.264v-1.168a1.79 1.79 0 0 1-.534 1.249c-.336.33-.788.517-1.261.519zM32.816 149.668h-5.272a2.066 2.066 0 0 0-2.072 2.06v5.239c0 1.138.928 2.06 2.072 2.06h5.272a2.066 2.066 0 0 0 2.072-2.06v-5.239c0-1.138-.928-2.06-2.072-2.06z" fill="#9E9E9E"/><path d="M33.085 157.843h-5.81a1.81 1.81 0 0 1-1.275-.525 1.786 1.786 0 0 1-.528-1.267v1.168c0 .475.19.931.528 1.267a1.81 1.81 0 0 0 1.275.525h5.81a1.814 1.814 0 0 0 1.275-.525 1.789 1.789 0 0 0 .528-1.267v-1.168a1.785 1.785 0 0 1-1.113 1.656c-.219.09-.453.136-.69.136zM45.407 149.668h-5.272a2.066 2.066 0 0 0-2.072 2.06v5.239c0 1.138.927 2.06 2.072 2.06h5.272a2.066 2.066 0 0 0 2.072-2.06v-5.239c0-1.138-.928-2.06-2.072-2.06z" fill="#9E9E9E"/><path d="M45.676 157.843h-5.827a1.814 1.814 0 0 1-1.275-.525 1.79 1.79 0 0 1-.528-1.267v1.168a1.789 1.789 0 0 0 1.11 1.67c.22.091.455.138.693.138h5.81a1.81 1.81 0 0 0 1.276-.525c.338-.336.528-.792.528-1.267v-1.168c-.005.47-.194.919-.528 1.251a1.809 1.809 0 0 1-1.26.525zM57.99 149.668h-5.272a2.066 2.066 0 0 0-2.073 2.06v5.239c0 1.138.928 2.06 2.073 2.06h5.272a2.066 2.066 0 0 0 2.072-2.06v-5.239c0-1.138-.928-2.06-2.072-2.06z" fill="#9E9E9E"/><path d="M58.259 157.843h-5.81a1.81 1.81 0 0 1-1.275-.525 1.786 1.786 0 0 1-.529-1.267v1.168c0 .475.19.931.529 1.267a1.81 1.81 0 0 0 1.275.525h5.81a1.81 1.81 0 0 0 1.275-.525c.338-.336.528-.792.528-1.267v-1.168c0 .475-.19.931-.528 1.267a1.81 1.81 0 0 1-1.275.525zM70.58 149.668H65.31a2.066 2.066 0 0 0-2.073 2.06v5.239c0 1.138.928 2.06 2.073 2.06h5.271a2.066 2.066 0 0 0 2.073-2.06v-5.239c0-1.138-.928-2.06-2.073-2.06z" fill="#9E9E9E"/><path d="M70.858 157.843H65.04a1.81 1.81 0 0 1-1.276-.525 1.786 1.786 0 0 1-.528-1.267v1.168c0 .475.19.931.529 1.267a1.81 1.81 0 0 0 1.275.525h5.818a1.81 1.81 0 0 0 1.275-.525c.338-.336.528-.792.528-1.267v-1.168c0 .475-.19.931-.528 1.267a1.81 1.81 0 0 1-1.275.525z" fill="#9E9E9E"/><path d="M83.44 138.087h-5.81a1.81 1.81 0 0 0-1.275.525 1.786 1.786 0 0 0-.528 1.267v17.356c0 .476.19.932.528 1.268a1.81 1.81 0 0 0 1.275.525h5.81a1.81 1.81 0 0 0 1.276-.525c.338-.336.528-.792.528-1.268v-17.356c0-.475-.19-.931-.528-1.267a1.81 1.81 0 0 0-1.275-.525z" fill="#FF890E"/><path d="M83.44 157.843h-5.81a1.81 1.81 0 0 1-1.275-.525 1.786 1.786 0 0 1-.528-1.267v1.168c0 .475.19.931.528 1.267a1.81 1.81 0 0 0 1.275.525h5.81a1.81 1.81 0 0 0 1.276-.525c.338-.336.528-.792.528-1.267v-1.168c0 .475-.19.931-.528 1.267a1.81 1.81 0 0 1-1.275.525z" fill="#9E9E9E"/></svg><svg fill="none" viewBox="0 0 230 171" id="3" xmlns="http://www.w3.org/2000/svg"><path d="M226.044 18.177C222.142 9.58 214.402 2.173 204.815.422c-11.604-2.114-22.973 4.138-32.248 11.115-9.275 6.978-18.212 15.148-29.633 17.95-20.423 5.006-40.769-8.703-61.855-9.727a51.682 51.682 0 0 0-20.122 3.05 51.567 51.567 0 0 0-17.368 10.58C7.165 67.927 23.114 136.327 62.45 153.901c31.753 14.188 77.335 21.178 106.447 2.658 27.773-17.664 55.598-71.655 60.047-103.365.356-2.49.62-4.976.794-7.457.689-9.403.195-19.013-3.695-27.56z" fill="#D8FFC5"/><path d="M59.435 69.053a51.86 51.86 0 0 0-3.618 12.244l-3.649-16.572c4.623 1.53 14.048-9.582 17.478-16.99 3.43-7.408 1.213-15.957-1.929-17.273-2.147-.887-11.035 2.457-14.515 9.982a47.026 47.026 0 0 0-3.53 13.062L46.005 36.72l.16-.136c3.22.682 9.444-6.707 11.72-11.698 2.377-5.137.855-10.888-1.312-11.785-1.471-.604-7.526 1.677-9.942 6.824a32.103 32.103 0 0 0-2.406 8.929L41.77 17.702c.096.011.192.011.288 0 2.337-.643 2.307-7.895 1.183-11.785-1.123-3.89-4.663-6.346-6.263-5.848-1.084.302-3.33 4.289-2.207 8.168.994 3.568 4.344 9.066 6.69 9.446l2.138 12.33a33.317 33.317 0 0 0-8.261-6.287c-5.11-2.583-11.056-1.393-12.07.683-.696 1.403 1.322 7.457 6.422 10.04 4.186 2.115 11.722 3.899 15.172 2.827 1.143 6.774 2.485 14.358 3.837 22.059-2.982-4.699-9.942-10.45-15.23-13.101-7.487-3.792-16.206-2.047-17.697.975-.994 2.056 1.929 10.937 9.425 14.719 7.337 3.714 21.723 6.706 24.447 2.739 1.53 8.773 3.062 17.546 4.444 25.422-3.48-5.234-11.235-11.531-17.03-14.475-8.5-4.299-18.383-2.32-20.083 1.13-1.173 2.34 2.187 12.41 10.668 16.718 8.211 4.152 24.198 7.515 27.608 3.295 2.287 12.925 3.977 22.069 4.036 22.137l4.434-1.784-4.483-20.324c5.507.107 15.2-11.551 18.89-19.496 3.976-8.539 1.43-18.12-2.188-19.612-2.476-.955-12.557 2.827-16.504 11.376z" fill="url(#fpaint0_linear)"/><path d="M4.645 53.023C.263 56.553-.765 64.08.507 69.436c1.507 6.382 7.22 10.229 9.274 16.305 1.155 3.443.186 5.09-.772 8.394-1.253 4.202-1.869 10.18-.402 14.441 2.182 6.333 8.17 11.925 14.196 14.796 7.484 3.531 16.768 1.756 24.252 5.731 5.165 2.742 7.581 9.795 12.972 12.132 5.39 2.338 16.954.701 17.805-6.608.978-8.266-7.2-13.81-7.504-21.612-.176-4.439 1.722-9.154 1.771-13.76.059-6.037-.978-13.257-3.669-18.742-5.048-10.465-14.185-20.033-26.14-20.102-2.788 0-5.752.769-8.53 0-3.522-.928-4.373-3.394-6.663-5.919-3.12-3.422-9.626-5.297-14.322-5.583-3.727-.197-5.263 1.47-8.051 4.035l.704-.592" fill="#9CE6BE"/><path d="M7.791 56.672l66.783 83.333M16.695 106.672l32.278 1.111M47.86 73.338l1.113 34.444M6.679 72.228L22.26 75.56M16.695 55.56l5.566 20M52.313 125.561l15.583 5.555M62.33 110.005l4.452 18.889" stroke="#84CAA5" stroke-miterlimit="10"/><path d="M157.613 72.838L30.398 94.618l9.44 54.803 127.214-21.78-9.439-54.803z" fill="#92B881"/><path d="M152.851 88.541a6.713 6.713 0 0 1-3.88-.472 6.75 6.75 0 0 1-2.966-2.556 6.796 6.796 0 0 1 .154-7.513L44.657 95.787a6.773 6.773 0 0 1 2.653 4.06 6.796 6.796 0 0 1-.735 4.8 6.747 6.747 0 0 1-3.746 3.071 6.71 6.71 0 0 1-4.829-.24l4.284 24.759a6.721 6.721 0 0 1 9.067-.28 6.795 6.795 0 0 1 1.13 9.043l101.503-17.787a6.795 6.795 0 0 1-2.311-8.096 6.766 6.766 0 0 1 2.953-3.331 6.709 6.709 0 0 1 4.374-.762l-4.036-23.289a6.643 6.643 0 0 1-2.113.806z" fill="#C4ECA5"/><path d="M89.48 133.53c8.165-1.416 13.633-9.164 12.212-17.305-1.421-8.141-9.192-13.592-17.357-12.175-8.166 1.416-13.633 9.164-12.213 17.305s9.192 13.592 17.357 12.175z" fill="url(#fpaint1_linear)"/><path d="M167.342 67.11L45.511 107.846l17.658 52.495L185 119.605 167.342 67.11z" fill="#9CC689"/><path d="M165.526 85.348a6.725 6.725 0 0 1-7.2-1.95 6.73 6.73 0 0 1-.977-7.398l-97.53 32.713A6.73 6.73 0 0 1 55 121.209l7.954 23.718a6.723 6.723 0 0 1 8.884-1.61A6.727 6.727 0 0 1 74.324 152l97.542-32.725a6.728 6.728 0 0 1-3.51-7.621 6.73 6.73 0 0 1 6.644-5.122l-7.471-22.28c-.6.477-1.277.848-2.003 1.096z" fill="#CEF8AD"/><path d="M120.998 130.798c9.46-3.163 14.557-13.373 11.384-22.805-3.172-9.432-13.413-14.513-22.873-11.35-9.46 3.163-14.557 13.373-11.385 22.805 3.173 9.431 13.414 14.513 22.874 11.35z" fill="#9CC689"/><path d="M158.052 168.894H91.27v1.111h66.782v-1.111z" fill="#BA9D73"/><path d="M110.192 130.005H97.948v38.889h12.244v-38.889z" fill="url(#fpaint2_linear)"/><path d="M131.339 118.894h-12.243v50h12.243v-50z" fill="url(#fpaint3_linear)"/><path d="M151.373 107.782H139.13v61.111h12.243v-61.111z" fill="url(#fpaint4_linear)"/><defs><linearGradient id="fpaint0_linear" x1="47.861" y1=".005" x2="47.861" y2="118.894" gradientUnits="userSpaceOnUse"><stop stop-color="#B2CC91"/><stop offset="1" stop-color="#9AB17C"/></linearGradient><linearGradient id="fpaint1_linear" x1="3905.08" y1="1108.4" x2="4808.57" y2="950.73" gradientUnits="userSpaceOnUse"><stop offset=".22" stop-color="#A7B1DD"/><stop offset=".42" stop-color="#A5ADDF"/><stop offset=".61" stop-color="#9DA2E6"/><stop offset=".79" stop-color="#908FF0"/><stop offset=".92" stop-color="#847DFB"/></linearGradient><linearGradient id="fpaint2_linear" x1="97.948" y1="149.444" x2="110.192" y2="149.444" gradientUnits="userSpaceOnUse"><stop offset=".01" stop-color="#FBBE52"/><stop offset=".27" stop-color="#FABB54"/><stop offset=".4" stop-color="#F9B656"/><stop offset=".88" stop-color="#FC952E"/></linearGradient><linearGradient id="fpaint3_linear" x1="1598.35" y1="7354.89" x2="1753.72" y2="7354.89" gradientUnits="userSpaceOnUse"><stop offset=".01" stop-color="#FBBE52"/><stop offset=".27" stop-color="#FABB54"/><stop offset=".4" stop-color="#F9B656"/><stop offset=".88" stop-color="#FC952E"/></linearGradient><linearGradient id="fpaint4_linear" x1="1873.66" y1="8593.67" x2="2028.91" y2="8593.67" gradientUnits="userSpaceOnUse"><stop offset=".01" stop-color="#FBBE52"/><stop offset=".27" stop-color="#FABB54"/><stop offset=".4" stop-color="#F9B656"/><stop offset=".88" stop-color="#FC952E"/></linearGradient></defs></svg><svg fill="none" viewBox="0 0 174 170" id="4" xmlns="http://www.w3.org/2000/svg"><path d="M153.691 61.284c16.944 19.004 25.553 41.073 16.899 55.569-8.7 14.46-34.708 21.348-59.896 31.877-25.234 10.53-49.648 24.702-66.41 20.519-16.762-4.183-25.826-26.757-33.615-50.449C2.926 95.073-3.54 70.227 9.303 51.98c12.799-18.246 44.82-29.857 73.515-27.73 28.65 2.164 53.929 18.03 70.873 37.034z" fill="#D8FFC5"/><g clip-path="url(#gclip0)"><path d="M48.071 160c26.549 0 48.071-1.146 48.071-2.56 0-1.414-21.522-2.56-48.07-2.56-26.55 0-48.072 1.146-48.072 2.56 0 1.414 21.522 2.56 48.071 2.56z" fill="#AAB871"/><path d="M64.996 5C46.223 5 31.005 20.218 31.005 38.991c0 24.605 33.991 59.307 33.991 59.307S98.987 64.164 98.987 38.99C98.845 20.218 83.627 5 64.996 5zm0 57.742c-13.227 0-24.036-10.809-24.036-24.035 0-13.227 10.81-24.036 24.036-24.036 13.227 0 24.035 10.809 24.035 24.036 0 13.226-10.808 24.035-24.035 24.035z" fill="#FB8982"/><path d="M44.089 38.564c0-12.8 9.955-23.182 22.471-24.035h-1.564c-13.227 0-24.036 10.809-24.036 24.035 0 13.227 10.809 24.036 24.036 24.036h1.564c-12.516-.853-22.471-11.236-22.471-24.036z" fill="#C7564F"/><path d="M104.818 143.218c10.84 0 19.627-8.787 19.627-19.627 0-10.839-8.787-19.627-19.627-19.627-10.84 0-19.627 8.788-19.627 19.627 0 10.84 8.788 19.627 19.627 19.627z" fill="#94E6BB"/><path d="M104.818 156.729v-30.293" stroke="#E89A49" stroke-width="2.779" stroke-miterlimit="10"/><path d="M7.822 120.178l57.6 5.831 10.951-22.898H22.044L7.822 120.178z" fill="#B8ED98"/><path d="M66.133 120.178H7.396v36.409h58.737v-36.409z" fill="#FCC785"/><path d="M90.454 156.729H62.15v-36.551l14.223-17.636 14.08 17.636v36.551z" fill="#E1A967"/><path d="M76.373 130.276a4.267 4.267 0 1 0 0-8.533 4.267 4.267 0 0 0 0 8.533zM31.289 131.129H16.355v7.396H31.29v-7.396zM53.191 131.129H38.258v7.396H53.19v-7.396zM80.64 139.805h-8.675v16.924h8.675v-16.924z" fill="#fff"/></g><defs><clipPath id="gclip0"><path fill="#fff" d="M0 0h124.444v160H0z"/></clipPath></defs></svg><svg fill="none" viewBox="0 0 163 170" id="5" xmlns="http://www.w3.org/2000/svg"><path d="M133.067 41.546c15.312 8.455 27.617 26.796 29.633 47.115 2.017 20.318-6.254 42.682-21.567 58.705-15.312 16.023-37.734 25.705-56.123 21.75-18.423-3.988-32.847-21.648-48.501-37.671C20.855 115.422 3.936 101.036.62 83.342c-3.315-17.659 7.007-38.625 22.662-47.114 15.688-8.455 36.708-4.432 56.396-3.102 19.687 1.33 38.076-.034 53.389 8.42z" fill="#FFF4B8"/><g clip-path="url(#hclip0)"><path opacity=".12" d="M60.14 149.024c26.032 0 47.135-2.412 47.135-5.388 0-2.975-21.103-5.387-47.135-5.387-26.032 0-47.135 2.412-47.135 5.387 0 2.976 21.103 5.388 47.135 5.388z" fill="#000"/><path d="M45.088 55.855v-5.69c0-3.172-2.559-5.761-5.746-5.761H11.19a5.75 5.75 0 0 0-5.747 5.76v73.999c0 3.171 2.56 5.76 5.747 5.76h97.085a5.751 5.751 0 0 0 5.747-5.76V67.352c0-3.172-2.559-5.76-5.747-5.76H50.811c-3.14 0-5.723-2.566-5.723-5.737z" fill="#589552"/><path d="M44.204 84.283L44.04.863a.75.75 0 0 1 .745-.746L110.347 0a.75.75 0 0 1 .744.746l.163 83.42a.75.75 0 0 1-.744.747l-65.562.117a.736.736 0 0 1-.744-.747z" fill="#F8F4D3"/><path d="M102.505 28.783l-43.855.083.003 1.096 43.854-.082-.002-1.097zM102.528 34.514l-51.532.097.002 1.096 51.532-.097-.002-1.096zM102.528 41.02l-51.532.098.002 1.096 51.532-.097-.002-1.097zM102.552 48.133l-51.533.097.003 1.097 51.532-.098-.002-1.096z" fill="#CCCCCE"/><path d="M83.475 61.818l-32.432.06.002 1.097 32.432-.061-.002-1.096z" fill="#E6E6E7"/><path d="M83.451 55.334l-32.431.061.002 1.097 32.431-.062-.002-1.096z" fill="#CCCCCE"/><path d="M102.575 67.514l-51.532.097.002 1.096 51.532-.097-.002-1.096zM102.599 74.02l-51.533.098.002 1.096 51.533-.097-.002-1.097zM102.599 81.133l-51.533.098.002 1.096 51.533-.098-.002-1.096z" fill="#E6E6E7"/><path d="M104.003 6.713l-53.37.1.031 16.792 53.371-.1-.032-16.792zM102.073 50.266l-16.03.03.03 15.672 16.029-.03-.029-15.672z" fill="#94E5BB"/><path d="M39.62 55.855v-5.69c0-3.172-2.559-5.761-5.746-5.761H5.724C2.558 44.404 0 46.992 0 50.164v73.999a5.731 5.731 0 0 0 5.746 5.737h97.086a5.751 5.751 0 0 0 5.746-5.761V67.352c0-3.172-2.559-5.76-5.746-5.76H45.367a5.731 5.731 0 0 1-5.746-5.737z" fill="#A4DF9F"/></g><defs><clipPath id="hclip0"><path fill="#fff" d="M0 0h116v149H0z"/></clipPath></defs></svg><svg fill="none" viewBox="0 0 160 170" id="6" xmlns="http://www.w3.org/2000/svg"><path d="M30.769 163.527c-9.345-10.764-2.235-36.541-1.32-61.438.917-24.897-4.434-48.916 4.911-66.344C43.705 18.28 67.745 7.369 91.09 8.028c23.38.623 46.101 12.852 58.047 30.316 11.984 17.429 13.23 40.13 7.733 57.338-5.497 17.245-17.7 28.961-29.647 39.689-11.984 10.764-23.711 20.504-42.51 27.534-18.8 7.029-44.6 11.35-53.944.622z" fill="#D8FFC5"/><path d="M62.7 125.4c34.628 0 62.7-28.072 62.7-62.7S97.328 0 62.7 0 0 28.072 0 62.7s28.072 62.7 62.7 62.7z" fill="#FFE792"/><path d="M62.7 113.2c27.89 0 50.5-22.61 50.5-50.5S90.59 12.2 62.7 12.2 12.2 34.81 12.2 62.7s22.61 50.5 50.5 50.5z" fill="#F9FBFC"/><path d="M62.7 12.1c22.9 0 42.2 15.2 48.4 36.1.3.9 1 1.5 1.9 1.5 1.3 0 2.3-1.3 1.9-2.6-6.6-22.5-27.5-39-52.2-39-24.8 0-45.7 16.5-52.4 39-.4 1.3.6 2.6 1.9 2.6.9 0 1.7-.6 1.9-1.5 6.3-20.8 25.7-36.1 48.6-36.1z" fill="#E6C46E"/><path d="M118.7 64.3c-3 0-5.6 2.2-6 5.2-3.3 24.7-24.5 43.7-50.1 43.7s-46.8-19-50.1-43.7c-.4-3-3-5.2-6-5.2-3.6 0-6.5 3.2-6 6.8 4.1 30.6 30.3 54.2 62.1 54.2s58-23.6 62.1-54.2c.5-3.6-2.3-6.8-6-6.8z" fill="#F1D05C"/><path d="M62.7 113.2c27.89 0 50.5-22.61 50.5-50.5S90.59 12.2 62.7 12.2 12.2 34.81 12.2 62.7s22.61 50.5 50.5 50.5z" fill="#F9FBFC"/><path d="M62.5 67.1c-1.3 0-2.4-1.1-2.4-2.4V29.1c0-1.3 1.1-2.4 2.4-2.4 1.3 0 2.4 1.1 2.4 2.4v35.6c.1 1.3-1 2.4-2.4 2.4z" fill="#FF8C85"/><path d="M64.551 63.764c.416 1.279-.16 2.678-1.44 3.094l-26.972 9.716c-1.28.416-2.678-.16-3.094-1.44-.416-1.28.16-2.679 1.44-3.095l26.885-9.766c1.33-.502 2.678.161 3.181 1.49z" fill="#FF8C85"/><path d="M63.1 15.6h-1.8v4.9h1.8v-4.9zM63.1 104.1h-1.8v4.9h1.8v-4.9zM15.428 61.352v1.8h4.9v-1.8h-4.9zM103.97 61.394v1.8h4.9v-1.8h-4.9zM29.714 28.622l-1.273 1.273 3.465 3.465 1.273-1.273-3.465-3.465z" fill="#CFB684"/><path d="M92.38 91.157l-1.273 1.273 3.465 3.465 1.273-1.273-3.465-3.465z" fill="#CED6FF"/><path d="M28.52 94.718l1.272 1.272 3.465-3.465-1.273-1.272-3.465 3.465zM91.07 32.035l1.273 1.273 3.465-3.465-1.273-1.273-3.465 3.465z" fill="#CFB684"/><path d="M133.4 84.4c0 15.9-11.6 28.8-25.8 28.8-14.3 0-25.8-12.9-25.8-28.8h51.6z" fill="#EAEFFB"/><path d="M81.7 141.6c0-15.9 11.6-28.8 25.8-28.8 14.3 0 25.8 12.9 25.8 28.8H81.7z" fill="#EAEFFB"/><path d="M123.2 84.4c0 15.9-7 28.8-15.6 28.8S92 100.3 92 84.4h31.2z" fill="#C7E0FC"/><path d="M92 141.6c0-15.9 7-28.8 15.6-28.8s15.6 12.9 15.6 28.8H92z" fill="#C7E0FC"/><path d="M134.2 139H81v3.7h53.2V139z" fill="#DD6C65"/><path d="M134.7 145.9H80c-1.4 0-2.5-1.1-2.5-2.5s1.1-2.5 2.5-2.5h54.7c1.4 0 2.5 1.1 2.5 2.5s-1.2 2.5-2.5 2.5z" fill="#FF8C85"/><path d="M120.3 145.9h-26c-1.4 0-2.5-1.1-2.5-2.5s1.1-2.5 2.5-2.5h26c1.4 0 2.5 1.1 2.5 2.5s-1.1 2.5-2.5 2.5z" fill="#FFC1AE"/><path d="M80.467 87.502h53.2v-3.7h-53.2v3.7z" fill="#DD6C65"/><path d="M80 80.6h54.7c1.4 0 2.5 1.1 2.5 2.5s-1.1 2.5-2.5 2.5H80c-1.4 0-2.5-1.1-2.5-2.5s1.1-2.5 2.5-2.5z" fill="#FF8C85"/><path d="M94.4 80.6h26c1.4 0 2.5 1.1 2.5 2.5s-1.1 2.5-2.5 2.5h-26c-1.4 0-2.5-1.1-2.5-2.5s1.1-2.5 2.5-2.5z" fill="#FFC1AE"/></svg><svg fill="none" viewBox="0 0 152 185" id="7" xmlns="http://www.w3.org/2000/svg"><path d="M134.171 41.37c14.875 21.087 22.433 45.574 14.835 61.659-7.637 16.045-30.47 23.687-52.583 35.37-22.153 11.684-43.586 27.409-58.302 22.767-14.715-4.641-22.672-29.689-29.51-55.977-6.798-26.327-12.476-53.896-1.2-74.142C18.648 10.801 46.76-2.083 71.951.277c25.152 2.402 47.345 20.007 62.22 41.093z" fill="#FFF4B8"/><g clip-path="url(#jclip0)"><g opacity=".15"><path opacity=".45" d="M62 185c20.877 0 37.8-1.697 37.8-3.79s-16.923-3.79-37.8-3.79c-20.876 0-37.8 1.697-37.8 3.79S41.124 185 62 185z" fill="#000"/></g><path d="M110.5 79.572l19-18.95c.9-.898.9-2.494 0-3.392l-10.3-10.273c-.9-.898-2.5-.898-3.4 0L95 67.502l12 11.97c1 .997 2.5.997 3.5.1z" fill="#89BA85"/><path d="M110.3 82.764L131 62.117c.9-.897.9-2.493 0-3.391l-10.3-10.273c-.9-.898-2.5-.898-3.4 0L96.5 69.099l13.8 13.665z" fill="#89BA85"/><path d="M121.42 63.188a4.977 4.977 0 0 0 0-7.053 5.01 5.01 0 0 0-7.071 0 4.98 4.98 0 0 0 0 7.053 5.009 5.009 0 0 0 7.071 0z" fill="#C68A52"/><path d="M121.8 110.392l-61 60.843c-4.6 4.589-12.1 4.589-16.8 0L2.9 129.942c-4.6-4.588-3.3-10.473 1.4-15.061l61-60.843c4.6-4.588 12.1-4.588 16.8 0l39.8 39.697c4.5 4.588 4.5 12.069-.1 16.657z" fill="#89BA85"/><path d="M114.5 110.792l-54.6 54.459c-4.1 4.09-10.8 4.19-14.9.1L8.9 129.145c-4.1-4.09-2.8-9.277 1.3-13.366l54.6-54.46c4.1-4.089 10.8-4.189 14.9-.1l34.9 34.811c4.1 3.99 4.1 10.672-.1 14.762z" fill="#6C9B68"/><path d="M108.1 110.891L68.7 150.19a9.977 9.977 0 0 1-14.1 0l-13.3-13.266a9.914 9.914 0 0 1 0-14.063l39.4-39.299a9.977 9.977 0 0 1 14.1 0l13.3 13.266a9.914 9.914 0 0 1 0 14.063z" fill="#89BA85"/><path d="M62 96.928c6.517 0 11.8-5.27 11.8-11.77s-5.283-11.77-11.8-11.77-11.8 5.27-11.8 11.77 5.283 11.77 11.8 11.77z" fill="#FFBF40"/><path d="M62 95.132c-2.7 0-5.2-.997-7.1-2.992-1.9-1.895-3-4.389-3-7.082A10.06 10.06 0 0 1 62 74.984c5.6 0 10.1 4.489 10.1 10.074A10.06 10.06 0 0 1 62 95.132zm0-18.552c-4.7 0-8.6 3.79-8.6 8.578 0 2.294.9 4.389 2.5 6.084a8.578 8.578 0 0 0 6 2.494c4.7 0 8.6-3.79 8.6-8.578 0-2.294-.9-4.389-2.5-6.084-1.5-1.596-3.7-2.494-6-2.494z" fill="#FFDF67"/><path d="M123.9 136.525l-57 41.294c-4.5 4.488-11.8 4.488-16.3 0L2.3 129.444 69 78.574a9.19 9.19 0 0 1 13 0l41.9 41.793c4.5 4.389 4.5 11.67 0 16.158z" fill="#A4DF9F"/><path d="M58.3 177.52c-1.2-.2-2.3-.699-3.2-1.397-.2-.199-.3-.499-.1-.798.2-.199.5-.299.8-.1.8.599 1.7.998 2.7 1.197.3.1.5.3.4.599-.1.299-.3.499-.6.499zm5.1-1.098c-.2 0-.3-.099-.4-.199-.2-.2-.1-.599.1-.798.3-.2.5-.399.7-.599l1.8-1.296c.2-.2.6-.1.8.1.2.199.1.598-.1.798l-1.8 1.296c-.2.2-.5.499-.8.698-.1-.099-.2 0-.3 0zm-11.8-3.89c-.1 0-.3-.099-.4-.199l-2.3-2.294c-.2-.2-.2-.599 0-.798.2-.2.6-.2.8 0l2.3 2.394c.2.199.2.598 0 .798-.1.099-.2.099-.4.099zm18.7-1.197c-.2 0-.3-.099-.4-.199-.2-.199-.1-.598.1-.798l2.6-1.895c.2-.2.6-.1.8.1.2.199.1.598-.1.798l-2.6 1.895c-.2.1-.3.099-.4.099zm-24.7-4.787c-.1 0-.3-.1-.4-.2l-2.3-2.294c-.2-.199-.2-.598 0-.798.2-.199.6-.199.8 0l2.3 2.294c.2.2.2.599 0 .798-.1.1-.3.2-.4.2zm31.6-.2c-.2 0-.3-.099-.4-.199-.2-.2-.1-.599.1-.798l2.6-1.895c.2-.2.6-.1.8.1.2.199.1.598-.1.798l-2.6 1.895c-.2 0-.3.099-.4.099zm6.9-4.987c-.2 0-.3-.1-.4-.199-.2-.2-.1-.599.1-.798l2.6-1.895c.2-.2.6-.1.8.099.2.2.1.599-.1.798l-2.6 1.896c-.2 0-.3.099-.4.099zm-44.5-.897c-.1 0-.3-.1-.4-.2l-2.3-2.294c-.2-.199-.2-.598 0-.798.2-.199.6-.199.8 0l2.3 2.294c.2.2.2.599 0 .798-.2.2-.3.2-.4.2zm51.4-4.09c-.2 0-.3-.1-.4-.199-.2-.2-.1-.599.1-.798l2.6-1.895c.2-.2.6-.1.8.099.2.2.1.599-.1.798l-2.6 1.895c-.2 0-.3.1-.4.1zm-57.5-1.895c-.1 0-.3-.1-.4-.199l-2.3-2.295c-.2-.199-.2-.598 0-.798.2-.199.6-.199.8 0l2.3 2.295c.2.199.2.598 0 .798-.1.099-.2.199-.4.199zm64.4-3.192c-.2 0-.3-.1-.4-.199-.2-.2-.1-.599.1-.798l2.601-1.895c.2-.2.6-.1.8.099.2.2.1.599-.1.798l-2.6 1.895c-.2.1-.3.1-.4.1zm-70.4-2.793c-.1 0-.3-.099-.4-.199l-2.3-2.294c-.2-.2-.2-.599 0-.798.2-.2.6-.2.8 0l2.3 2.294c.2.2.2.598 0 .798-.1.1-.3.199-.4.199zm77.301-2.194c-.2 0-.3-.1-.4-.199-.2-.2-.1-.599.1-.798l2.6-1.895c.2-.2.6-.1.8.099.2.2.1.599-.1.798l-2.6 1.895c-.1.1-.3.1-.4.1zm-83.4-3.89c-.1 0-.3-.1-.4-.199l-2.3-2.294c-.2-.2-.2-.599 0-.798.2-.2.6-.2.8 0l2.3 2.294c.2.199.2.598 0 .798-.1.199-.2.199-.4.199zm90.3-1.097c-.2 0-.3-.1-.4-.2-.2-.199-.1-.598.1-.797l2.6-1.896c.2-.199.6-.099.8.1.2.2.1.599-.1.798l-2.6 1.895c-.1.1-.2.1-.4.1zm-96.3-4.887c-.1 0-.3-.1-.4-.2l-1.2-1.197c-.4-.399-.7-.798-1-1.197-.2-.299-.1-.598.2-.798.3-.199.6-.099.8.2.2.399.5.698.8.997l1.2 1.197c.2.2.2.599 0 .798-.1.1-.2.2-.4.2zm103.3-.1c-.2 0-.3-.1-.4-.2-.2-.199-.1-.598.1-.798l2.6-1.895.2.3.2.099.4.399-.1.1-2.6 1.895c-.2.1-.3.1-.4.1zm4.5-6.783c-.3 0-.5-.199-.6-.498 0-.998-.3-1.895-.8-2.793-.2-.299-.1-.599.2-.798.3-.2.6-.1.8.199.6.998.9 2.095.9 3.292 0 .399-.2.598-.5.598zm-110.8-.598h-.1c-.3-.1-.5-.399-.4-.698.3-1.097.8-2.195 1.6-2.993.2-.199.6-.199.8 0 .2.2.2.599 0 .798-.7.699-1.1 1.596-1.4 2.594 0 .099-.2.299-.5.299zm5.7-6.084c-.2 0-.3-.1-.4-.2-.2-.199-.1-.598.1-.798l2.5-1.895c.2-.199.6-.1.8.1.2.199.1.598-.1.798l-2.6 1.895c-.1.1-.2.1-.3.1zm100.6-.3c-.1 0-.3-.099-.4-.199l-2.3-2.294c-.2-.2-.2-.599 0-.798.2-.2.6-.2.8 0l2.3 2.294c.2.199.2.598 0 .798-.1.199-.2.199-.4.199zm-93.8-4.887c-.2 0-.3-.1-.4-.2-.2-.199-.1-.598.1-.797l2.5-1.896c.2-.199.6-.099.8.1.2.2.1.599-.1.798l-2.5 1.895c-.2.1-.3.1-.4.1zm87.8-1.097c-.1 0-.3-.1-.4-.2l-2.3-2.294c-.2-.199-.2-.598 0-.798.2-.199.6-.199.8 0l2.3 2.294c.2.2.2.599 0 .798-.1.2-.3.2-.4.2zm-81-4.09c-.2 0-.3-.099-.4-.199-.2-.2-.1-.599.1-.798l2.5-1.895c.2-.2.6-.1.8.1.2.199.1.598-.1.798l-2.6 1.895c-.1.099-.2.099-.3.099zm75-1.895c-.1 0-.3-.099-.4-.199l-2.3-2.294c-.2-.2-.2-.599 0-.798.2-.2.6-.2.8 0l2.3 2.294c.2.199.2.598 0 .798-.2.1-.3.199-.4.199zm-68.2-3.192c-.2 0-.3-.099-.4-.199-.2-.199-.1-.598.1-.798l2.5-1.895c.2-.2.6-.1.8.1.2.199.1.598-.1.798l-2.5 1.895c-.2 0-.3.099-.4.099zm62.1-2.892c-.1 0-.3-.1-.4-.2l-2.2-2.194c-.2-.199-.2-.598 0-.798.2-.199.6-.199.8 0l2.3 2.294c.2.2.2.599 0 .798-.2.1-.3.1-.5.1zm-55.3-2.294c-.2 0-.3-.1-.4-.2-.2-.199-.1-.598.1-.798l2.5-1.895c.2-.2.6-.1.8.1.2.2.1.599-.1.798l-2.5 1.895c-.2.1-.3.1-.4.1zm49.3-3.69c-.1 0-.3-.1-.4-.2l-2.3-2.294c-.2-.2-.2-.599 0-.798.2-.2.6-.2.8 0l2.3 2.294c.2.2.2.598 0 .798-.1.1-.3.2-.4.2zm-42.5-1.497c-.2 0-.3-.1-.4-.2-.2-.199-.1-.598.1-.797l2.5-1.895c.2-.2.6-.1.8.1.2.199.1.598-.1.797l-2.5 1.895c-.2.1-.3.1-.4.1zm36.4-4.488c-.1 0-.3-.1-.4-.2l-2.3-2.294c-.2-.2-.2-.598 0-.798.2-.2.6-.2.8 0l2.3 2.294c.2.2.2.599 0 .798-.1.1-.2.2-.4.2zm-29.6-.698c-.2 0-.3-.1-.4-.2-.2-.2-.1-.598.1-.798l2.5-1.895c.2-.2.6-.1.8.1.2.2.1.598-.1.798l-2.5 1.895c-.2.1-.3.1-.4.1zm6.8-5.087c-.2 0-.3-.1-.4-.2-.2-.2-.1-.598.1-.798l2.5-1.895c.2-.2.6-.1.8.1.2.2.1.598-.1.798L66 86.654c-.1 0-.2.1-.3.1zm16.8-.3c-.1 0-.3-.1-.4-.199l-2.3-2.294c-.2-.2-.2-.599 0-.798.2-.2.6-.2.8 0l2.3 2.294c.2.2.2.599 0 .798-.1.2-.3.2-.4.2zm-9.9-4.687c-.2 0-.4-.1-.5-.4-.1-.299.1-.598.3-.698 1.1-.398 2.3-.498 3.4-.299.3 0 .5.3.5.599s-.3.498-.6.498c-1-.2-2-.1-2.9.3h-.2z" fill="#C68A52"/><path d="M137.4 95.432c5.1 3.39 10.4 4.488 12.1 1.895 0-.1.8-1.297.9-1.297 1.5-2.593-2-6.084-7-9.475-4.9-3.192-9.5-4.888-11.5-2.793-.1.1-.8 1.197-.9 1.296-1.7 2.594 1.3 6.982 6.4 10.374z" fill="#E2A700"/><path d="M150.414 96.059c1.441-2.153-1.524-6.651-6.622-10.046-5.099-3.395-10.401-4.401-11.842-2.248-1.441 2.153 1.524 6.651 6.623 10.046 5.098 3.395 10.4 4.401 11.841 2.248z" fill="#FFBF40"/><path d="M146.9 96.33c-2.2 0-5.3-1.297-8-3.093-2-1.396-3.9-2.992-5-4.488-1.3-1.795-1.7-3.192-1-4.289.7-.997 2.2-1.197 4.3-.698 1.8.498 4.1 1.496 6.1 2.892 2.1 1.397 3.8 2.993 4.9 4.489 1.3 1.695 1.6 3.192.9 4.189-.3.698-1.2.997-2.2.997zm-7.4-3.89c4 2.593 8.1 3.69 9 2.393.4-.598.1-1.795-.9-3.092-1-1.396-2.8-2.992-4.7-4.289-2-1.296-4.1-2.294-5.8-2.793-1.7-.399-2.9-.299-3.3.3-.4.598-.1 1.795 1 3.191 1 1.397 2.7 2.993 4.7 4.29z" fill="#FFDF67"/><path d="M67.7 53.54c6.517 0 11.8-5.27 11.8-11.77S74.217 30 67.7 30s-11.8 5.27-11.8 11.77 5.283 11.77 11.8 11.77z" fill="#FFBF40"/><path d="M67.7 51.744c-5.6 0-10.1-4.489-10.1-10.074a10.06 10.06 0 0 1 10.1-10.074c5.6 0 10.1 4.488 10.1 10.074 0 2.693-1 5.186-3 7.081-1.9 1.995-4.4 2.993-7.1 2.993zm0-18.552c-4.7 0-8.6 3.79-8.6 8.577 0 2.294.9 4.39 2.5 6.085a8.578 8.578 0 0 0 6 2.493c2.3 0 4.4-.897 6.1-2.493a8.59 8.59 0 0 0 2.5-6.085c0-4.787-3.8-8.577-8.5-8.577z" fill="#FFDF67"/></g><defs><clipPath id="jclip0"><path fill="#fff" transform="translate(0 30)" d="M0 0h150.8v155H0z"/></clipPath></defs></svg><svg fill="none" viewBox="0 0 163 185" id="8" xmlns="http://www.w3.org/2000/svg"><path d="M133.067 56.546c15.312 8.455 27.617 26.796 29.633 47.115 2.017 20.318-6.254 42.682-21.567 58.705-15.312 16.023-37.734 25.705-56.123 21.75-18.423-3.988-32.847-21.648-48.501-37.671C20.855 130.422 3.936 116.036.62 98.342c-3.315-17.659 7.007-38.625 22.662-47.114 15.688-8.455 36.708-4.432 56.396-3.102 19.687 1.33 38.076-.034 53.389 8.42z" fill="#D8FFC5"/><path d="M53.847 58.606S34.283 74.623 42.18 88.698c7.899 14.197 12.88 2.67 12.88 2.67s5.833 2.305-1.822-15.046c-3.524-8.13.608-17.716.608-17.716zM83.739 30.941s-27.584 12.741-22.723 31.67c4.86 18.929 14.217 6.916 14.217 6.916s6.197 4.368 2.43-18.08C75.962 40.77 83.74 30.942 83.74 30.942z" fill="#BBD070"/><path d="M94.676 35.188s8.506-24.874-7.656-32.519c-16.283-7.765-30.014 3.398-32.565 9.465-2.552 6.067-1.945 16.987.364 24.632 2.187 7.644 1.944 19.293-2.916 23.175-4.86 3.883-10.815 10.314-10.45 23.54.242 8.13 32.2-20.87 32.2-20.87l21.023-27.423z" fill="#323657"/><path d="M71.952 64.674s-13.366 2.912-18.591 6.066c-5.225 3.034-17.012 17.23-17.012 23.297s51.279 11.77 51.279 11.77l9.72 35.431s25.883-6.309 29.042-11.527c3.038-5.217-9.842-42.833-12.029-50.356-2.309-7.765-11.544-13.104-22.359-14.681-10.815-1.457-20.05 0-20.05 0z" fill="#FB8982"/><path d="M91.03 64.552s-.243 16.138-13.124 16.623C65.026 81.661 67.7 65.644 67.7 65.644s9.357-3.64 23.33-1.092z" fill="#EEA886"/><path d="M96.377 15.896s4.496 25.966-8.385 44.774c-13.366 19.414 8.385-44.775 8.385-44.775z" fill="#323657"/><path d="M88.235 53.147s-.85 7.765.608 12.497c1.458 4.854-19.564 4.975-19.564.971 0-4.49 2.187-8.25.121-15.895-2.065-7.645 18.835 2.427 18.835 2.427z" fill="#EEA886"/><path d="M71.83 54.117s6.684 6.916 15.19.728c0 0-.73 4.49-6.805 4.975-6.076.607-8.384-5.703-8.384-5.703z" fill="#A77860"/><path d="M80.215 6.916s16.89 4.975 14.46 28.272c-2.43 23.297-13.366 22.084-14.46 22.327-.972.12-14.096.97-18.227-27.302C57.856 1.941 80.215 6.916 80.215 6.916z" fill="#EEA886"/><path d="M75.84 17.23s9.114 14.56 18.835 17.958c0 0 5.225-24.389-16.404-29.485C56.52.607 59.922 30.335 61.502 38.222c0 0 4.496-11.649 14.339-20.992z" fill="#323657"/><path d="M63.568 15.046s4.86-9.344 13.002-9.708c8.141-.364 13.002 6.674 13.002 6.674s-3.16-7.887-13.002-7.887c-9.843-.121-13.002 10.92-13.002 10.92z" fill="#94E5BB"/><path d="M96.741 88.335l5.711 53.025H27.235l-5.711-53.025H96.74z" fill="#FCC785"/><path d="M108.407 136.628H95.891v4.732h12.516v-4.732z" fill="#FCC785"/><path d="M63.2 120.858c2.565-.523 4.1-3.608 3.427-6.891-.671-3.283-3.295-5.521-5.86-4.997-2.564.523-4.098 3.608-3.426 6.891.672 3.283 3.295 5.521 5.86 4.997z" fill="#E0AE4B"/><path d="M140 141.359H18V145h122v-3.641z" fill="#DA9D65"/></svg><svg fill="none" viewBox="0 0 159 185" id="9" xmlns="http://www.w3.org/2000/svg"><path d="M4.769 177.608c-9.345-12.293-2.235-41.728-1.32-70.161.917-28.432-4.433-55.86 4.911-75.763C17.705 11.74 41.745-.72 65.09.032c23.38.711 46.101 14.676 58.047 34.62 11.984 19.903 13.23 45.827 7.733 65.478-5.497 19.694-17.7 33.074-29.647 45.325-11.984 12.292-23.71 23.414-42.51 31.442-18.8 8.028-44.6 12.962-53.944.711z" fill="#FFF4B8"/><g clip-path="url(#lclip0)"><path d="M126.851 156.657l-98.669-31.475c-5.472-1.72-8.38-7.568-6.67-12.9l18.47-58.822c1.71-5.504 7.523-8.427 12.825-6.708l98.669 31.475c5.472 1.72 8.379 7.568 6.669 12.9l-18.469 58.822c-1.71 5.332-7.524 8.428-12.825 6.708z" fill="#76B695"/><path d="M127.193 154.248l-98.669-31.475c-5.472-1.72-8.379-7.567-6.669-12.899l18.469-58.65c1.71-5.504 7.524-8.428 12.825-6.708l98.669 31.475c5.472 1.72 8.379 7.568 6.669 12.9l-18.468 58.65c-1.71 5.503-7.353 8.427-12.826 6.707z" fill="#94E5BB"/><path d="M38.4 57.254l-5.634 17.87 118.176 37.696 5.634-17.87L38.401 57.254z" fill="#FF9078"/><path d="M57.594 111.422l-19.836-6.364c-1.54-.516-2.223-2.064-1.881-3.44l3.42-11.007c.513-1.548 2.052-2.236 3.42-1.892l14.877 4.816c.684.172 1.197.688 1.54 1.375l3.42 6.536c.341.688.341 1.376.17 2.236l-1.88 6.02c-.172 1.376-1.882 2.236-3.25 1.72z" fill="#FFBF40"/><path d="M137.536 119.826l-49.878-15.91-1.293 4.099 49.879 15.91 1.292-4.099zM134.142 130.863l-49.878-15.91-1.292 4.099 49.878 15.91 1.292-4.099z" fill="#EFF3F4"/></g><defs><clipPath id="lclip0"><path fill="#fff" transform="translate(21 44)" d="M0 0h138v113H0z"/></clipPath></defs></svg></svg>