<svg width="81" height="110" viewBox="0 0 81 110" fill="none" xmlns="http://www.w3.org/2000/svg">
<path fill-rule="evenodd" clip-rule="evenodd" d="M15.4103 19.3564C7.15423 28.478 1.93098 41.743 1.93098 56.6003C1.93098 71.4576 7.15423 84.7226 15.4257 93.8596H0.000976562V19.3564H15.4103ZM31.509 85.0318V28.7718H40.9139V51.5448H41.9402C56.6756 50.1534 68.3628 36.3319 68.9295 19.3564H35.2311C21.5373 23.1906 11.244 38.4035 11.244 56.6003C11.244 74.7971 21.5833 90.1337 35.3077 93.8596H68.9295C68.2249 77.0234 56.5684 63.3874 41.9249 61.9186H40.9139V85.0318H31.509ZM80.5249 93.8442H77.9975C77.4614 77.8273 69.3584 63.9439 57.6406 56.7394C69.435 49.4731 77.5686 35.5588 77.9975 19.3564H80.5402L80.5249 93.8442Z" fill="#00963F"/>
<path fill-rule="evenodd" clip-rule="evenodd" d="M3.18766 4.63809H2.31457L0.981947 2.73647V4.63809H0.277344V0.912157H0.981947V2.45819L2.28393 0.912157H3.06512L1.53338 2.59733L3.18766 4.63809ZM5.99076 2.00984C5.99447 2.14928 5.97065 2.28808 5.92068 2.41814C5.87072 2.5482 5.7956 2.66692 5.69973 2.76739C5.57055 2.88218 5.4201 2.96997 5.25709 3.0257C5.09408 3.08143 4.92174 3.10398 4.75004 3.09206H4.30584V4.63809H3.60123V0.912157H4.71941C5.0613 0.886047 5.40039 0.99093 5.66909 1.2059C5.7779 1.30785 5.86313 1.43273 5.91873 1.57167C5.97432 1.71062 5.99892 1.86022 5.99076 2.00984ZM5.25552 2.00984C5.26388 1.94628 5.25863 1.88164 5.24014 1.8203C5.22164 1.75896 5.19032 1.70234 5.1483 1.65425C5.01488 1.55926 4.85006 1.52044 4.68877 1.54603H4.30584V2.52003H4.67346C4.83925 2.5382 5.00632 2.50012 5.1483 2.41181C5.23087 2.3071 5.26937 2.17385 5.25552 2.04076V2.00984ZM8.68663 4.63809H6.58814V0.912157H8.68663V1.54603H7.29274V2.31904H8.53346V2.922H7.29274V3.94237H8.68663V4.63809ZM12.7151 5.34926H12.0105V4.63809H9.9733V5.34926H9.26869V3.95784C9.48314 3.95784 9.621 3.91145 9.68227 3.81869C9.78147 3.64004 9.82422 3.43506 9.8048 3.2312V0.912157H12.3475V4.00422H12.7151V5.3338V5.34926ZM11.6276 4.01968V1.54603H10.5094V3.3085C10.5078 3.53217 10.4609 3.75315 10.3716 3.95784L11.6276 4.01968ZM16.2228 4.63809H15.5182V2.30358L13.2206 4.74631V0.912157H13.9252V3.16936L16.2075 0.726634V4.63809H16.2228ZM19.1485 1.54603H18.26V4.63809H17.5554V1.54603H16.6517V0.912157H19.1485V1.54603ZM22.5796 4.63809H21.8596V2.922H20.3279V4.63809H19.608V0.912157H20.3279V2.30358H21.8596V0.912157H22.5796V4.63809ZM26.6234 4.63809H25.9188V0.912157H26.6234V4.63809ZM25.5665 3.46311C25.573 3.6135 25.5491 3.76365 25.4965 3.90449C25.4438 4.04533 25.3634 4.17393 25.2601 4.2825C24.9567 4.53824 24.567 4.66565 24.1726 4.63809H23.1616V0.912157H23.8816V2.2572H24.1726C24.5601 2.22553 24.946 2.33525 25.2601 2.56641C25.3669 2.67568 25.4495 2.80663 25.5023 2.95057C25.5551 3.09451 25.577 3.24814 25.5665 3.40126V3.46311ZM24.8159 3.46311C24.8229 3.39004 24.8143 3.3163 24.7905 3.24693C24.7667 3.17756 24.7283 3.11418 24.6781 3.06114C24.5263 2.9539 24.3417 2.90458 24.1573 2.922H23.8816V4.01968H24.1573C24.3395 4.03554 24.522 3.99221 24.6781 3.89599C24.7284 3.8367 24.7665 3.76788 24.7902 3.69356C24.8138 3.61923 24.8226 3.54089 24.8159 3.46311ZM29.5184 0C29.5226 0.0972936 29.504 0.194215 29.464 0.282872C29.4241 0.371529 29.364 0.449416 29.2886 0.51019C29.1365 0.632666 28.9471 0.698218 28.7525 0.695713C28.5529 0.70053 28.3579 0.63492 28.2011 0.51019C28.1257 0.449416 28.0656 0.371529 28.0257 0.282872C27.9857 0.194215 27.9671 0.0972936 27.9713 0L28.4921 0C28.487 0.0357181 28.4902 0.0721539 28.5014 0.106408C28.5127 0.140661 28.5317 0.171788 28.557 0.197309C28.5823 0.222831 28.6131 0.242043 28.6471 0.253417C28.681 0.26479 28.7171 0.268012 28.7525 0.262825C28.921 0.262825 28.9976 0.170063 28.9976 0H29.5184ZM30.223 4.63809H29.5031V2.30358L27.2208 4.74631V0.912157H27.9407V3.16936L30.223 0.726634V4.63809ZM35.2318 4.63809H34.5119V1.54603H32.9801V4.63809H32.2755V0.912157H35.2318V4.63809ZM39.7351 2.79831C39.7394 3.05695 39.6913 3.31375 39.5939 3.553C39.4964 3.79225 39.3516 4.00891 39.1684 4.18974C38.8976 4.46252 38.5525 4.6479 38.1771 4.72233C37.8016 4.79677 37.4128 4.75689 37.0598 4.60778C36.7069 4.45866 36.4058 4.20703 36.1949 3.88485C35.984 3.56267 35.8727 3.18448 35.8751 2.79831C35.8664 2.54276 35.9109 2.28821 36.0059 2.05117C36.1009 1.81412 36.2442 1.59989 36.4266 1.42235C36.7948 1.0643 37.2862 0.864259 37.7975 0.864259C38.3088 0.864259 38.8002 1.0643 39.1684 1.42235C39.3527 1.59912 39.4983 1.81285 39.596 2.04982C39.6936 2.28679 39.741 2.54175 39.7351 2.79831ZM38.9693 2.79831C38.9866 2.45852 38.8711 2.12543 38.6476 1.8707C38.5405 1.75414 38.4098 1.6621 38.2645 1.60076C38.1192 1.53943 37.9626 1.51022 37.8051 1.51511C37.6454 1.51 37.4864 1.53903 37.3386 1.60032C37.1907 1.6616 37.0574 1.75374 36.9473 1.8707C36.7239 2.12543 36.6084 2.45852 36.6257 2.79831C36.6084 3.13811 36.7239 3.47119 36.9473 3.72593C37.0585 3.83952 37.1908 3.92971 37.3368 3.99126C37.4827 4.05281 37.6393 4.08451 37.7975 4.08451C37.9556 4.08451 38.1122 4.05281 38.2581 3.99126C38.4041 3.92971 38.5364 3.83952 38.6476 3.72593C38.8711 3.47119 38.9866 3.13811 38.9693 2.79831ZM42.4463 1.54603H41.5579V4.63809H40.838V1.54603H39.9496V0.912157H42.4463V1.54603ZM45.2954 2.00984C45.3027 2.14971 45.2806 2.28956 45.2304 2.42016C45.1803 2.55075 45.1032 2.66911 45.0043 2.76739C44.8764 2.88493 44.7265 2.97555 44.5634 3.03395C44.4004 3.09235 44.2274 3.11736 44.0546 3.10752H43.6104V4.63809H42.8905V0.912157H44.024C44.3657 0.887566 44.7043 0.992284 44.9737 1.2059C45.0773 1.31105 45.1581 1.43685 45.2108 1.57528C45.2636 1.7137 45.2872 1.8617 45.28 2.00984H45.2954ZM44.5754 2.00984C44.5779 1.94278 44.5654 1.87601 44.5389 1.81447C44.5124 1.75292 44.4725 1.69817 44.4223 1.65425C44.3037 1.5651 44.1553 1.52627 44.0087 1.54603H43.6104V2.52003H43.9934C44.1545 2.54102 44.3177 2.50259 44.4529 2.41181C44.4965 2.36113 44.5298 2.30228 44.5508 2.23861C44.5718 2.17493 44.5802 2.1077 44.5754 2.04076V2.00984ZM47.9912 4.63809H45.954V0.912157H48.0525V1.54603H46.6739V2.31904H47.8993V2.922H46.6739V3.94237H48.0525V4.63809H47.9912ZM51.0547 3.46311C51.0601 3.61609 51.0328 3.76845 50.9746 3.90984C50.9165 4.05123 50.8289 4.17832 50.7177 4.2825C50.4613 4.51472 50.1279 4.64158 49.7834 4.63809H48.7112V0.912157H50.9169V1.54603H49.3851V2.24174H49.7527C50.105 2.22787 50.4513 2.33708 50.7331 2.55095C50.8519 2.65637 50.9454 2.78773 51.0065 2.93506C51.0675 3.0824 51.0945 3.24183 51.0854 3.40126L51.0547 3.46311ZM50.3348 3.46311C50.3348 3.09206 50.1204 2.90654 49.6915 2.90654H49.3545V4.01968H49.6915C49.8687 4.03329 50.0456 3.99 50.197 3.89599C50.2473 3.8367 50.2854 3.76788 50.3091 3.69356C50.3327 3.61923 50.3415 3.54089 50.3348 3.46311ZM54.7462 4.63809H54.0416V2.30358L51.7593 4.74631V0.912157H52.4639V3.16936L54.7462 0.726634V4.63809ZM57.6872 1.54603H56.7988V4.63809H56.0942V1.54603H55.1445V0.912157H57.6412V1.54603H57.6872ZM60.2299 4.63809H58.208V0.912157H60.3065V1.54603H58.9279V2.31904H60.1533V2.922H58.9279V3.94237H60.3065V4.63809H60.2299ZM63.8295 4.63809H63.1249V1.54603H62.0833V3.40126C62.1037 3.73801 62.035 4.07417 61.8842 4.37526C61.8082 4.46279 61.7137 4.53188 61.6076 4.57738C61.5015 4.62289 61.3866 4.64364 61.2715 4.63809C61.1449 4.66128 61.0151 4.66128 60.8885 4.63809V3.94237C60.981 3.99946 61.0866 4.03142 61.1949 4.03514C61.2142 4.02322 61.2309 4.00749 61.2441 3.9889C61.2573 3.9703 61.2666 3.94922 61.2715 3.92691C61.3067 3.7379 61.3067 3.5439 61.2715 3.35488V0.912157H63.707V4.63809H63.8295ZM66.893 3.46311C66.9023 3.61379 66.8798 3.76475 66.827 3.906C66.7741 4.04725 66.6922 4.17558 66.5866 4.2825C66.2832 4.53824 65.8935 4.66565 65.4991 4.63809H64.4728V0.912157H65.1774V2.2572H65.4991C65.8874 2.21663 66.2764 2.32723 66.5866 2.56641C66.696 2.67383 66.7802 2.8045 66.8332 2.94892C66.8862 3.09334 66.9066 3.24787 66.893 3.40126V3.46311ZM66.1577 3.46311C66.1663 3.3886 66.1569 3.3131 66.1302 3.24309C66.1035 3.17308 66.0604 3.11064 66.0046 3.06114C65.8534 2.95263 65.6683 2.90319 65.4838 2.922H65.1774V4.01968H65.4838C65.6708 4.03465 65.8579 3.99148 66.0199 3.89599C66.0702 3.8367 66.1083 3.76788 66.132 3.69356C66.1557 3.61923 66.1644 3.54089 66.1577 3.46311ZM70.2628 4.51441C69.9388 4.67422 69.5818 4.75372 69.2212 4.74631C68.9641 4.75742 68.7077 4.71202 68.4697 4.61325C68.2316 4.51448 68.0177 4.36471 67.8427 4.17428C67.6668 3.99268 67.5288 3.77736 67.4367 3.54104C67.3446 3.30472 67.3004 3.05218 67.3065 2.79831C67.2892 2.54249 67.3237 2.28579 67.408 2.0439C67.4923 1.802 67.6245 1.57999 67.7967 1.39143C67.9727 1.19699 68.1886 1.04369 68.4293 0.942213C68.6701 0.84074 68.9299 0.793548 69.1906 0.803935C69.5444 0.797467 69.8952 0.871442 70.2169 1.02038V1.80885C69.9189 1.58704 69.5607 1.46291 69.1906 1.45327C69.0344 1.45154 68.8797 1.48378 68.737 1.54781C68.5942 1.61184 68.4669 1.70614 68.3635 1.82431C68.1326 2.07034 68.0062 2.39767 68.0112 2.73647C67.9971 3.0758 68.1122 3.4077 68.3328 3.66409C68.4429 3.78104 68.5762 3.87319 68.724 3.93447C68.8719 3.99575 69.0309 4.02479 69.1906 4.01968C69.5603 4.00808 69.918 3.88415 70.2169 3.66409V4.45257L70.2628 4.51441ZM73.7858 4.63809H72.8974L71.5342 2.73647V4.63809H70.8143V0.912157H71.5342V2.45819L72.8208 0.912157H73.648L72.1162 2.59733L73.648 4.57625L73.7858 4.63809ZM77.171 4.63809H76.4511V2.30358L74.1228 4.74631V0.912157H74.8428V3.16936L77.125 0.726634V4.63809H77.171ZM80.2345 0C80.2387 0.0972936 80.2201 0.194215 80.1802 0.282872C80.1402 0.371529 80.0801 0.449416 80.0047 0.51019C79.8479 0.63492 79.6529 0.70053 79.4533 0.695713C79.2583 0.700884 79.068 0.635027 78.9172 0.51019C78.8446 0.447847 78.7874 0.369267 78.7502 0.280698C78.713 0.19213 78.6967 0.096016 78.7028 0L79.2235 0C79.2235 0.170063 79.3001 0.262825 79.4686 0.262825C79.504 0.268012 79.5401 0.26479 79.574 0.253417C79.608 0.242043 79.6388 0.222831 79.6641 0.197309C79.6894 0.171788 79.7084 0.140661 79.7197 0.106408C79.731 0.0721539 79.7342 0.0357181 79.729 0L80.2345 0ZM80.9391 4.63809H80.2192V2.30358L77.9522 4.74631V0.912157H78.6721V3.16936L80.9544 0.726634V4.63809H80.9391ZM3.18766 10.1574H2.31457L0.981947 8.3331V10.1574H0.277344V6.49332H0.981947V8.03935L2.28393 6.49332H3.06512L1.53338 8.1785L3.06512 10.1574H3.18766ZM7.96671 8.3331C7.97358 8.58841 7.92815 8.8424 7.83327 9.07917C7.73838 9.31593 7.59608 9.53038 7.41528 9.70907C7.23537 9.89199 7.02022 10.0357 6.78311 10.1315C6.54601 10.2272 6.29198 10.2729 6.03671 10.2656C5.78388 10.2716 5.5325 10.2254 5.29805 10.1297C5.0636 10.0339 4.85104 9.89081 4.67346 9.70907C4.48758 9.5335 4.3409 9.31998 4.24318 9.08272C4.14546 8.84547 4.09893 8.58992 4.10671 8.3331C4.09871 8.07396 4.14506 7.81604 4.24273 7.57624C4.3404 7.33645 4.48718 7.1202 4.67346 6.94167C4.85104 6.75993 5.0636 6.6168 5.29805 6.52108C5.5325 6.42536 5.78388 6.37909 6.03671 6.3851C6.29188 6.37874 6.54567 6.42478 6.78268 6.52042C7.01969 6.61607 7.23497 6.75932 7.41546 6.94149C7.59595 7.12366 7.73788 7.34095 7.83264 7.58017C7.9274 7.81939 7.97301 8.07555 7.96671 8.3331ZM7.20084 8.3331C7.21424 7.9892 7.09947 7.65271 6.87917 7.39002C6.77129 7.27545 6.64016 7.18575 6.49476 7.12704C6.34936 7.06834 6.19312 7.04202 6.03671 7.04989C5.8803 7.04202 5.72406 7.06834 5.57866 7.12704C5.43326 7.18575 5.30213 7.27545 5.19425 7.39002C4.97395 7.65271 4.85918 7.9892 4.87258 8.3331C4.86154 8.67196 4.97626 9.00277 5.19425 9.26072C5.30137 9.37727 5.43199 9.46931 5.5773 9.53065C5.72262 9.59199 5.87927 9.62119 6.03671 9.6163C6.193 9.62316 6.34895 9.59638 6.4942 9.53774C6.63945 9.4791 6.77068 9.38994 6.87917 9.27618C7.09716 9.01823 7.21187 8.68742 7.20084 8.34856V8.3331ZM13.435 8.3331C13.4351 8.58819 13.385 8.84076 13.2878 9.07624C13.1907 9.31172 13.0483 9.52545 12.8688 9.7051C12.6894 9.88476 12.4765 10.0268 12.2425 10.123C12.0084 10.2192 11.7578 10.2677 11.505 10.2656C11.2498 10.2729 10.9957 10.2272 10.7586 10.1315C10.5215 10.0357 10.3064 9.89199 10.1265 9.70907C9.94567 9.53038 9.80337 9.31593 9.70849 9.07917C9.6136 8.8424 9.56817 8.58841 9.57504 8.3331C9.57504 7.81646 9.77838 7.32098 10.1403 6.95566C10.5023 6.59034 10.9932 6.3851 11.505 6.3851C12.0169 6.3851 12.5078 6.59034 12.8698 6.95566C13.2317 7.32098 13.435 7.81646 13.435 8.3331ZM12.6692 8.3331C12.6826 7.9892 12.5678 7.65271 12.3475 7.39002C12.239 7.27626 12.1078 7.1871 11.9625 7.12846C11.8173 7.06982 11.6613 7.04304 11.505 7.04989C11.2104 7.05495 10.9297 7.17718 10.7239 7.39002C10.5035 7.65271 10.3888 7.9892 10.4022 8.3331C10.3873 8.67722 10.5022 9.01425 10.7239 9.27618C10.9447 9.48263 11.2346 9.59732 11.5357 9.59732C11.8367 9.59732 12.1266 9.48263 12.3475 9.27618C12.5655 9.01823 12.6802 8.68742 12.6692 8.34856V8.3331ZM18.1375 10.1574H17.4176V7.06535H15.8858V10.1574H15.2272V6.49332H18.1375V10.1574ZM21.9822 10.1574H19.9143V6.49332H21.9975V7.1272H20.6189V7.90021H21.8443V8.50316H20.6189V9.52354H21.9975V10.1574H21.9822ZM26.2558 7.591C26.2634 7.73322 26.2414 7.87547 26.1913 8.0086C26.1412 8.14174 26.064 8.2628 25.9647 8.36402C25.8365 8.48029 25.6862 8.56903 25.5229 8.62484C25.3597 8.68065 25.1869 8.70237 25.015 8.68869H24.5862V10.2347H23.8662V6.49332H24.9997C25.3436 6.47155 25.6829 6.58202 25.9494 6.80253C26.056 6.9022 26.1389 7.02487 26.1919 7.1614C26.245 7.29793 26.2668 7.44478 26.2558 7.591ZM25.5358 7.591C25.5432 7.52747 25.5375 7.46309 25.5191 7.4019C25.5006 7.3407 25.4698 7.28402 25.4286 7.23542C25.2997 7.12948 25.1345 7.07945 24.9691 7.09628H24.5862V8.08573H24.9538C25.1214 8.10057 25.289 8.05691 25.4286 7.96205C25.4719 7.91162 25.5038 7.85237 25.5223 7.78834C25.5408 7.72431 25.5455 7.657 25.5358 7.591ZM30.6366 10.1574H29.886L29.5337 9.35348H28.1092L27.7416 10.1574H27.0063L28.8138 6.32326L30.6366 10.1574ZM29.2733 8.76599L28.7831 7.73015L28.3236 8.78145L29.2733 8.76599ZM34.1596 7.1272H33.2712V10.2193H32.5666V7.1272H31.6628V6.49332H34.1596V7.1272ZM38.7548 10.2193H38.0502V7.88475L35.7679 10.3429V6.49332H36.4878V8.76599L38.7548 6.32326V10.1574V10.2193ZM43.2581 9.10611C43.2639 9.24813 43.2411 9.38985 43.1911 9.52272C43.1411 9.65558 43.0649 9.77683 42.9671 9.87913C42.8327 10.001 42.6751 10.094 42.5039 10.1525C42.3328 10.2109 42.1516 10.2337 41.9715 10.2193H40.7461V6.49332H41.8336C42.6148 6.49332 42.9977 6.81799 42.9977 7.45186C43.0093 7.59124 42.9808 7.73102 42.9156 7.85442C42.8503 7.97783 42.7512 8.07962 42.6301 8.14758C42.8185 8.20565 42.9824 8.32523 43.096 8.48755C43.2097 8.64986 43.2667 8.84569 43.2581 9.04427V9.10611ZM42.2778 7.56008C42.2778 7.31272 42.1246 7.18904 41.803 7.18904H41.4507V7.97751H41.8949C42.1553 7.97751 42.2778 7.83837 42.2778 7.56008ZM42.5229 9.10611C42.533 9.03062 42.5257 8.95379 42.5016 8.88161C42.4775 8.80943 42.4371 8.74385 42.3838 8.68998C42.3304 8.63612 42.2654 8.59542 42.1939 8.57106C42.1224 8.5467 42.0463 8.53933 41.9715 8.54954H41.4507V9.60084H41.9102C42.3238 9.60084 42.5229 9.43078 42.5229 9.10611ZM50.6565 7.18904H49.523V10.2811H48.8031V6.49332H50.6565V7.1272V7.18904ZM54.7616 7.65285C54.7692 7.79506 54.7472 7.93731 54.6971 8.07044C54.647 8.20358 54.5698 8.32465 54.4705 8.42586C54.3413 8.54064 54.1909 8.62844 54.0279 8.68417C53.8649 8.73989 53.6925 8.76245 53.5208 8.75053H53.0766V10.2966H52.372V6.49332H53.5055C53.8444 6.47396 54.1781 6.58439 54.4399 6.80253C54.5484 6.90144 54.6335 7.02357 54.6892 7.16C54.7449 7.29642 54.7696 7.44369 54.7616 7.591V7.65285ZM54.0416 7.65285C54.047 7.58822 54.0388 7.52319 54.0177 7.46194C53.9966 7.40069 53.963 7.34459 53.9191 7.29726C53.8557 7.24406 53.7823 7.20431 53.7034 7.1804C53.6244 7.1565 53.5415 7.14891 53.4596 7.15812H53.0766V8.14758H53.4443C53.6121 8.16507 53.7806 8.12118 53.9191 8.02389C53.9651 7.97479 53.9998 7.91613 54.021 7.85204C54.0422 7.78795 54.0492 7.71997 54.0416 7.65285ZM59.0964 10.2193H58.3458L57.9935 9.41532H56.569L56.2167 10.2193H55.4662L57.2736 6.3851L59.0964 10.2193ZM57.7485 8.82783L57.2889 7.73015L56.8294 8.78145L57.7485 8.82783ZM65.6523 10.2193H64.8098L63.5997 8.39494V10.1574H62.8951V8.3331L61.685 10.1574H60.8426L62.2518 8.1785L60.8885 6.49332H61.7157L62.8951 8.03935V6.49332H63.5997V8.03935L64.7945 6.49332H65.6216L64.2431 8.1785L65.6523 10.1574V10.2193ZM70.8449 10.8222H70.1403V10.1574H68.1031V10.8222H67.3985V9.539C67.6129 9.539 67.7508 9.49262 67.812 9.39986C67.9112 9.22121 67.954 9.01623 67.9346 8.81237V6.49332H70.462V9.58538H70.8296V10.8222H70.8449ZM69.7573 9.47716V7.11174H68.6392V8.88967C68.6404 9.11364 68.5933 9.33519 68.5013 9.539L69.7573 9.47716ZM76.2213 10.0956H75.4708L75.0572 9.35348H73.6327L73.2804 10.1574H72.5298L74.3526 6.32326L76.16 10.1574L76.2213 10.0956ZM74.8734 8.70415L74.4139 7.73015L73.9543 8.78145L74.8734 8.70415ZM81.0004 10.0956H80.2804V8.50316H78.7487V10.1574H77.9675V6.49332H78.6874V7.88475H80.2192V6.49332H80.9391L81.0004 10.0956Z" fill="#1A1A18"/>
<path fill-rule="evenodd" clip-rule="evenodd" d="M4.59625 108.639C4.11925 108.874 3.59528 108.996 3.0645 108.995C2.6588 109.009 2.25455 108.938 1.87745 108.787C1.50034 108.635 1.15865 108.406 0.874103 108.113C0.310023 107.531 -0.00371819 106.748 0.00100815 105.934C-0.0095212 105.525 0.0625212 105.118 0.212749 104.738C0.362977 104.358 0.588247 104.013 0.874844 103.723C1.16144 103.434 1.50337 103.207 1.87981 103.055C2.25625 102.904 2.65933 102.831 3.0645 102.841C3.59414 102.835 4.11817 102.951 4.59625 103.182V104.418C4.14843 104.092 3.61626 103.904 3.0645 103.877C2.81946 103.872 2.57624 103.921 2.35151 104.02C2.12678 104.118 1.92586 104.265 1.76252 104.449C1.41257 104.848 1.21936 105.362 1.21936 105.895C1.21936 106.428 1.41257 106.942 1.76252 107.34C1.92922 107.529 2.13511 107.678 2.36547 107.777C2.59583 107.876 2.84499 107.922 3.09514 107.912C3.63117 107.878 4.14884 107.702 4.59625 107.402V108.639ZM10.2637 108.84H9.19148V105.253L5.59188 109.103V103.058H6.72537V106.676L10.3097 102.826V108.84H10.2637ZM15.0121 106.985C15.0195 107.225 14.9755 107.464 14.8829 107.686C14.7904 107.907 14.6516 108.106 14.476 108.268C14.0561 108.647 13.507 108.846 12.9443 108.825H11.2593V103.058H14.7211V104.047H12.3775V105.13H12.9443C13.4974 105.101 14.0418 105.277 14.476 105.624C14.6596 105.791 14.8043 105.997 14.8997 106.227C14.995 106.457 15.0387 106.705 15.0274 106.954L15.0121 106.985ZM13.8633 106.985C13.8633 106.397 13.5263 106.104 12.8677 106.104H12.3775V107.866H12.9136C13.1919 107.898 13.4718 107.821 13.6948 107.65C13.7728 107.559 13.832 107.453 13.8689 107.339C13.9057 107.225 13.9194 107.104 13.9093 106.985H13.8633ZM20.7409 108.84H19.6074V105.253L16.0231 109.103V103.058H17.1412V106.676L20.7409 102.826V108.84ZM25.428 104.789C25.4441 105.011 25.4127 105.233 25.3361 105.441C25.2594 105.649 25.1393 105.838 24.9838 105.995C24.7754 106.18 24.5324 106.32 24.2692 106.407C24.0061 106.495 23.7282 106.528 23.452 106.506H22.7628V108.825H21.6446V103.058H23.4214C23.972 103.009 24.5202 103.175 24.9532 103.522C25.1253 103.681 25.2589 103.879 25.3439 104.098C25.4288 104.318 25.4628 104.554 25.4433 104.789H25.428ZM24.2945 104.789C24.3077 104.589 24.2478 104.391 24.126 104.233C23.9164 104.071 23.654 103.993 23.3908 104.016H22.7934V105.562H23.3755C23.6324 105.59 23.8911 105.53 24.1107 105.392C24.18 105.31 24.2321 105.214 24.2636 105.11C24.2952 105.006 24.3057 104.897 24.2945 104.789ZM30.7125 108.655C30.2116 108.898 29.6597 109.014 29.1042 108.995C28.6985 109.009 28.2942 108.938 27.9171 108.787C27.54 108.635 27.1983 108.406 26.9138 108.113C26.3665 107.524 26.0696 106.741 26.0866 105.934C26.0761 105.525 26.1482 105.118 26.2984 104.738C26.4486 104.358 26.6739 104.013 26.9605 103.723C27.2471 103.434 27.589 103.207 27.9654 103.055C28.3419 102.904 28.745 102.831 29.1501 102.841C29.6798 102.835 30.2038 102.951 30.6819 103.182V104.418C30.2341 104.092 29.7019 103.904 29.1501 103.877C28.9054 103.874 28.6628 103.924 28.4384 104.022C28.2139 104.121 28.0128 104.266 27.8482 104.449C27.5072 104.852 27.3199 105.365 27.3199 105.895C27.3199 106.425 27.5072 106.937 27.8482 107.34C28.0179 107.529 28.2265 107.678 28.4593 107.777C28.6922 107.876 28.9437 107.922 29.1961 107.912C29.7471 107.87 30.2763 107.677 30.7278 107.356V108.593L30.7125 108.655ZM36.2728 108.84H34.9248L32.8263 105.949V108.84H31.7235V103.058H32.8263V105.47L34.8789 103.058H36.1809L33.822 105.717L36.3187 108.809L36.2728 108.84ZM41.6032 108.84H40.4851V105.253L36.8855 109.103V103.058H38.0036V106.676L41.6032 102.826V108.84ZM46.5355 101.62C46.5423 101.776 46.5109 101.93 46.4441 102.071C46.3773 102.211 46.2771 102.332 46.1525 102.424C45.9123 102.615 45.6156 102.718 45.3101 102.718C45.0045 102.718 44.7078 102.615 44.4676 102.424C44.343 102.332 44.2428 102.211 44.176 102.071C44.1092 101.93 44.0778 101.776 44.0847 101.62H44.9118C44.9118 101.898 45.0343 102.038 45.3101 102.038C45.3662 102.045 45.4232 102.04 45.4769 102.021C45.5305 102.003 45.5792 101.973 45.6193 101.932C45.6593 101.892 45.6895 101.843 45.7076 101.788C45.7257 101.734 45.7312 101.677 45.7236 101.62H46.5355ZM47.6383 108.84H46.5048V105.253L42.9205 109.118V103.058H44.0387V106.676L47.6383 102.826V108.84ZM55.4962 108.84H54.1023L52.0804 105.934V108.825H50.9622V103.058H52.0804V105.47L54.1176 103.058H55.4196L53.0607 105.717L55.5574 108.809L55.4962 108.84ZM59.8923 104.805C59.908 105.25 59.7483 105.684 59.4481 106.011C59.2397 106.195 58.9967 106.335 58.7335 106.423C58.4704 106.511 58.1925 106.544 57.9163 106.521H57.227V108.84H56.1089V103.058H57.8857C58.4363 103.009 58.9845 103.175 59.4174 103.522C59.5896 103.681 59.7232 103.879 59.8082 104.098C59.8931 104.318 59.9271 104.554 59.9076 104.789L59.8923 104.805ZM58.7588 104.805C58.772 104.605 58.712 104.407 58.5903 104.248C58.3806 104.086 58.1183 104.009 57.8551 104.032H57.2577V105.578H57.8397C58.0967 105.605 58.3554 105.545 58.575 105.408C58.6443 105.325 58.6963 105.229 58.7279 105.125C58.7595 105.022 58.77 104.913 58.7588 104.805ZM64.1505 108.856H60.8879V103.058H64.1965V104.047H62.0214V105.284H63.9514V106.227H62.0214V107.773H64.1965V108.763L64.1505 108.856ZM70.5073 110H69.3891V108.856H66.2337V110H65.1309V107.851C65.2473 107.866 65.3656 107.854 65.477 107.817C65.5884 107.779 65.69 107.717 65.7742 107.634C65.93 107.352 65.9943 107.028 65.958 106.707V103.058H69.9712V107.851H70.5532V109.969L70.5073 110ZM68.7917 107.882V104.032H67.0609V106.83C67.0665 107.182 66.9932 107.531 66.8464 107.851L68.7917 107.882ZM76.0063 108.871H74.8881V105.253L71.3038 109.103V103.058H72.422V106.676L76.0063 102.826V108.84V108.871ZM80.6015 104.078H79.1923V108.856H78.1201V104.047H76.7109V103.058H80.6474L80.6015 104.078Z" fill="#1A1A18"/>
</svg>
