<svg width="743" height="95" viewBox="0 0 743 95" fill="none" xmlns="http://www.w3.org/2000/svg">
<path fill-rule="evenodd" clip-rule="evenodd" d="M95.0005 89.063V2.96875H92.0005C91.488 21.6328 81.8879 37.8141 67.9754 46.2011C81.7879 54.5141 91.363 70.5595 91.988 89.063H95.0005ZM37.1252 78.8848V13.8386H48.2253V40.161L49.4753 40.2351C66.8629 38.5552 80.7254 22.5839 81.3754 2.96875H41.5252C25.3626 7.30434 13.2126 24.9679 13.2126 46.0035C13.2126 67.0391 25.4126 84.8015 41.6127 89.063H81.3129C80.4504 69.6084 66.7129 53.8224 49.4253 52.1549L48.1753 52.229V78.8848H37.1252ZM18.1251 2.96875C8.38754 13.5175 2.22501 28.9082 2.22501 46.0035C2.22501 63.0988 8.38754 78.5143 18.1501 89.063H0V2.96875H18.1251Z" fill="#009035"/>
<path fill-rule="evenodd" clip-rule="evenodd" d="M742.191 18.9447H739.174V12.0581H732.635V18.9579H729.618V3.66757H732.635V9.48555H739.174V3.66757H742.191V18.9447ZM720.459 13.1267L718.513 8.74676L716.594 13.1267H720.459ZM726.176 18.9447H723.04L721.544 15.5674H715.495L713.973 18.9579H710.836L718.5 2.91559L726.176 18.9447ZM702.789 16.3062V6.22696H698.051V13.6413C698.057 14.5786 697.858 15.506 697.469 16.359L702.789 16.3062ZM707.395 21.8999H704.417V18.9447H695.867V21.9527H692.889V16.359C693.186 16.3909 693.487 16.3605 693.772 16.2696C694.057 16.1787 694.32 16.0294 694.543 15.8312C694.958 15.0884 695.134 14.2363 695.046 13.3906V3.66757H705.78V16.359H707.342L707.395 21.8999ZM689.408 18.892H685.848L680.752 11.2402V18.892H677.761V11.3061L672.678 18.9579H669.118L675.087 10.7125L669.264 3.68076H672.758L677.761 10.132V3.66757H680.752V10.1188L685.768 3.66757H689.249L683.426 10.6993L689.408 18.892ZM661.269 13.1267L659.324 8.74676L657.405 13.1267H661.269ZM666.987 18.9447H663.85L662.355 15.5542H656.306L654.837 18.9447H651.66L659.324 2.9024L666.987 18.9447ZM648.219 8.23225C648.243 7.9647 648.212 7.69519 648.131 7.43931C648.049 7.18342 647.917 6.94624 647.743 6.74147C647.199 6.30592 646.504 6.10205 645.81 6.17419H644.248V10.2771H645.824C646.522 10.3531 647.226 10.1802 647.809 9.78899C647.979 9.57067 648.104 9.32013 648.174 9.05255C648.245 8.78497 648.26 8.5059 648.219 8.23225V8.23225ZM651.277 8.23225C651.303 8.8211 651.209 9.4092 651 9.96047C650.79 10.5117 650.47 11.0146 650.059 11.4381C649.516 11.9072 648.887 12.2651 648.205 12.4915C647.524 12.7179 646.805 12.8082 646.088 12.7573H644.248V18.892H641.204V3.66757H645.982C647.414 3.57819 648.828 4.01991 649.953 4.90769C650.407 5.33073 650.763 5.84733 650.996 6.4215C651.229 6.99567 651.334 7.6136 651.303 8.23225H651.277ZM637.895 6.29292H633.104V18.9447H630.086V3.66757H637.895V6.29292ZM620.689 14.2085C620.734 13.9003 620.705 13.586 620.606 13.2906C620.508 12.9951 620.341 12.7267 620.12 12.5065C619.899 12.2863 619.63 12.1204 619.334 12.022C619.037 11.9236 618.722 11.8953 618.413 11.9394H616.216V16.3326H618.161C619.864 16.3677 620.716 15.6817 620.716 14.2745L620.689 14.2085ZM619.67 7.73093C619.67 6.6887 619.008 6.16099 617.672 6.16099H616.202V9.55152H618.082C619.158 9.55152 619.697 8.96664 619.697 7.79689L619.67 7.73093ZM623.839 14.2085C623.866 14.8065 623.771 15.4036 623.559 15.9638C623.348 16.5239 623.024 17.0354 622.608 17.4671C622.035 17.976 621.364 18.3644 620.636 18.6092C619.909 18.854 619.139 18.9502 618.373 18.892H613.238V3.66757H617.83C621.113 3.66757 622.754 4.98684 622.754 7.62538C622.807 8.21198 622.687 8.80124 622.41 9.3213C622.133 9.84136 621.71 10.2697 621.192 10.5542C622.004 10.8051 622.705 11.3268 623.178 12.0317C623.624 12.6944 623.86 13.4762 623.853 14.2745L623.839 14.2085ZM608.79 18.9051H605.773V9.47236L596.137 19.7099V3.64119H599.142V13.1267L608.79 2.91559V18.9051ZM592.021 6.29292H588.262V18.9447H585.245V6.29292H581.472V3.65438H592.061L592.021 6.29292ZM573.862 13.1267L571.916 8.74676L569.997 13.1267H573.862ZM579.58 18.9447H576.443L574.947 15.5542H568.912L567.39 18.9447H564.253L571.916 2.9024L579.58 18.9447ZM562.188 8.23225C562.212 7.9647 562.181 7.69519 562.1 7.43931C562.018 7.18342 561.886 6.94624 561.712 6.74147C561.168 6.30592 560.473 6.10205 559.779 6.17419H558.138V10.2771H559.713C560.412 10.3531 561.115 10.1802 561.698 9.78899C561.883 9.5769 562.022 9.32923 562.106 9.06141C562.19 8.79358 562.218 8.51134 562.188 8.23225V8.23225ZM565.246 8.23225C565.272 8.8211 565.178 9.4092 564.969 9.96047C564.759 10.5117 564.439 11.0146 564.028 11.4381C563.486 11.9072 562.856 12.2651 562.174 12.4915C561.493 12.7179 560.774 12.8082 560.057 12.7573H558.191V18.892H555.2V3.66757H559.978C561.41 3.57819 562.824 4.01991 563.949 4.90769C564.386 5.33903 564.724 5.85936 564.941 6.43311C565.158 7.00687 565.249 7.62055 565.206 8.23225H565.246ZM549.813 18.9447H540.958V3.66757H549.813V6.30611H543.976V9.55152H549.178V12.0581H543.976V16.3194H549.813V18.9447ZM537.504 18.9447H534.486V6.29292H528.173V18.9447H525.129V3.66757H537.438L537.504 18.9447ZM518.352 11.293C518.428 9.87844 517.954 8.48912 517.029 7.4143C516.073 6.47886 514.788 5.95472 513.448 5.95472C512.109 5.95472 510.824 6.47886 509.868 7.4143C508.941 8.48843 508.467 9.87825 508.545 11.293C508.472 12.703 508.946 14.087 509.868 15.1584C510.337 15.6275 510.894 15.9997 511.507 16.2537C512.12 16.5077 512.778 16.6385 513.442 16.6385C514.106 16.6385 514.763 16.5077 515.377 16.2537C515.99 15.9997 516.547 15.6275 517.015 15.1584C517.925 14.0864 518.389 12.7082 518.312 11.3061L518.352 11.293ZM521.568 11.293C521.602 12.3808 521.407 13.4636 520.997 14.4722C520.587 15.4808 519.97 16.393 519.186 17.1505C517.619 18.6363 515.539 19.4649 513.376 19.4649C511.213 19.4649 509.132 18.6363 507.565 17.1505C506.8 16.3866 506.201 15.473 505.807 14.4672C505.413 13.4613 505.232 12.3851 505.275 11.3061C505.246 10.2342 505.439 9.16773 505.842 8.17348C506.245 7.17923 506.85 6.27855 507.618 5.52774C509.185 4.04194 511.266 3.21336 513.429 3.21336C515.591 3.21336 517.672 4.04194 519.239 5.52774C519.998 6.28305 520.592 7.18576 520.986 8.1798C521.38 9.17384 521.565 10.238 521.529 11.3061L521.568 11.293ZM499.24 11.293C499.316 9.87844 498.842 8.48912 497.916 7.4143C496.961 6.47886 495.675 5.95472 494.336 5.95472C492.997 5.95472 491.711 6.47886 490.756 7.4143C489.83 8.48912 489.356 9.87844 489.433 11.293C489.36 12.703 489.834 14.087 490.756 15.1584C491.225 15.6275 491.781 15.9997 492.395 16.2537C493.008 16.5077 493.666 16.6385 494.33 16.6385C494.994 16.6385 495.651 16.5077 496.265 16.2537C496.878 15.9997 497.435 15.6275 497.903 15.1584C498.813 14.0864 499.277 12.7082 499.2 11.3061L499.24 11.293ZM502.456 11.293C502.49 12.3808 502.295 13.4636 501.885 14.4722C501.475 15.4808 500.858 16.393 500.074 17.1505C498.507 18.6363 496.426 19.4649 494.263 19.4649C492.101 19.4649 490.02 18.6363 488.453 17.1505C487.685 16.3972 487.08 15.4942 486.677 14.4978C486.274 13.5014 486.081 12.4329 486.11 11.3589C486.081 10.2869 486.274 9.2205 486.677 8.22625C487.08 7.232 487.685 6.33132 488.453 5.58051C490.02 4.09471 492.101 3.26613 494.263 3.26613C496.426 3.26613 498.507 4.09471 500.074 5.58051C500.835 6.3252 501.436 7.2173 501.839 8.20195C502.242 9.1866 502.438 10.243 502.417 11.3061L502.456 11.293ZM486.243 18.9447H482.497L476.885 11.293V18.9447H473.894V3.66757H476.885V10.0528L482.365 3.65438H485.859L479.519 10.6861L486.243 18.9447ZM465.516 19.103H462.498V9.60429L452.81 19.7891V3.78631H455.814V13.2719L465.463 3.06071L465.516 19.103ZM462.538 0C462.547 0.410731 462.459 0.817831 462.282 1.18887C462.105 1.55992 461.844 1.88465 461.519 2.13722C460.875 2.65348 460.068 2.92471 459.242 2.9024C458.416 2.92471 457.609 2.65348 456.966 2.13722C456.643 1.8833 456.384 1.55796 456.21 1.187C456.035 0.816031 455.95 0.40963 455.96 0L458.157 0C458.121 0.158281 458.122 0.322545 458.158 0.480632C458.195 0.638718 458.267 0.786578 458.368 0.913265C458.47 1.03995 458.599 1.14222 458.746 1.2125C458.892 1.28278 459.053 1.31927 459.216 1.31927C459.379 1.31927 459.539 1.28278 459.686 1.2125C459.833 1.14222 459.962 1.03995 460.063 0.913265C460.165 0.786578 460.237 0.638718 460.273 0.480632C460.31 0.322545 460.31 0.158281 460.275 0L462.538 0ZM449.302 19.103H446.285V9.60429L436.636 19.7891V3.78631H439.64V13.2719L449.289 3.06071L449.302 19.103ZM435.008 19.103H431.262L425.65 11.4513V19.103H422.659V3.7995H425.65V10.198L431.156 3.7995H434.651L428.311 10.8312L435.008 19.103ZM420.078 18.6281C418.72 19.2755 417.229 19.5964 415.724 19.5648C414.629 19.5972 413.54 19.3989 412.527 18.9829C411.514 18.5669 410.601 17.9425 409.847 17.1505C409.111 16.3903 408.535 15.4908 408.153 14.5052C407.771 13.5196 407.591 12.4678 407.624 11.4117C407.604 10.371 407.79 9.33662 408.171 8.36772C408.553 7.39882 409.122 6.51444 409.847 5.76521C410.604 4.96409 411.523 4.33225 412.542 3.9115C413.562 3.49076 414.66 3.2907 415.764 3.32456C417.255 3.28612 418.734 3.6027 420.078 4.24805V7.53303C418.821 6.62562 417.315 6.12377 415.764 6.09503C415.106 6.09061 414.455 6.22464 413.853 6.48835C413.25 6.75207 412.711 7.13953 412.269 7.62538C411.778 8.12956 411.392 8.72654 411.136 9.38128C410.879 10.036 410.756 10.7353 410.774 11.4381C410.699 12.8444 411.173 14.225 412.097 15.2903C412.55 15.7853 413.105 16.1762 413.725 16.4359C414.344 16.6956 415.013 16.8179 415.684 16.7943C417.244 16.7421 418.754 16.2327 420.025 15.3299L420.078 18.6281ZM402.727 14.2217C402.756 13.911 402.717 13.5975 402.611 13.3035C402.506 13.0095 402.338 12.742 402.118 12.5199C401.465 12.0922 400.686 11.897 399.907 11.9658H398.584V16.57H399.907C400.697 16.6488 401.489 16.448 402.144 16.0028C402.362 15.7609 402.526 15.4763 402.626 15.1672C402.727 14.8582 402.761 14.5316 402.727 14.2085V14.2217ZM405.877 14.2217C405.906 14.8517 405.804 15.4809 405.576 16.0692C405.348 16.6575 405 17.192 404.553 17.6386C403.277 18.7048 401.633 19.2305 399.974 19.103H395.593V3.7995H398.61V9.41959H399.934C401.575 9.28753 403.208 9.7566 404.527 10.7389C404.989 11.1862 405.349 11.7278 405.582 12.3266C405.815 12.9255 405.916 13.5674 405.877 14.2085V14.2217ZM393.091 19.103H390.126V6.3325H385.719V14.0502C385.826 15.4699 385.533 16.8912 384.872 18.1532C384.546 18.5887 384.113 18.933 383.614 19.1526C383.116 19.3722 382.569 19.4596 382.026 19.4065C381.477 19.4082 380.932 19.3006 380.425 19.0898V16.4513C380.823 16.6977 381.28 16.8343 381.748 16.8471C381.902 16.8587 382.055 16.8248 382.189 16.7497C382.324 16.6745 382.433 16.5616 382.503 16.4249C382.763 15.6481 382.867 14.8275 382.807 14.0107V3.7995H393.144L393.091 19.103ZM377.87 19.103H369.016V3.7995H377.87V6.43804H372.033V9.68345H377.235V12.1901H372.033V16.4513H377.87V19.103ZM367.123 6.45123H363.364V19.103H360.346V6.43804H356.574V3.7995H367.163L367.123 6.45123ZM354.682 19.1294H351.743V9.60429L342.042 19.7891V3.78631H345.046V13.2719L354.695 3.06071L354.682 19.1294ZM336.258 14.2085C336.258 12.6606 335.375 11.8866 333.611 11.8866H332.155V16.57H333.597C334.336 16.6422 335.076 16.4403 335.675 16.0028C335.89 15.7592 336.053 15.4743 336.153 15.1657C336.253 14.8572 336.289 14.5314 336.258 14.2085V14.2085ZM339.342 14.2085C339.361 14.8455 339.245 15.4793 339.001 16.0682C338.757 16.6572 338.39 17.1879 337.925 17.6255C336.758 18.653 335.231 19.1794 333.677 19.0898H329.137V3.7995H338.402V6.43804H332.155V9.36682H333.677C335.186 9.27958 336.675 9.7492 337.859 10.6861C338.35 11.1289 338.735 11.6744 338.989 12.2834C339.243 12.8923 339.359 13.5498 339.328 14.2085H339.342ZM326.106 19.0898H317.252V3.7995H326.106V6.43804H320.269V9.68345H325.471V12.1901H320.269V16.4513H326.106V19.0898ZM311.653 8.36418C311.676 8.09663 311.646 7.82712 311.564 7.57124C311.483 7.31535 311.351 7.07817 311.176 6.8734C310.632 6.43785 309.938 6.23397 309.244 6.30611H307.603V10.4222H309.178C309.877 10.4982 310.58 10.3253 311.163 9.93411C311.349 9.72045 311.489 9.47059 311.573 9.20036C311.658 8.93012 311.685 8.64539 311.653 8.36418V8.36418ZM314.71 8.36418C314.737 8.95303 314.643 9.54113 314.434 10.0924C314.224 10.6437 313.904 11.1465 313.493 11.57C312.396 12.5161 310.969 12.9905 309.522 12.8893H307.656V19.0239H304.665V3.7995H309.39C310.821 3.71011 312.236 4.15183 313.36 5.03961C313.811 5.46652 314.163 5.98635 314.392 6.56282C314.62 7.1393 314.72 7.75855 314.684 8.37737L314.71 8.36418ZM302.666 6.42485H298.907V19.0767H295.889V6.43804H292.117V3.7995H302.706L302.666 6.42485ZM287.829 11.4381C287.905 10.0236 287.431 8.63424 286.505 7.55942C285.55 6.62398 284.264 6.09984 282.925 6.09984C281.586 6.09984 280.3 6.62398 279.345 7.55942C278.419 8.63424 277.945 10.0236 278.021 11.4381C277.949 12.8481 278.422 14.2321 279.345 15.3035C279.814 15.7726 280.37 16.1449 280.984 16.3988C281.597 16.6528 282.254 16.7836 282.919 16.7836C283.583 16.7836 284.24 16.6528 284.853 16.3988C285.467 16.1449 286.024 15.7726 286.492 15.3035C287.419 14.2341 287.898 12.8499 287.829 11.4381V11.4381ZM291.045 11.4381C291.075 12.512 290.882 13.5805 290.479 14.577C290.076 15.5734 289.471 16.4764 288.702 17.2297C287.135 18.7155 285.055 19.5441 282.892 19.5441C280.729 19.5441 278.649 18.7155 277.082 17.2297C276.313 16.4764 275.709 15.5734 275.305 14.577C274.902 13.5805 274.71 12.512 274.739 11.4381C274.709 10.364 274.901 9.29528 275.304 8.29874C275.707 7.3022 276.312 6.39929 277.082 5.64648C278.65 4.16366 280.73 3.3371 282.892 3.3371C285.054 3.3371 287.134 4.16366 288.702 5.64648C289.472 6.39929 290.077 7.3022 290.48 8.29874C290.883 9.29528 291.075 10.364 291.045 11.4381V11.4381ZM272.039 19.0898H269.021V6.43804H262.734V19.0898H259.717V3.7995H272.026L272.039 19.0898ZM250.968 19.0898H247.95V9.60429L238.302 19.7891V3.78631H241.306V13.2719L250.955 3.06071L250.968 19.0898ZM248.016 0C248.025 0.410731 247.938 0.817831 247.761 1.18887C247.584 1.55992 247.322 1.88465 246.997 2.13722C246.354 2.65348 245.547 2.92471 244.721 2.9024C243.895 2.92471 243.088 2.65348 242.444 2.13722C242.122 1.8833 241.863 1.55796 241.688 1.187C241.514 0.816031 241.428 0.40963 241.438 0L243.636 0C243.636 0.29391 243.753 0.575781 243.961 0.783607C244.17 0.991432 244.452 1.10819 244.747 1.10819C245.042 1.10819 245.325 0.991432 245.533 0.783607C245.742 0.575781 245.859 0.29391 245.859 0H248.016ZM228.163 14.2085C228.192 13.8967 228.151 13.5824 228.043 13.2882C227.936 12.994 227.764 12.7271 227.541 12.5067C226.888 12.0781 226.109 11.8827 225.331 11.9526H224.179V16.5568H225.331C226.12 16.6345 226.912 16.4338 227.568 15.9896C227.781 15.7482 227.942 15.4653 228.04 15.1587C228.138 14.8521 228.171 14.5285 228.137 14.2085H228.163ZM231.3 14.2085C231.329 14.8384 231.226 15.4674 230.998 16.0556C230.77 16.6438 230.422 17.1784 229.976 17.6255C228.699 18.6975 227.048 19.2237 225.384 19.0898H221.122V3.7995H224.14V9.41959H225.37C227.011 9.28875 228.644 9.7577 229.963 10.7389C230.422 11.1884 230.779 11.7307 231.009 12.3292C231.24 12.9277 231.339 13.5686 231.3 14.2085V14.2085ZM235.813 19.0898H232.796V3.7995H235.813V19.0898ZM218.607 19.0898H215.589V12.1901H209.064V19.0898H206.047V3.7995H209.064V9.61748H215.603V3.7995H218.62L218.607 19.0898ZM204.167 6.43804H200.408V19.0898H197.391V6.43804H193.618V3.7995H204.207L204.167 6.43804ZM191.726 19.1162H188.708V9.60429L179.073 19.7891V3.78631H182.077V13.2719L191.726 3.06071V19.1162ZM172.336 16.4777V6.37208H167.597V13.7864C167.605 14.7238 167.406 15.6515 167.015 16.5041L172.336 16.4777ZM176.942 22.0714H173.964V19.0898H165.387V22.0978H162.409V16.5041C162.722 16.5425 163.04 16.5115 163.34 16.4135C163.639 16.3154 163.914 16.1526 164.143 15.9368C164.559 15.1943 164.734 14.3419 164.646 13.4961V3.7995H175.38V16.4909H176.942V22.0714ZM159.828 19.0898H150.974V3.7995H159.828V6.43804H153.991V9.68345H159.193V12.1901H153.991V16.4513H159.828V19.0898ZM145.428 8.36418C145.451 8.09663 145.421 7.82712 145.339 7.57124C145.258 7.31535 145.126 7.07817 144.951 6.8734C144.68 6.65606 144.369 6.4941 144.035 6.39676C143.701 6.29942 143.352 6.26862 143.006 6.30611H141.365V10.4222H142.94C143.638 10.4982 144.342 10.3253 144.925 9.93411C145.113 9.72109 145.254 9.47167 145.341 9.20151C145.427 8.93135 145.457 8.64628 145.428 8.36418V8.36418ZM148.485 8.36418C148.512 8.95303 148.418 9.54113 148.209 10.0924C147.999 10.6437 147.679 11.1465 147.268 11.57C146.725 12.0391 146.095 12.3971 145.414 12.6234C144.733 12.8498 144.013 12.9401 143.297 12.8893H141.431V19.0239H138.387V3.7995H143.165C144.596 3.71011 146.011 4.15183 147.135 5.03961C147.591 5.46412 147.948 5.98287 148.181 6.55946C148.414 7.13606 148.518 7.75654 148.485 8.37737V8.36418ZM136.692 19.0767H132.947L127.335 11.4249V19.0767H124.33V3.7995H127.322V10.198L132.801 3.7995H136.295L129.956 10.8312L136.692 19.0767Z" fill="#1B1918"/>
<path fill-rule="evenodd" clip-rule="evenodd" d="M740.868 50.1578H730.094V86.3849H721.451V50.1578H710.651V42.6379H740.868V50.1578ZM705.264 86.4377H696.635V59.2475L669.052 88.5354V42.5456H677.655V69.7225L705.264 40.4743V86.4377ZM649.768 78.9706V49.9467H636.215V71.2001C636.23 73.8816 635.656 76.5339 634.534 78.9706H649.768ZM663.003 94.9866H654.48V86.3849H629.862V94.9998H621.338V78.9706C623.8 78.9706 625.459 78.4341 626.314 77.3611C627.281 76.2002 627.757 73.8519 627.757 70.3558V42.6511H658.464V78.9706H662.95L663.003 94.9866ZM614.191 86.3717H588.778V42.6379H614.138V50.171H597.421V59.485H612.298V66.675H597.421V78.8651H614.138L614.191 86.3717ZM572.777 55.7383C572.848 54.9782 572.768 54.2116 572.54 53.4826C572.313 52.7535 571.944 52.0764 571.453 51.4902C570.381 50.4084 568.541 49.8543 565.907 49.8543H561.222V61.609H565.735C568.515 61.609 570.408 61.1341 571.427 60.2106C571.947 59.5969 572.335 58.8833 572.567 58.114C572.799 57.3447 572.871 56.5361 572.777 55.7383V55.7383ZM581.512 55.7383C581.597 57.4332 581.333 59.1274 580.734 60.716C580.135 62.3046 579.215 63.7536 578.031 64.9732C575.384 67.6117 571.559 68.931 566.516 68.931H561.222V86.3849H552.645V42.6379H566.318C571.294 42.6379 575.115 43.8209 577.78 46.1868C579.059 47.4143 580.055 48.9042 580.7 50.5534C581.344 52.2027 581.621 53.9717 581.512 55.7383V55.7383ZM547.748 86.3849H537.041L520.96 64.4982V86.3849H512.383V42.6379H520.96V60.9362L536.657 42.6379H546.663L528.517 62.77L547.748 86.3849ZM487.315 86.3849H478.685V59.2344L451.102 88.5485V42.5456H459.706V69.7225L487.315 40.4875V86.3849ZM478.91 31.7012C478.944 32.8768 478.699 34.0438 478.195 35.1074C477.692 36.171 476.944 37.1012 476.012 37.8226C474.135 39.2435 471.843 40.0128 469.487 40.0128C467.13 40.0128 464.838 39.2435 462.961 37.8226C462.034 37.0977 461.29 36.1665 460.789 35.1035C460.288 34.0404 460.044 32.8752 460.076 31.7012H466.376C466.348 32.1262 466.408 32.5524 466.552 32.9534C466.697 33.3544 466.922 33.7217 467.214 34.0325C467.506 34.3433 467.859 34.5911 468.251 34.7604C468.643 34.9298 469.066 35.0172 469.493 35.0172C469.921 35.0172 470.343 34.9298 470.735 34.7604C471.127 34.5911 471.48 34.3433 471.773 34.0325C472.065 33.7217 472.29 33.3544 472.434 32.9534C472.578 32.5524 472.638 32.1262 472.61 31.7012H478.91ZM441.03 86.4377H432.401V59.2475L404.818 88.5354V42.5456H413.421V69.7225L441.03 40.4875V86.4377ZM400.119 86.4377H389.398L373.33 64.4982V86.3849H364.754V42.6379H373.33V60.9362L389.028 42.6379H399.034L380.861 62.77L400.119 86.4377ZM357.395 85.1184C353.504 86.9594 349.233 87.8632 344.927 87.757C341.808 87.8646 338.701 87.3178 335.808 86.1519C332.914 84.986 330.299 83.2271 328.131 80.9891C326.032 78.8086 324.389 76.2333 323.298 73.4133C322.207 70.5934 321.69 67.5852 321.778 64.5642C321.718 61.5863 322.249 58.6259 323.339 55.8527C324.429 53.0794 326.058 50.5479 328.131 48.4031C330.293 46.1098 332.919 44.2996 335.835 43.092C338.751 41.8845 341.89 41.307 345.046 41.3978C349.314 41.2863 353.548 42.1909 357.395 44.0364V53.4032C353.798 50.8039 349.488 49.3672 345.046 49.287C343.161 49.2682 341.294 49.6475 339.567 50.4002C337.84 51.1529 336.293 52.2618 335.027 53.6538C333.627 55.101 332.528 56.8102 331.795 58.6828C331.061 60.5554 330.706 62.5543 330.752 64.5642C330.592 68.6144 332.016 72.5684 334.722 75.5933C336.018 77.0112 337.608 78.1305 339.382 78.8733C341.156 79.6161 343.07 79.9644 344.993 79.8941C349.455 79.7308 353.771 78.2677 357.408 75.6857L357.395 85.1184ZM308.066 55.7383C308.136 54.9782 308.056 54.2118 307.829 53.4829C307.602 52.7539 307.232 52.0768 306.743 51.4902C305.657 50.4084 303.817 49.8543 301.197 49.8543H296.511V61.609H301.038C303.809 61.609 305.706 61.1429 306.729 60.2106C307.246 59.5954 307.632 58.8813 307.862 58.1122C308.091 57.3431 308.161 56.5352 308.066 55.7383V55.7383ZM316.802 55.7383C316.887 57.4332 316.622 59.1274 316.023 60.716C315.424 62.3046 314.504 63.7536 313.321 64.9732C310.673 67.6117 306.848 68.931 301.806 68.931H296.511V86.3849H287.948V42.6379H301.62C306.597 42.6379 310.413 43.8209 313.069 46.1868C314.359 47.409 315.365 48.8967 316.019 50.5463C316.673 52.1959 316.958 53.9677 316.854 55.7383H316.802ZM280.761 86.4377H272.118V59.2475L244.536 88.5354V42.5456H253.139V69.7225L280.748 40.4875L280.761 86.4377ZM227.965 72.4139C227.965 68.0163 225.428 65.8175 220.354 65.8175H216.225V79.1421H220.354C223.147 79.1421 225.132 78.6012 226.297 77.5062C226.909 76.8156 227.372 76.0076 227.659 75.1319C227.946 74.2561 228.05 73.3312 227.965 72.4139V72.4139ZM236.779 72.4139C236.827 74.224 236.492 76.0238 235.797 77.6966C235.101 79.3694 234.061 80.8777 232.743 82.1237C229.796 84.9205 225.745 86.3234 220.592 86.3322H207.595V42.6379H234.265V50.171H216.225V58.5483H220.592C225.684 58.5483 229.654 59.806 232.504 62.3214C233.924 63.5822 235.043 65.1419 235.783 66.8875C236.522 68.6331 236.863 70.5209 236.779 72.4139V72.4139ZM200.382 86.4509H191.752V59.2475L164.169 88.5354V42.5456H172.772V69.7225L200.382 40.4875V86.4509ZM156.81 85.0129C152.915 86.8554 148.64 87.7593 144.329 87.6514C141.21 87.7591 138.103 87.2122 135.21 86.0463C132.316 84.8804 129.701 83.1215 127.533 80.8836C125.438 78.7082 123.797 76.1394 122.707 73.3265C121.616 70.5137 121.097 67.5128 121.18 64.4982C121.122 61.5193 121.654 58.5582 122.746 55.7848C123.839 53.0114 125.47 50.4805 127.547 48.3372C129.709 46.0438 132.335 44.2336 135.25 43.026C138.166 41.8185 141.306 41.2411 144.462 41.3318C148.73 41.2204 152.963 42.1249 156.81 43.9704V53.3372C153.213 50.7387 148.903 49.302 144.462 49.2211C142.577 49.203 140.71 49.5828 138.983 50.3354C137.256 51.0881 135.709 52.1965 134.442 53.5879C133.043 55.0355 131.945 56.7447 131.211 58.6173C130.477 60.4898 130.123 62.4885 130.167 64.4982C130.008 68.5485 131.431 72.5024 134.138 75.5273C135.433 76.9452 137.023 78.0645 138.797 78.8073C140.571 79.5501 142.486 79.8985 144.409 79.8282C148.871 79.6656 153.187 78.2024 156.824 75.6197L156.81 85.0129Z" fill="#1B1918"/>
</svg>
