<?xml version="1.0" encoding="utf-8"?><svg xmlns="http://www.w3.org/2000/svg" xmlns:xlink="http://www.w3.org/1999/xlink"><style>:root>svg{display:none}:root>svg:target{display:block}</style><svg fill="none" viewBox="0 0 12 8" id="arrow-down" xmlns="http://www.w3.org/2000/svg"><path d="M10.41.91A.833.833 0 1 1 11.59 2.09l-5 5a.833.833 0 0 1-1.152.025l-5-4.583a.833.833 0 0 1 1.126-1.229l4.412 4.044L10.41.91z" fill="#333" fill-opacity=".4"/></svg><svg fill="none" viewBox="0 0 10 17" id="arrow-left" xmlns="http://www.w3.org/2000/svg"><path d="M9.602 2.228A1.143 1.143 0 0 0 7.985.611l-6.86 6.86a1.143 1.143 0 0 0-.035 1.581l6.289 6.86a1.143 1.143 0 1 0 1.685-1.545L3.516 8.314l6.086-6.086z" fill="#333"/></svg><svg fill="none" viewBox="0 0 10 17" id="arrow-right" xmlns="http://www.w3.org/2000/svg"><path d="M.88 14.772a1.143 1.143 0 0 0 1.617 1.617l6.86-6.86c.433-.433.448-1.13.034-1.581l-6.288-6.86a1.143 1.143 0 0 0-1.686 1.545l5.549 6.053L.88 14.772z" fill="#333"/></svg><svg fill="none" viewBox="0 0 14 10" id="check" xmlns="http://www.w3.org/2000/svg"><path d="M11.782.293a.833.833 0 0 1 1.27 1.08L5.968 9.706a.833.833 0 0 1-1.188.083L1.03 6.456A.833.833 0 0 1 2.137 5.21L5.25 7.978 11.782.293z" fill="#00963F"/></svg><svg fill="none" viewBox="0 0 13 16" id="location" xmlns="http://www.w3.org/2000/svg"><path d="M0 6.852C0 2.74 2.6 0 6.5 0S13 3.426 13 6.852c0 2.13-1.886 5.057-5.658 8.778a1.25 1.25 0 0 1-1.728.046C1.87 12.34 0 9.399 0 6.852zm6.5 1.37c1.197 0 2.167-1.023 2.167-2.284S7.697 3.654 6.5 3.654c-1.197 0-2.167 1.023-2.167 2.284s.97 2.284 2.167 2.284z" fill="#00963F"/></svg><svg fill="none" viewBox="0 0 24 18" id="menu" xmlns="http://www.w3.org/2000/svg"><path fill-rule="evenodd" clip-rule="evenodd" d="M24 2H0V0h24v2zM24 10H0V8h24v2zM24 18H0v-2h24v2z" fill="#212121"/></svg><svg fill="none" viewBox="0 0 30 30" id="ok" xmlns="http://www.w3.org/2000/svg"><path d="M15.014 12.432a2.568 2.568 0 0 0 2.568-2.591 2.573 2.573 0 0 0-2.581-2.58 2.577 2.577 0 0 0-2.588 2.61 2.574 2.574 0 0 0 2.601 2.56z" fill="#00963F"/><path d="M15 0C6.716 0 0 6.716 0 15c0 8.284 6.716 15 15 15 8.284 0 15-6.716 15-15 0-8.284-6.716-15-15-15zm.021 4.562c2.922.008 5.267 2.397 5.252 5.351-.014 2.886-2.398 5.225-5.315 5.215-2.887-.01-5.255-2.403-5.237-5.295a5.292 5.292 0 0 1 5.3-5.271zm5.918 12.642c-.646.663-1.424 1.143-2.287 1.478-.817.317-1.711.476-2.597.582.134.146.197.217.28.3 1.203 1.209 2.41 2.411 3.608 3.623.408.413.493.925.269 1.404-.246.525-.796.87-1.336.833-.342-.024-.608-.193-.845-.432-.907-.913-1.832-1.809-2.72-2.739-.26-.27-.383-.219-.612.016-.912.94-1.84 1.865-2.772 2.784-.42.413-.918.488-1.404.252-.516-.25-.845-.777-.82-1.308.018-.358.194-.632.44-.877 1.19-1.188 2.377-2.379 3.563-3.569.079-.079.152-.163.267-.285-1.619-.17-3.078-.568-4.328-1.545-.155-.121-.315-.238-.456-.375-.547-.525-.602-1.127-.17-1.746.37-.53.992-.672 1.638-.367.125.058.244.133.358.211 2.329 1.6 5.527 1.644 7.865.072.231-.177.479-.323.766-.396.557-.144 1.078.062 1.376.55.343.557.339 1.101-.083 1.534z" fill="#00963F"/></svg><svg fill="none" viewBox="0 0 128 30" id="paraweb" xmlns="http://www.w3.org/2000/svg"><path d="M111.691 12.323c-1.617 0-3.402 1.116-3.402 3.457 0 1.785 1.171 3.514 3.402 3.514 2.23 0 3.401-1.785 3.401-3.514.056-1.728-1.115-3.457-3.401-3.457zm0 11.71c-2.454 0-4.629-.78-6.301-2.23-2.008-1.729-2.788-3.904-2.788-7.695 0-6.246.557-11.487 7.695-12.324l3.401-.39c1.729-.223 2.286-.446 2.509-1.06.112-.222.279-.334.502-.334h.112l3.513 1.171c.279.056.446.335.39.67-.669 2.731-1.505 3.512-4.349 3.902l-4.907.67c-2.454.334-4.238.836-4.684 4.07 1.338-1.561 3.345-2.342 5.855-2.342 2.119 0 4.126.725 5.632 2.063 1.617 1.45 2.453 3.458 2.453 5.8 0 4.684-3.736 8.03-9.033 8.03zM90.891 13.439c.28-1.283 1.06-2.454 2.621-2.454 1.394 0 2.23 1.115 2.23 2.454h-4.85zm-5.743 2.063c0 4.35 3.123 8.531 8.922 8.531 2.51 0 5.186-.836 6.97-2.342l-2.007-3.847c-1.338.892-2.9 1.617-4.461 1.617-1.729 0-3.402-.892-3.792-2.9h10.26c.056-.557.112-1.115.112-1.728 0-4.517-2.733-7.863-7.528-7.863-5.242.056-8.476 3.736-8.476 8.532zM75 20.242v-3.235h2.453c1.171 0 1.729.781 1.729 1.617 0 .837-.558 1.617-1.729 1.617h-2.454zm0-6.469v-3.011h2.007c1.06 0 1.505.67 1.505 1.394 0 .836-.446 1.617-1.45 1.617H75zm-5.465 9.87H78.4c3.234 0 6.19-1.283 6.19-4.851 0-1.394-.67-3.011-2.566-3.625v-.056c1.227-.725 1.896-2.174 1.896-3.513 0-2.788-2.286-4.237-5.52-4.237h-8.866v16.282zM57.49 18.569c0-1.506 2.175-1.952 3.848-1.952h.502v.446c0 1.338-1.227 2.9-2.788 2.9-1.004 0-1.562-.614-1.562-1.394zm-5.409.502c0 2.788 2.175 4.962 5.298 4.962 1.84 0 3.736-.836 4.851-2.342h.056s-.056.446-.056 1.004v1.004h5.019V13.662c0-4.127-2.788-6.636-7.25-6.636-2.676 0-5.52 1.06-6.914 2.119l1.896 3.848c1.282-.837 2.9-1.562 4.46-1.562 1.228 0 2.287.446 2.287 1.785v.278h-.446c-4.015 0-9.2 1.227-9.2 5.576zM39.87 15.612c0-2.788 1.56-4.015 3.178-4.015 1.896 0 3.178 1.562 3.178 4.015 0 2.51-1.505 3.904-3.178 3.904-2.119 0-3.178-1.952-3.178-3.904zM34.572 30h5.465v-6.134c0-.836-.056-1.394-.056-1.394h.056c1.17 1.004 2.62 1.561 4.126 1.561 4.35 0 7.584-3.345 7.584-8.476 0-5.074-2.9-8.531-7.305-8.531-1.952 0-3.848.78-4.907 2.23h-.056s.056-.501.056-1.059v-.836h-4.907V30h-.056zM22.528 18.569c0-1.506 2.174-1.952 3.847-1.952h.502v.446c0 1.338-1.227 2.9-2.788 2.9-1.004 0-1.561-.614-1.561-1.394zm-5.41.502c0 2.788 2.176 4.962 5.298 4.962 1.84 0 3.736-.836 4.851-2.342h.056s-.056.446-.056 1.004v1.004h5.019V13.662c0-4.127-2.788-6.636-7.249-6.636-2.677 0-5.52 1.06-6.915 2.119l1.896 3.848c1.283-.837 2.9-1.562 4.461-1.562 1.227 0 2.287.446 2.287 1.785v.278h-.446c-4.015 0-9.201 1.227-9.201 5.576zM0 23.642h5.465v-11.71h4.85v11.71h5.466V7.361H0v16.282zM126.356 22.807c.502-.502.725-1.06.725-1.729s-.223-1.282-.725-1.784-1.059-.725-1.784-.725c-.669 0-1.283.223-1.729.725-.502.502-.725 1.06-.725 1.784 0 .67.223 1.283.725 1.729.502.502 1.06.725 1.729.725.725 0 1.282-.28 1.784-.725z" fill="#AFAFAF"/></svg><svg fill="none" viewBox="0 0 16 16" id="phone" xmlns="http://www.w3.org/2000/svg"><path fill-rule="evenodd" clip-rule="evenodd" d="M8.085 10.143L5.881 7.939a2 2 0 0 1-.375-2.309l.125-.25a2 2 0 0 0-.374-2.308L2.524.339a.5.5 0 0 0-.8.13L.618 2.677a4.387 4.387 0 0 0 .822 5.064L7.44 13.74a5.427 5.427 0 0 0 5.553 1.311l2.415-.805a.5.5 0 0 0 .195-.828l-2.65-2.65a2 2 0 0 0-2.31-.376l-.25.125a2 2 0 0 1-2.308-.374z" fill="#00963F"/></svg><svg fill="none" viewBox="0 0 14 14" id="ruble" xmlns="http://www.w3.org/2000/svg"><path d="M2.5 14a.558.558 0 0 1-.38-.14.487.487 0 0 1-.14-.36v-1.84H.5a.533.533 0 0 1-.36-.14.533.533 0 0 1-.14-.36v-.76c0-.147.047-.267.14-.36A.487.487 0 0 1 .5 9.9h1.48V8.88H.5a.533.533 0 0 1-.36-.14.533.533 0 0 1-.14-.36V6.86c0-.147.047-.267.14-.36a.533.533 0 0 1 .36-.14h1.48V.5c0-.147.047-.267.14-.36A.558.558 0 0 1 2.5 0h5.6c1.707 0 3.047.393 4.02 1.18.973.773 1.46 1.92 1.46 3.44 0 1.413-.487 2.48-1.46 3.2-.96.707-2.3 1.06-4.02 1.06H5.72V9.9H8.4c.147 0 .267.047.36.14.093.093.14.213.14.36v.76a.533.533 0 0 1-.14.36.487.487 0 0 1-.36.14H5.72v1.84a.456.456 0 0 1-.16.36.487.487 0 0 1-.36.14H2.5zM8 6.36c.587 0 1.04-.147 1.36-.44.333-.307.5-.753.5-1.34 0-.547-.153-.98-.46-1.3-.307-.333-.773-.5-1.4-.5H5.64v3.58H8z" fill="#333"/></svg><svg fill="none" viewBox="0 0 24 24" id="search" xmlns="http://www.w3.org/2000/svg"><path opacity=".3" d="M14.293 16.707a1 1 0 0 1 1.414-1.414l4 4a1 1 0 0 1-1.414 1.414l-4-4z" fill="#00963F"/><path d="M11 16a5 5 0 1 0 0-10 5 5 0 0 0 0 10zm0 2a7 7 0 1 1 0-14 7 7 0 0 1 0 14z" fill="#00963F"/></svg><svg fill="none" viewBox="0 0 40 40" id="star" xmlns="http://www.w3.org/2000/svg"><path d="M19.859 1.027h0l5.05 12.533.228.567.61.055 12.925 1.164a.13.13 0 0 1 .022.101.057.057 0 0 1-.006.016.08.08 0 0 1-.016.019h0l-9.806 8.908-.43.39.126.567L31.5 38.599a.15.15 0 0 1 .005.043.073.073 0 0 1-.02.046l-11.101-7.02-.535-.338-.534.338-11.1 7.02a.072.072 0 0 1-.02-.046c-.001-.009-.001-.022.003-.043h0l2.939-13.252.125-.566-.43-.39-9.806-8.91v-.001a.08.08 0 0 1-.017-.02.059.059 0 0 1-.006-.015.129.129 0 0 1 .02-.1h0l12.928-1.165.609-.055.228-.567 5.05-12.53v-.001a.146.146 0 0 1 .01-.022.146.146 0 0 1 .01.022z" stroke="#E6E6E6" stroke-width="2"/></svg><svg fill="none" viewBox="0 0 40 40" id="star-filled" xmlns="http://www.w3.org/2000/svg"><path d="M20.323.84h0l5.05 12.533.114.284.304.027 12.927 1.165c.426.038.675.653.29 1.003h0l-9.806 8.909-.214.195.062.283L31.99 38.49a.58.58 0 0 1-.209.6.465.465 0 0 1-.553.026h-.001l-11.11-7.026-.267-.17-.267.17-11.109 7.025a.468.468 0 0 1-.555-.026.578.578 0 0 1-.208-.599l-.488-.108.488.108 2.939-13.252.062-.284-.214-.194-9.808-8.91v-.001c-.386-.35-.137-.965.29-1.004l12.927-1.164.304-.028.114-.283L19.375.84h0a.5.5 0 0 1 .949 0z" fill="#FEDB31" stroke="#FEDB31"/></svg><svg fill="none" viewBox="0 0 31 30" id="star-selected" xmlns="http://www.w3.org/2000/svg"><path d="M16.208.493l3.81 9.456 9.754.879c.676.061.951.946.438 1.412l-7.399 6.722 2.218 9.998c.153.695-.565 1.242-1.146.873l-8.382-5.301-8.382 5.3c-.583.368-1.3-.178-1.146-.872l2.217-9.998-7.4-6.723c-.513-.466-.24-1.352.439-1.413l9.753-.879 3.81-9.454a.755.755 0 0 1 1.416 0z" fill="#F3C92E"/></svg><svg fill="none" viewBox="0 0 24 24" id="user" xmlns="http://www.w3.org/2000/svg"><path opacity=".3" d="M12 11a4 4 0 1 1 0-8 4 4 0 0 1 0 8z" fill="#00963F"/><path d="M3 20.2c.388-4.773 4.262-7.2 8.983-7.2 4.788 0 8.722 2.293 9.015 7.2.012.195 0 .8-.751.8H3.727c-.25 0-.747-.54-.726-.8z" fill="#00963F"/></svg><svg fill="none" viewBox="0 0 30 30" id="vk" xmlns="http://www.w3.org/2000/svg"><path fill-rule="evenodd" clip-rule="evenodd" d="M30 15c0 8.284-6.716 15-15 15-8.284 0-15-6.716-15-15C0 6.716 6.716 0 15 0c8.284 0 15 6.716 15 15zm-14.39 6.579h-1.177s-2.597.156-4.885-2.225C7.053 16.756 4.85 11.6 4.85 11.6s-.127-.338.011-.501c.155-.184.578-.196.578-.196l2.814-.018s.265.044.455.184c.157.115.244.33.244.33s.455 1.15 1.057 2.19c1.176 2.032 1.724 2.477 2.123 2.259.582-.318.407-2.872.407-2.872s.01-.927-.293-1.34c-.235-.32-.678-.414-.874-.44-.158-.021.102-.389.439-.554.506-.248 1.4-.262 2.457-.251.824.008 1.06.06 1.383.138.747.18.723.758.673 2.005a31.1 31.1 0 0 0-.033 1.304c0 .112-.003.232-.006.355-.018.638-.038 1.37.383 1.641.215.14.742.021 2.061-2.218.626-1.062 1.094-2.31 1.094-2.31s.103-.222.262-.317c.162-.098.382-.068.382-.068l2.962-.018s.89-.106 1.034.295c.15.422-.333 1.406-1.543 3.02-1.149 1.53-1.707 2.094-1.655 2.592.038.364.401.693 1.097 1.338 1.458 1.353 1.846 2.064 1.939 2.233a.79.79 0 0 0 .017.03c.652 1.082-.724 1.167-.724 1.167l-2.63.036s-.566.113-1.31-.398c-.389-.267-.769-.703-1.131-1.119-.554-.635-1.066-1.222-1.503-1.083-.733.232-.71 1.812-.71 1.812s.005.337-.162.517c-.182.196-.537.235-.537.235z" fill="#00963F"/></svg><svg fill="none" viewBox="0 0 30 30" id="yt" xmlns="http://www.w3.org/2000/svg"><path d="M13.132 17.81l4.88-2.81-4.88-2.81v5.62z" fill="#00963F"/><path d="M15 0C6.717 0 0 6.717 0 15c0 8.283 6.717 15 15 15 8.283 0 15-6.717 15-15 0-8.283-6.717-15-15-15zm9.373 15.015s0 3.042-.386 4.51a2.349 2.349 0 0 1-1.652 1.651c-1.467.387-7.335.387-7.335.387s-5.852 0-7.335-.402a2.349 2.349 0 0 1-1.652-1.652C5.627 18.057 5.627 15 5.627 15s0-3.042.386-4.509a2.396 2.396 0 0 1 1.652-1.667C9.132 8.438 15 8.438 15 8.438s5.868 0 7.334.401c.803.216 1.436.85 1.653 1.652.401 1.467.386 4.524.386 4.524z" fill="#00963F"/></svg></svg>