<?xml version="1.0" encoding="utf-8"?><svg xmlns="http://www.w3.org/2000/svg" xmlns:xlink="http://www.w3.org/1999/xlink"><style>:root>svg{display:none}:root>svg:target{display:block}</style><svg fill="none" viewBox="0 0 12 8" id="arrow-down" xmlns="http://www.w3.org/2000/svg"><path d="M10.41.91A.833.833 0 1 1 11.59 2.09l-5 5a.833.833 0 0 1-1.152.025l-5-4.583a.833.833 0 0 1 1.126-1.229l4.412 4.044L10.41.91z" fill="#333" fill-opacity=".4"/></svg><svg fill="none" viewBox="0 0 10 17" id="arrow-left" xmlns="http://www.w3.org/2000/svg"><path d="M9.602 2.228A1.143 1.143 0 0 0 7.985.611l-6.86 6.86a1.143 1.143 0 0 0-.035 1.581l6.289 6.86a1.143 1.143 0 1 0 1.685-1.545L3.516 8.314l6.086-6.086z" fill="#333"/></svg><svg fill="none" viewBox="0 0 10 17" id="arrow-right" xmlns="http://www.w3.org/2000/svg"><path d="M.88 14.772a1.143 1.143 0 0 0 1.617 1.617l6.86-6.86c.433-.433.448-1.13.034-1.581l-6.288-6.86a1.143 1.143 0 0 0-1.686 1.545l5.549 6.053L.88 14.772z" fill="#333"/></svg><svg fill="none" viewBox="0 0 14 10" id="check" xmlns="http://www.w3.org/2000/svg"><path d="M11.782.293a.833.833 0 0 1 1.27 1.08L5.968 9.706a.833.833 0 0 1-1.188.083L1.03 6.456A.833.833 0 0 1 2.137 5.21L5.25 7.978 11.782.293z" fill="#00963F"/></svg><svg fill="none" viewBox="0 0 13 16" id="location" xmlns="http://www.w3.org/2000/svg"><path d="M0 6.852C0 2.74 2.6 0 6.5 0S13 3.426 13 6.852c0 2.13-1.886 5.057-5.658 8.778a1.25 1.25 0 0 1-1.728.046C1.87 12.34 0 9.399 0 6.852zm6.5 1.37c1.197 0 2.167-1.023 2.167-2.284S7.697 3.654 6.5 3.654c-1.197 0-2.167 1.023-2.167 2.284s.97 2.284 2.167 2.284z" fill="#00963F"/></svg><svg fill="none" viewBox="0 0 24 18" id="menu" xmlns="http://www.w3.org/2000/svg"><path fill-rule="evenodd" clip-rule="evenodd" d="M24 2H0V0h24v2zM24 10H0V8h24v2zM24 18H0v-2h24v2z" fill="#212121"/></svg><svg fill="none" viewBox="0 0 128 30" id="paraweb" xmlns="http://www.w3.org/2000/svg"><path d="M111.691 12.323c-1.617 0-3.402 1.116-3.402 3.457 0 1.785 1.171 3.514 3.402 3.514 2.23 0 3.401-1.785 3.401-3.514.056-1.728-1.115-3.457-3.401-3.457zm0 11.71c-2.454 0-4.629-.78-6.301-2.23-2.008-1.729-2.788-3.904-2.788-7.695 0-6.246.557-11.487 7.695-12.324l3.401-.39c1.729-.223 2.286-.446 2.509-1.06.112-.222.279-.334.502-.334h.112l3.513 1.171c.279.056.446.335.39.67-.669 2.731-1.505 3.512-4.349 3.902l-4.907.67c-2.454.334-4.238.836-4.684 4.07 1.338-1.561 3.345-2.342 5.855-2.342 2.119 0 4.126.725 5.632 2.063 1.617 1.45 2.453 3.458 2.453 5.8 0 4.684-3.736 8.03-9.033 8.03zM90.891 13.439c.28-1.283 1.06-2.454 2.621-2.454 1.394 0 2.23 1.115 2.23 2.454h-4.85zm-5.743 2.063c0 4.35 3.123 8.531 8.922 8.531 2.51 0 5.186-.836 6.97-2.342l-2.007-3.847c-1.338.892-2.9 1.617-4.461 1.617-1.729 0-3.402-.892-3.792-2.9h10.26c.056-.557.112-1.115.112-1.728 0-4.517-2.733-7.863-7.528-7.863-5.242.056-8.476 3.736-8.476 8.532zM75 20.242v-3.235h2.453c1.171 0 1.729.781 1.729 1.617 0 .837-.558 1.617-1.729 1.617h-2.454zm0-6.469v-3.011h2.007c1.06 0 1.505.67 1.505 1.394 0 .836-.446 1.617-1.45 1.617H75zm-5.465 9.87H78.4c3.234 0 6.19-1.283 6.19-4.851 0-1.394-.67-3.011-2.566-3.625v-.056c1.227-.725 1.896-2.174 1.896-3.513 0-2.788-2.286-4.237-5.52-4.237h-8.866v16.282zM57.49 18.569c0-1.506 2.175-1.952 3.848-1.952h.502v.446c0 1.338-1.227 2.9-2.788 2.9-1.004 0-1.562-.614-1.562-1.394zm-5.409.502c0 2.788 2.175 4.962 5.298 4.962 1.84 0 3.736-.836 4.851-2.342h.056s-.056.446-.056 1.004v1.004h5.019V13.662c0-4.127-2.788-6.636-7.25-6.636-2.676 0-5.52 1.06-6.914 2.119l1.896 3.848c1.282-.837 2.9-1.562 4.46-1.562 1.228 0 2.287.446 2.287 1.785v.278h-.446c-4.015 0-9.2 1.227-9.2 5.576zM39.87 15.612c0-2.788 1.56-4.015 3.178-4.015 1.896 0 3.178 1.562 3.178 4.015 0 2.51-1.505 3.904-3.178 3.904-2.119 0-3.178-1.952-3.178-3.904zM34.572 30h5.465v-6.134c0-.836-.056-1.394-.056-1.394h.056c1.17 1.004 2.62 1.561 4.126 1.561 4.35 0 7.584-3.345 7.584-8.476 0-5.074-2.9-8.531-7.305-8.531-1.952 0-3.848.78-4.907 2.23h-.056s.056-.501.056-1.059v-.836h-4.907V30h-.056zM22.528 18.569c0-1.506 2.174-1.952 3.847-1.952h.502v.446c0 1.338-1.227 2.9-2.788 2.9-1.004 0-1.561-.614-1.561-1.394zm-5.41.502c0 2.788 2.176 4.962 5.298 4.962 1.84 0 3.736-.836 4.851-2.342h.056s-.056.446-.056 1.004v1.004h5.019V13.662c0-4.127-2.788-6.636-7.249-6.636-2.677 0-5.52 1.06-6.915 2.119l1.896 3.848c1.283-.837 2.9-1.562 4.461-1.562 1.227 0 2.287.446 2.287 1.785v.278h-.446c-4.015 0-9.201 1.227-9.201 5.576zM0 23.642h5.465v-11.71h4.85v11.71h5.466V7.361H0v16.282zM126.356 22.807c.502-.502.725-1.06.725-1.729s-.223-1.282-.725-1.784-1.059-.725-1.784-.725c-.669 0-1.283.223-1.729.725-.502.502-.725 1.06-.725 1.784 0 .67.223 1.283.725 1.729.502.502 1.06.725 1.729.725.725 0 1.282-.28 1.784-.725z" fill="#AFAFAF"/></svg><svg fill="none" viewBox="0 0 16 16" id="phone" xmlns="http://www.w3.org/2000/svg"><path fill-rule="evenodd" clip-rule="evenodd" d="M8.085 10.143L5.881 7.939a2 2 0 0 1-.375-2.309l.125-.25a2 2 0 0 0-.374-2.308L2.524.339a.5.5 0 0 0-.8.13L.618 2.677a4.387 4.387 0 0 0 .822 5.064L7.44 13.74a5.427 5.427 0 0 0 5.553 1.311l2.415-.805a.5.5 0 0 0 .195-.828l-2.65-2.65a2 2 0 0 0-2.31-.376l-.25.125a2 2 0 0 1-2.308-.374z" fill="#00963F"/></svg><svg fill="none" viewBox="0 0 14 14" id="ruble" xmlns="http://www.w3.org/2000/svg"><path d="M2.5 14a.558.558 0 0 1-.38-.14.487.487 0 0 1-.14-.36v-1.84H.5a.533.533 0 0 1-.36-.14.533.533 0 0 1-.14-.36v-.76c0-.147.047-.267.14-.36A.487.487 0 0 1 .5 9.9h1.48V8.88H.5a.533.533 0 0 1-.36-.14.533.533 0 0 1-.14-.36V6.86c0-.147.047-.267.14-.36a.533.533 0 0 1 .36-.14h1.48V.5c0-.147.047-.267.14-.36A.558.558 0 0 1 2.5 0h5.6c1.707 0 3.047.393 4.02 1.18.973.773 1.46 1.92 1.46 3.44 0 1.413-.487 2.48-1.46 3.2-.96.707-2.3 1.06-4.02 1.06H5.72V9.9H8.4c.147 0 .267.047.36.14.093.093.14.213.14.36v.76a.533.533 0 0 1-.14.36.487.487 0 0 1-.36.14H5.72v1.84a.456.456 0 0 1-.16.36.487.487 0 0 1-.36.14H2.5zM8 6.36c.587 0 1.04-.147 1.36-.44.333-.307.5-.753.5-1.34 0-.547-.153-.98-.46-1.3-.307-.333-.773-.5-1.4-.5H5.64v3.58H8z" fill="#333"/></svg><svg fill="none" viewBox="0 0 24 24" id="search" xmlns="http://www.w3.org/2000/svg"><path opacity=".3" d="M14.293 16.707a1 1 0 0 1 1.414-1.414l4 4a1 1 0 0 1-1.414 1.414l-4-4z" fill="#00963F"/><path d="M11 16a5 5 0 1 0 0-10 5 5 0 0 0 0 10zm0 2a7 7 0 1 1 0-14 7 7 0 0 1 0 14z" fill="#00963F"/></svg><svg fill="none" viewBox="0 0 40 40" id="star" xmlns="http://www.w3.org/2000/svg"><path d="M19.859 1.027h0l5.05 12.533.228.567.61.055 12.925 1.164a.13.13 0 0 1 .022.101.057.057 0 0 1-.006.016.08.08 0 0 1-.016.019h0l-9.806 8.908-.43.39.126.567L31.5 38.599a.15.15 0 0 1 .005.043.073.073 0 0 1-.02.046l-11.101-7.02-.535-.338-.534.338-11.1 7.02a.072.072 0 0 1-.02-.046c-.001-.009-.001-.022.003-.043h0l2.939-13.252.125-.566-.43-.39-9.806-8.91v-.001a.08.08 0 0 1-.017-.02.059.059 0 0 1-.006-.015.129.129 0 0 1 .02-.1h0l12.928-1.165.609-.055.228-.567 5.05-12.53v-.001a.146.146 0 0 1 .01-.022.146.146 0 0 1 .01.022z" stroke="#E6E6E6" stroke-width="2"/></svg><svg fill="none" viewBox="0 0 40 40" id="star-filled" xmlns="http://www.w3.org/2000/svg"><path d="M20.323.84h0l5.05 12.533.114.284.304.027 12.927 1.165c.426.038.675.653.29 1.003h0l-9.806 8.909-.214.195.062.283L31.99 38.49a.58.58 0 0 1-.209.6.465.465 0 0 1-.553.026h-.001l-11.11-7.026-.267-.17-.267.17-11.109 7.025a.468.468 0 0 1-.555-.026.578.578 0 0 1-.208-.599l-.488-.108.488.108 2.939-13.252.062-.284-.214-.194-9.808-8.91v-.001c-.386-.35-.137-.965.29-1.004l12.927-1.164.304-.028.114-.283L19.375.84h0a.5.5 0 0 1 .949 0z" fill="#FEDB31" stroke="#FEDB31"/></svg><svg fill="none" viewBox="0 0 24 24" id="user" xmlns="http://www.w3.org/2000/svg"><path opacity=".3" d="M12 11a4 4 0 1 1 0-8 4 4 0 0 1 0 8z" fill="#00963F"/><path d="M3 20.2c.388-4.773 4.262-7.2 8.983-7.2 4.788 0 8.722 2.293 9.015 7.2.012.195 0 .8-.751.8H3.727c-.25 0-.747-.54-.726-.8z" fill="#00963F"/></svg></svg>