<svg width="132" height="165" viewBox="0 0 132 165" fill="none" xmlns="http://www.w3.org/2000/svg">
<g clip-path="url(#clip0)">
<path d="M76.168 148.553H67.7725V150.955C67.7725 153.164 69.5633 154.955 71.7725 154.955H72.168C74.3771 154.955 76.168 153.164 76.168 150.955V148.553Z" fill="#8DA2A9"/>
<path d="M120.495 148.553H118.502C116.734 148.553 115.301 149.986 115.301 151.754C115.301 153.522 116.734 154.955 118.502 154.955H120.495C122.263 154.955 123.696 153.522 123.696 151.754C123.696 149.986 122.263 148.553 120.495 148.553Z" fill="#8DA2A9"/>
<path d="M128.927 151.25H62.5425C60.8451 151.25 59.4688 149.878 59.4688 148.187V83.71C59.4688 81.1035 61.5791 79 64.1941 79H128.927C130.624 79 132.001 80.3718 132.001 82.0638V148.232C132.001 149.878 130.624 151.25 128.927 151.25Z" fill="#CCE6F0"/>
<path d="M96.5376 79H63.9647C61.4873 79 59.4688 81.012 59.4688 83.4813V148.369C59.4688 149.97 60.7533 151.25 62.359 151.25H96.5376V79Z" fill="#BBDAE2"/>
<path d="M125.027 145.854H66.4417C65.6159 145.854 64.9277 145.168 64.9277 144.345V87.3223C64.9277 85.7218 66.2123 84.4414 67.818 84.4414H125.027C125.853 84.4414 126.541 85.1273 126.541 85.9504V144.345C126.541 145.168 125.853 145.854 125.027 145.854ZM66.6711 144.116H124.798V86.1791H67.818C67.1757 86.1791 66.6711 86.6821 66.6711 87.3223V144.116Z" fill="#8DA2A9"/>
<path d="M96.5377 126.512C102.847 126.512 107.961 121.414 107.961 115.126C107.961 108.837 102.847 103.739 96.5377 103.739C90.2287 103.739 85.1143 108.837 85.1143 115.126C85.1143 121.414 90.2287 126.512 96.5377 126.512Z" fill="#8DA2A9"/>
<path d="M96.5375 118.555C98.4378 118.555 99.9783 117.019 99.9783 115.125C99.9783 113.231 98.4378 111.695 96.5375 111.695C94.6372 111.695 93.0967 113.231 93.0967 115.125C93.0967 117.019 94.6372 118.555 96.5375 118.555Z" fill="#D6E3E8"/>
<path d="M95.7114 110.049V105.751C93.6928 105.934 91.8577 106.711 90.4355 107.946L93.5093 111.01C94.1516 110.507 94.8856 110.187 95.7114 110.049Z" fill="#D6E3E8"/>
<path d="M91.4453 114.347C91.5829 113.524 91.904 112.747 92.3628 112.107L89.289 109.043C88.0503 110.506 87.2704 112.335 87.0869 114.302H91.4453V114.347Z" fill="#D6E3E8"/>
<path d="M92.3628 118.143C91.904 117.503 91.5829 116.725 91.4453 115.902H87.1328C87.3163 117.914 88.0962 119.744 89.3349 121.161L92.3628 118.143Z" fill="#D6E3E8"/>
<path d="M102.639 107.946C101.171 106.711 99.336 105.934 97.3633 105.751V110.049C98.1891 110.187 98.969 110.507 99.6113 110.964L102.639 107.946Z" fill="#D6E3E8"/>
<path d="M101.63 115.948C101.493 116.771 101.172 117.549 100.713 118.189L103.787 121.253C105.025 119.789 105.805 117.96 105.989 115.994H101.63V115.948Z" fill="#D6E3E8"/>
<path d="M95.7114 120.201C94.8856 120.064 94.1057 119.743 93.4634 119.286L90.3896 122.35C91.8577 123.585 93.6928 124.362 95.6655 124.545V120.201H95.7114Z" fill="#D6E3E8"/>
<path d="M100.713 112.107C101.172 112.747 101.493 113.524 101.63 114.348H105.943C105.759 112.336 104.979 110.506 103.741 109.089L100.713 112.107Z" fill="#D6E3E8"/>
<path d="M99.5654 119.286C98.9231 119.743 98.1432 120.064 97.3174 120.201V124.499C99.336 124.316 101.171 123.539 102.593 122.304L99.5654 119.286Z" fill="#D6E3E8"/>
<path d="M67.4966 106.391H60.2021C59.0093 106.391 58 105.431 58 104.196V100.584C58 99.3947 58.9634 98.3887 60.2021 98.3887H67.4966C68.6894 98.3887 69.6987 99.349 69.6987 100.584V104.196C69.6528 105.431 68.6894 106.391 67.4966 106.391Z" fill="#8DA2A9"/>
<path d="M101.612 59.1114L98.007 54.4715L97.0534 55.2124C87.3061 48.2792 72.4959 46.2742 62.7214 53.8679C52.947 61.4615 51.2457 76.2939 55.5274 87.4733L59.5004 88.5L59.5004 94C64.0561 99.8664 69.3845 102.561 76.6792 103.546C83.9738 104.531 91.3081 102.571 97.0687 98.0976C102.829 93.6242 106.544 87.0037 107.396 79.6923C108.248 72.381 106.167 64.9778 101.612 59.1114Z" fill="#ABBBC0" fill-opacity="0.35" style="mix-blend-mode:multiply"/>
<path d="M67.4966 132.457H60.2021C59.0093 132.457 58 131.496 58 130.262V126.649C58 125.46 58.9634 124.454 60.2021 124.454H67.4966C68.6894 124.454 69.6987 125.414 69.6987 126.649V130.262C69.6528 131.496 68.6894 132.457 67.4966 132.457Z" fill="#8DA2A9"/>
</g>
<path d="M37.3846 34.592C42.8588 39.5998 48.9684 47.1608 70.2369 61.5941C70.2369 61.5941 74.0926 60.569 74.3394 61.2521C74.5861 61.9352 71.6965 62.7321 71.6965 62.7321C71.6965 62.7321 76.7478 65.3186 76.4191 66.064C76.0903 66.8094 71.5846 64.5341 71.5846 64.5341C71.5846 64.5341 76.4769 67.3626 75.934 68.2375C75.3912 69.1125 70.816 65.9776 70.816 65.9776C70.816 65.9776 74.929 68.8018 74.6747 69.4916C74.4205 70.1813 70.2076 66.9549 70.2076 66.9549C70.2076 66.9549 72.4675 69.3395 71.8428 69.9152C71.2181 70.4908 68.2417 66.7948 67.3419 65.0714C67.3419 65.0714 51.677 57.4305 41.5569 52.0426C31.4369 46.6547 25.7317 38.0872 28.9074 34.1631C31.0466 31.4849 34.2183 31.6982 37.3846 34.592Z" fill="#E8AAAD"/>
<path d="M38.1075 49.9687L44.7858 41.73C41.6845 38.8178 39.489 36.527 37.4027 34.6104C34.2364 31.7166 31.0925 31.5034 28.9255 34.1814C26.105 37.6218 30.1303 44.6204 38.1075 49.9687Z" fill="white"/>
<path d="M32.0025 18.7857L32.0033 25.3654L27.8184 25.6888L28.7197 18.3532L32.0025 18.7857Z" fill="#F9B7B8"/>
<path d="M23.0234 78.5081C23.0234 78.5081 34.0573 121.116 36.2398 160.837H39.8553C39.8553 160.837 47.7701 106.657 44.1171 72.7266L23.0234 78.5081Z" fill="#F9B7B8"/>
<path d="M45.6906 165H36.249V160.855H45.6906C46.2374 160.86 46.7607 161.076 47.1491 161.456C47.5375 161.836 47.7603 162.351 47.77 162.891C47.775 163.164 47.725 163.436 47.6229 163.691C47.5209 163.945 47.3688 164.177 47.1755 164.373C46.9821 164.569 46.7514 164.726 46.4965 164.833C46.2416 164.941 45.9677 164.997 45.6906 165Z" fill="#1D124C"/>
<path d="M23.0234 78.5081C23.0234 78.5081 33.4111 118.618 36.0243 157.266H40.3424C42.0096 144.695 47.2269 101.468 44.089 72.7266L23.0234 78.5081Z" fill="#E9C295"/>
<path style="mix-blend-mode:overlay" opacity="0.5" d="M31.2474 118.193C36.0878 115.588 40.6101 112.443 44.726 108.822C45.2786 96.343 45.2786 83.5126 44.1171 72.7451L23.0234 78.5082C23.0234 78.5082 27.4539 95.6215 31.2474 118.193Z" fill="url(#paint0_linear)"/>
<path d="M44.1168 72.727C42.59 57.2695 42.8429 26.9465 31.9402 25.3184C17.7965 23.2093 20.0632 72.727 20.0632 72.727H44.1168Z" fill="white"/>
<path d="M20.063 72.7266C20.447 86.4912 11.5768 136.212 2.60352 154.686L5.90058 157.266C5.90058 157.266 39.9202 107.036 44.1165 72.7266H20.063Z" fill="#F9B7B8"/>
<path d="M7.40902 163.732L0 157.942L2.60393 154.686L10.0129 160.476C10.2297 160.645 10.4107 160.854 10.5454 161.092C10.6802 161.33 10.7661 161.592 10.7983 161.862C10.8305 162.133 10.8083 162.407 10.733 162.669C10.6577 162.932 10.5308 163.177 10.3595 163.39C10.1887 163.604 9.97688 163.783 9.73608 163.916C9.49527 164.049 9.23024 164.134 8.95617 164.166C8.68209 164.198 8.40436 164.176 8.13888 164.101C7.8734 164.027 7.62537 163.902 7.40902 163.732Z" fill="#1D124C"/>
<path d="M7.82075 154.353C15.0612 143.169 40.5197 102.097 44.1165 72.7266H20.063C20.4283 85.8067 12.4291 131.365 3.93359 151.707C5.03886 152.502 6.41576 153.455 7.82075 154.353Z" fill="#E9C295"/>
<path d="M76.9672 47.2158H72.134V48.2149C62.7111 51.064 53.9346 59.7224 53.9346 69.9627C53.9346 80.2029 62.7111 88.8429 72.134 91.7198V92.7188H76.9578C83.0677 92.72 88.9278 90.3242 93.249 86.0583C97.5702 81.7925 99.9985 76.006 99.9997 69.9719C100.001 63.9379 97.575 58.1504 93.2556 53.8828C88.9362 49.6152 83.077 47.217 76.9672 47.2158V47.2158Z" fill="#CEA74C"/>
<path d="M72.1342 92.7095C84.8547 92.7095 95.1667 82.5254 95.1667 69.9627C95.1667 57.3999 84.8547 47.2158 72.1342 47.2158C59.4136 47.2158 49.1016 57.3999 49.1016 69.9627C49.1016 82.5254 59.4136 92.7095 72.1342 92.7095Z" fill="#FFCE5D"/>
<path d="M72.1343 90.8036C67.9605 90.8036 63.8805 89.5813 60.4101 87.2913C56.9397 85.0012 54.2349 81.7462 52.6376 77.938C51.0404 74.1297 50.6225 69.9393 51.4367 65.8964C52.251 61.8536 54.2609 58.1401 57.2122 55.2254C60.1635 52.3107 63.9237 50.3257 68.0173 49.5216C72.1109 48.7174 76.354 49.1301 80.2101 50.7076C84.0662 52.285 87.362 54.9563 89.6809 58.3836C91.9997 61.8109 93.2374 65.8404 93.2374 69.9624C93.2299 75.4876 91.0042 80.7844 87.0482 84.6913C83.0922 88.5982 77.7289 90.7963 72.1343 90.8036Z" fill="#E5B954"/>
<path d="M72.1347 86.0677C68.9162 86.0677 65.7698 85.1254 63.0934 83.3601C60.4169 81.5947 58.3303 79.0854 57.0973 76.1493C55.8644 73.2132 55.5404 69.982 56.1662 66.864C56.7921 63.7461 58.3397 60.8814 60.6136 58.6318C62.8875 56.3823 65.7856 54.8489 68.9416 54.2254C72.0976 53.6019 75.3699 53.9164 78.345 55.129C81.3202 56.3416 83.8646 58.3979 85.6567 61.0381C87.4489 63.6784 88.4084 66.784 88.4139 69.9626C88.4164 74.2299 86.703 78.3235 83.6503 81.3435C80.5976 84.3635 76.4556 86.0628 72.1347 86.0677Z" fill="#FFCE5D"/>
<mask id="mask0" mask-type="alpha" maskUnits="userSpaceOnUse" x="53" y="47" width="47" height="46">
<path d="M76.9672 47.2158H72.134V48.2149C62.7111 51.064 53.9346 59.7224 53.9346 69.9627C53.9346 80.2029 62.7111 88.8429 72.134 91.7198V92.7188H76.9578C83.0677 92.72 88.9278 90.3242 93.249 86.0583C97.5702 81.7925 99.9985 76.006 99.9997 69.9719C100.001 63.9379 97.575 58.1504 93.2556 53.8828C88.9362 49.6152 83.077 47.217 76.9672 47.2158V47.2158Z" fill="#CEA74C"/>
</mask>
<g mask="url(#mask0)">
<path d="M95.1758 69.9629H99.9996" stroke="#FFCE5D" stroke-width="0.52" stroke-miterlimit="10" stroke-linecap="round"/>
<path d="M94.8291 66.0312H99.6529" stroke="#FFCE5D" stroke-width="0.52" stroke-miterlimit="10" stroke-linecap="round"/>
<path d="M93.7617 62.0996H98.5855" stroke="#FFCE5D" stroke-width="0.52" stroke-miterlimit="10" stroke-linecap="round"/>
<path d="M92.3945 59.1211H97.2184" stroke="#FFCE5D" stroke-width="0.52" stroke-miterlimit="10" stroke-linecap="round"/>
<path d="M90.4365 56.1426H95.2604" stroke="#FFCE5D" stroke-width="0.52" stroke-miterlimit="10" stroke-linecap="round"/>
<path d="M88.6572 54.1162H93.4904" stroke="#FFCE5D" stroke-width="0.52" stroke-miterlimit="10" stroke-linecap="round"/>
<path d="M86.3809 52.0908H91.214" stroke="#FFCE5D" stroke-width="0.52" stroke-miterlimit="10" stroke-linecap="round"/>
<path d="M83.3086 50.0645H88.1324" stroke="#FFCE5D" stroke-width="0.52" stroke-miterlimit="10" stroke-linecap="round"/>
<path d="M78.2881 48.0391H83.1213" stroke="#FFCE5D" stroke-width="0.52" stroke-miterlimit="10" stroke-linecap="round"/>
<path d="M94.8291 73.8945H99.6529" stroke="#FFCE5D" stroke-width="0.52" stroke-miterlimit="10" stroke-linecap="round"/>
<path d="M93.7617 77.8252H98.5855" stroke="#FFCE5D" stroke-width="0.52" stroke-miterlimit="10" stroke-linecap="round"/>
<path d="M92.3945 80.8037H97.2184" stroke="#FFCE5D" stroke-width="0.52" stroke-miterlimit="10" stroke-linecap="round"/>
<path d="M90.4365 83.7832H95.2604" stroke="#FFCE5D" stroke-width="0.52" stroke-miterlimit="10" stroke-linecap="round"/>
<path d="M88.6572 85.8086H93.4904" stroke="#FFCE5D" stroke-width="0.52" stroke-miterlimit="10" stroke-linecap="round"/>
<path d="M86.3809 87.835H91.214" stroke="#FFCE5D" stroke-width="0.52" stroke-miterlimit="10" stroke-linecap="round"/>
</g>
<path d="M90.6793 67.9797H90.1984C89.8333 67.9797 89.4832 67.8325 89.2251 67.5704C88.967 67.3083 88.822 66.9529 88.822 66.5823V65.6562C88.822 65.418 88.73 65.1893 88.5656 65.0192C88.4012 64.8492 88.1777 64.7515 87.9431 64.7471V64.7471C87.7056 64.7471 87.4779 64.8429 87.3099 65.0134C87.142 65.1839 87.0476 65.4151 87.0476 65.6562V66.5654C87.0476 66.936 86.9026 67.2915 86.6445 67.5536C86.3864 67.8156 86.0363 67.9629 85.6713 67.9629H85.1904C84.9529 67.9629 84.7251 68.0586 84.5572 68.2291C84.3893 68.3997 84.2949 68.6309 84.2949 68.872C84.2949 69.1132 84.3893 69.3444 84.5572 69.5149C84.7251 69.6854 84.9529 69.7812 85.1904 69.7812H85.6713C86.0363 69.7812 86.3864 69.9284 86.6445 70.1905C86.9026 70.4526 87.0476 70.808 87.0476 71.1786V72.0878C87.0476 72.3289 87.142 72.5602 87.3099 72.7307C87.4779 72.9012 87.7056 72.997 87.9431 72.997C88.1806 72.997 88.4084 72.9012 88.5763 72.7307C88.7442 72.5602 88.8386 72.3289 88.8386 72.0878V71.2292C88.8342 71.0442 88.866 70.8603 88.9321 70.6879C88.9983 70.5156 89.0975 70.3583 89.224 70.2252C89.3505 70.092 89.5017 69.9857 89.669 69.9124C89.8363 69.8391 90.0162 69.8002 90.1984 69.798H90.6793C90.9168 69.798 91.1445 69.7023 91.3124 69.5318C91.4804 69.3612 91.5747 69.13 91.5747 68.8889C91.5747 68.6477 91.4804 68.4165 91.3124 68.246C91.1445 68.0755 90.9168 67.9797 90.6793 67.9797Z" fill="white"/>
<path d="M59.9573 79.046H59.6857C59.4795 79.046 59.2818 78.9651 59.136 78.8211C58.9902 78.6772 58.9083 78.4819 58.9083 78.2782V77.7417C58.9083 77.6092 58.855 77.4822 58.7601 77.3885C58.6653 77.2948 58.5366 77.2422 58.4025 77.2422C58.2683 77.2422 58.1397 77.2948 58.0448 77.3885C57.95 77.4822 57.8967 77.6092 57.8967 77.7417V78.2412C57.8967 78.4449 57.8148 78.6402 57.669 78.7841C57.5232 78.9281 57.3254 79.009 57.1192 79.009H56.8476C56.7135 79.009 56.5848 79.0617 56.4899 79.1553C56.3951 79.249 56.3418 79.3761 56.3418 79.5085C56.3418 79.641 56.3951 79.7681 56.4899 79.8618C56.5848 79.9554 56.7135 80.0081 56.8476 80.0081H57.1192C57.3254 80.0081 57.5232 80.089 57.669 80.233C57.8148 80.3769 57.8967 80.5722 57.8967 80.7759V81.2754C57.8967 81.4079 57.95 81.5349 58.0448 81.6286C58.1397 81.7223 58.2683 81.7749 58.4025 81.7749C58.5366 81.7749 58.6653 81.7223 58.7601 81.6286C58.855 81.5349 58.9083 81.4079 58.9083 81.2754V80.7759C58.9083 80.5722 58.9902 80.3769 59.136 80.233C59.2818 80.089 59.4795 80.0081 59.6857 80.0081H59.9573C60.0915 80.0081 60.2201 79.9554 60.315 79.8618C60.4098 79.7681 60.4631 79.641 60.4631 79.5085C60.4537 79.3826 60.3962 79.2648 60.3024 79.179C60.2085 79.0932 60.0852 79.0457 59.9573 79.046Z" fill="white"/>
<path d="M38.6307 35.7106C43.452 41.3406 48.5742 49.6341 67.8898 66.6158C67.8898 66.6158 71.8449 66.0769 71.9988 66.7876C72.1526 67.4982 69.2093 67.9212 69.2093 67.9212C69.2093 67.9212 73.9048 71.1222 73.4835 71.8204C73.0622 72.5186 68.8564 69.6939 68.8564 69.6939C68.8564 69.6939 73.3557 73.1366 72.7206 73.9084C72.0855 74.6801 67.9399 71.0338 67.9399 71.0338C67.9399 71.0338 71.6327 74.3601 71.3323 75.0029C71.0319 75.6457 67.1651 71.9169 67.1651 71.9169C67.1651 71.9169 69.1081 74.5612 68.4282 75.0525C67.7483 75.5438 65.2282 71.5234 64.561 69.6799C64.561 69.6799 49.9641 60.1395 40.5837 53.5227C31.2033 46.906 26.6238 37.7656 30.2706 34.2269C32.7514 31.8401 35.8374 32.4452 38.6307 35.7106Z" fill="#F9B7B8"/>
<path d="M37.4342 51.0397L45.0725 43.7028C42.3535 40.4285 40.4656 37.8778 38.622 35.7103C35.8566 32.4358 32.7427 31.8398 30.2805 34.2174C27.0629 37.3007 30.1951 44.7521 37.4342 51.0397Z" fill="white"/>
<path d="M28.0628 19.6848C31.4745 22.9976 36.2619 21.2396 38.0571 18.2301C39.8524 15.2206 38.9214 9.58966 37.3413 7.44387C36.5979 6.64405 35.682 6.02187 34.6634 5.62479C33.6448 5.22772 32.5505 5.06623 31.4638 5.15266C30.3772 5.23909 29.3269 5.57115 28.3933 6.12351C27.4596 6.67587 26.6671 7.43393 26.0764 8.33985C22.4451 13.597 26.858 18.5244 28.0628 19.6848Z" fill="#F9B7B8"/>
<path d="M28.341 15.05C27.3742 14.194 26.6828 13.1068 26.3436 11.9093C29.08 11.1426 41.1002 8.69218 39.4912 2.68206C38.4186 -2.32642 22.6386 0.261129 19.0234 5.66493C17.4405 8.3134 16.7747 11.3475 17.116 14.3572C17.5954 19.1606 17.5954 22.7354 15.7578 25.6544C13.9203 28.5734 11.0741 32.0558 11.4835 37.6628C11.893 43.2699 6.63003 47.4174 11.6233 54.6686C16.6167 61.9199 30.0818 60.5713 29.5625 49.6528C29.1231 40.9975 32.7282 40.979 32.4686 35.3997C32.2289 30.4023 29.3727 28.0653 28.7236 24.7307C28.0745 21.396 30.9075 16.8974 28.341 15.05Z" fill="#1D124C"/>
<path d="M28.768 12.4028C28.768 12.4028 26.9067 10.7595 25.8256 12.4201C24.7445 14.0807 26.8856 16.8347 28.5962 16.2177C29.8823 15.7627 29.1517 13.594 28.768 12.4028Z" fill="#F9B7B8"/>
<path d="M36.2785 14.4821C36.5278 14.6485 36.864 14.5838 37.0293 14.3376C37.1946 14.0914 37.1265 13.7569 36.8772 13.5904C36.6279 13.424 36.2918 13.4887 36.1264 13.7349C35.9611 13.9811 36.0292 14.3157 36.2785 14.4821Z" fill="#1D124C"/>
<defs>
<linearGradient id="paint0_linear" x1="33.3923" y1="74.5952" x2="40.6972" y2="116.549" gradientUnits="userSpaceOnUse">
<stop/>
<stop offset="0.9" stop-opacity="0"/>
</linearGradient>
<clipPath id="clip0">
<rect width="74" height="76" fill="white" transform="translate(58 79)"/>
</clipPath>
</defs>
</svg>
